<svg width="725" height="342" viewBox="0 0 725 342" fill="none" xmlns="http://www.w3.org/2000/svg">
<g filter="url(#filter0_d_3762_67)">
<mask id="path-1-outside-1_3762_67" maskUnits="userSpaceOnUse" x="16" y="13" width="692" height="308" fill="black">
<rect fill="white" x="16" y="13" width="692" height="308"/>
<path d="M77.6 317.2C65.3333 317.2 54.8667 314.467 46.2 309C37.6667 303.4 31.1333 295.8 26.6 286.2C22.2 276.6 20 265.733 20 253.6V80.4C20 68.4 22.2667 57.6 26.8 48C31.4667 38.4 38.1333 30.8 46.8 25.2C55.4667 19.6 65.7333 16.8 77.6 16.8C86.5333 16.8 94.5333 18.4667 101.6 21.8C108.667 25.1333 114.667 29.7333 119.6 35.6C124.667 41.3333 128.533 48.0667 131.2 55.8C133.867 63.4 135.2 71.6 135.2 80.4V120.8H94.8V80.4C94.8 74.2666 93.5333 69.1333 91 65C88.4667 60.8667 84.2667 58.8 78.4 58.8C73.0667 58.8 69.2 60.9333 66.8 65.2C64.4 69.4667 63.2 74.5333 63.2 80.4V253.6C63.2 259.467 64.4667 264.533 67 268.8C69.6667 273.067 73.4667 275.2 78.4 275.2C84.4 275.2 88.6 273.133 91 269C93.5333 264.867 94.8 259.733 94.8 253.6V213.2H135.2V253.6C135.2 265.6 132.867 276.4 128.2 286C123.533 295.6 116.867 303.2 108.2 308.8C99.6667 314.4 89.4667 317.2 77.6 317.2ZM199.359 314V188.8L155.359 20H197.759L218.959 114L220.359 126.8H221.559L222.959 114L244.159 20H286.559L242.559 188.8V314H199.359ZM308.719 314V20H352.719C367.652 20 380.519 22.6667 391.319 28C402.252 33.2 410.652 41.4 416.519 52.6C422.519 63.8 425.519 78.2667 425.519 96C425.519 110.133 423.652 122.467 419.919 133C416.319 143.533 409.252 152.133 398.719 158.8C409.385 164.667 417.052 174 421.719 186.8C426.385 199.467 428.719 214.133 428.719 230.8C428.719 247.2 426.052 261.667 420.719 274.2C415.519 286.733 407.785 296.533 397.519 303.6C387.385 310.533 374.852 314 359.919 314H308.719ZM351.919 271.2C364.985 271.2 373.585 267.333 377.719 259.6C381.852 251.733 383.919 240.533 383.919 226C383.919 211.2 381.852 200 377.719 192.4C373.585 184.667 364.985 180.8 351.919 180.8V271.2ZM351.919 141.2C364.052 141.2 372.385 137.867 376.919 131.2C381.585 124.533 383.919 114.667 383.919 101.6C383.919 88.4 381.519 78.6667 376.719 72.4C372.052 66 363.785 62.8 351.919 62.8V141.2ZM454.422 314V20H553.222V64.4H497.622V143.6H537.622V186.8H497.622V269.6H553.222V314H454.422ZM585.281 314V20H628.481C654.348 20 673.415 27.2 685.681 41.6C697.948 55.8666 704.081 76.9333 704.081 104.8C704.081 121.333 701.148 135.667 695.281 147.8C689.548 159.8 682.548 168.6 674.281 174.2L703.681 314H660.481L636.081 190H628.481V314H585.281ZM628.481 150C636.481 150 642.815 148.267 647.481 144.8C652.148 141.2 655.481 136.133 657.481 129.6C659.481 123.067 660.481 115.333 660.481 106.4C660.481 92.4 658.148 81.6667 653.481 74.2C648.948 66.6 640.615 62.8 628.481 62.8V150Z"/>
</mask>
<path d="M46.2 309L44.2797 311.926L44.3061 311.943L44.3327 311.96L46.2 309ZM26.6 286.2L23.4183 287.658L23.4266 287.676L23.4351 287.695L26.6 286.2ZM26.8 48L23.6522 46.4698L23.6436 46.4876L23.6351 46.5055L26.8 48ZM46.8 25.2L44.9005 22.2603L44.9005 22.2603L46.8 25.2ZM119.6 35.6L116.921 37.8526L116.949 37.8855L116.977 37.9177L119.6 35.6ZM131.2 55.8L127.891 56.941L127.894 56.9499L127.897 56.9588L131.2 55.8ZM135.2 120.8V124.3H138.7V120.8H135.2ZM94.8 120.8H91.3V124.3H94.8V120.8ZM91 65L88.0159 66.829V66.829L91 65ZM66.8 65.2L63.7495 63.4841H63.7495L66.8 65.2ZM67 268.8L63.9905 270.587L64.0109 270.621L64.032 270.655L67 268.8ZM91 269L88.0159 267.171L87.9941 267.207L87.9732 267.243L91 269ZM94.8 213.2V209.7H91.3V213.2H94.8ZM135.2 213.2H138.7V209.7H135.2V213.2ZM128.2 286L125.052 284.47L128.2 286ZM108.2 308.8L106.301 305.86L106.29 305.867L106.28 305.874L108.2 308.8ZM77.6 313.7C65.8626 313.7 56.0732 311.09 48.0673 306.04L44.3327 311.96C53.6601 317.844 64.804 320.7 77.6 320.7V313.7ZM48.1203 306.074C40.1479 300.842 34.0346 293.747 29.7649 284.705L23.4351 287.695C28.232 297.853 35.1854 305.958 44.2797 311.926L48.1203 306.074ZM29.7817 284.742C25.6205 275.663 23.5 265.305 23.5 253.6H16.5C16.5 266.162 18.7795 277.537 23.4183 287.658L29.7817 284.742ZM23.5 253.6V80.4H16.5V253.6H23.5ZM23.5 80.4C23.5 68.8492 25.6794 58.5697 29.9649 49.4945L23.6351 46.5055C18.854 56.6303 16.5 67.9508 16.5 80.4H23.5ZM29.9478 49.5302C34.345 40.4844 40.589 33.3803 48.6995 28.1397L44.9005 22.2603C35.6777 28.2196 28.5883 36.3156 23.6522 46.4698L29.9478 49.5302ZM48.6995 28.1397C56.719 22.9579 66.3036 20.3 77.6 20.3V13.3C65.1631 13.3 54.2144 16.2421 44.9005 22.2603L48.6995 28.1397ZM77.6 20.3C86.0911 20.3 93.5698 21.882 100.107 24.9655L103.093 18.6345C95.4969 15.0513 86.9756 13.3 77.6 13.3V20.3ZM100.107 24.9655C106.726 28.0878 112.319 32.3797 116.921 37.8526L122.279 33.3474C117.014 27.0869 110.607 22.1788 103.093 18.6345L100.107 24.9655ZM116.977 37.9177C121.72 43.2843 125.364 49.6107 127.891 56.941L134.509 54.659C131.703 46.5226 127.613 39.3824 122.223 33.2823L116.977 37.9177ZM127.897 56.9588C130.422 64.1535 131.7 71.9581 131.7 80.4H138.7C138.7 71.2418 137.311 62.6465 134.503 54.6412L127.897 56.9588ZM131.7 80.4V120.8H138.7V80.4H131.7ZM135.2 117.3H94.8V124.3H135.2V117.3ZM98.3 120.8V80.4H91.3V120.8H98.3ZM98.3 80.4C98.3 73.7905 96.9335 67.9832 93.9841 63.171L88.0159 66.829C90.1332 70.2834 91.3 74.7428 91.3 80.4H98.3ZM93.9841 63.171C90.6729 57.7686 85.1864 55.3 78.4 55.3V62.3C83.3469 62.3 86.2604 63.9647 88.0159 66.829L93.9841 63.171ZM78.4 55.3C71.9405 55.3 66.8343 57.9999 63.7495 63.4841L69.8505 66.9159C71.5657 63.8667 74.1929 62.3 78.4 62.3V55.3ZM63.7495 63.4841C61.0014 68.3695 59.7 74.0514 59.7 80.4H66.7C66.7 75.0152 67.7986 70.5638 69.8505 66.9159L63.7495 63.4841ZM59.7 80.4V253.6H66.7V80.4H59.7ZM59.7 253.6C59.7 259.98 61.0818 265.688 63.9905 270.587L70.0095 267.013C67.8515 263.379 66.7 258.953 66.7 253.6H59.7ZM64.032 270.655C67.3228 275.92 72.2309 278.7 78.4 278.7V271.7C74.7024 271.7 72.0106 270.213 69.968 266.945L64.032 270.655ZM78.4 278.7C85.2773 278.7 90.8345 276.255 94.0268 270.757L87.9732 267.243C86.3655 270.011 83.5227 271.7 78.4 271.7V278.7ZM93.9841 270.829C96.9335 266.017 98.3 260.21 98.3 253.6H91.3C91.3 259.257 90.1332 263.717 88.0159 267.171L93.9841 270.829ZM98.3 253.6V213.2H91.3V253.6H98.3ZM94.8 216.7H135.2V209.7H94.8V216.7ZM131.7 213.2V253.6H138.7V213.2H131.7ZM131.7 253.6C131.7 265.136 129.46 275.403 125.052 284.47L131.348 287.53C136.274 277.397 138.7 266.064 138.7 253.6H131.7ZM125.052 284.47C120.655 293.516 114.411 300.62 106.301 305.86L110.1 311.74C119.322 305.78 126.412 297.684 131.348 287.53L125.052 284.47ZM106.28 305.874C98.4049 311.042 88.8979 313.7 77.6 313.7V320.7C90.0355 320.7 100.928 317.758 110.12 311.726L106.28 305.874ZM199.359 314H195.859V317.5H199.359V314ZM199.359 188.8H202.859V188.351L202.746 187.917L199.359 188.8ZM155.359 20V16.5H150.83L151.973 20.8828L155.359 20ZM197.759 20L201.174 19.23L200.558 16.5H197.759V20ZM218.959 114L222.439 113.619L222.417 113.423L222.374 113.23L218.959 114ZM220.359 126.8L216.88 127.181L217.221 130.3H220.359V126.8ZM221.559 126.8V130.3H224.697L225.039 127.181L221.559 126.8ZM222.959 114L219.545 113.23L219.502 113.423L219.48 113.619L222.959 114ZM244.159 20V16.5H241.361L240.745 19.23L244.159 20ZM286.559 20L289.946 20.8828L291.089 16.5H286.559V20ZM242.559 188.8L239.173 187.917L239.059 188.351V188.8H242.559ZM242.559 314V317.5H246.059V314H242.559ZM202.859 314V188.8H195.859V314H202.859ZM202.746 187.917L158.746 19.1172L151.973 20.8828L195.973 189.683L202.746 187.917ZM155.359 23.5H197.759V16.5H155.359V23.5ZM194.345 20.77L215.545 114.77L222.374 113.23L201.174 19.23L194.345 20.77ZM215.48 114.381L216.88 127.181L223.839 126.419L222.439 113.619L215.48 114.381ZM220.359 130.3H221.559V123.3H220.359V130.3ZM225.039 127.181L226.439 114.381L219.48 113.619L218.08 126.419L225.039 127.181ZM226.374 114.77L247.574 20.77L240.745 19.23L219.545 113.23L226.374 114.77ZM244.159 23.5H286.559V16.5H244.159V23.5ZM283.173 19.1172L239.173 187.917L245.946 189.683L289.946 20.8828L283.173 19.1172ZM239.059 188.8V314H246.059V188.8H239.059ZM242.559 310.5H199.359V317.5H242.559V310.5ZM308.719 314H305.219V317.5H308.719V314ZM308.719 20V16.5H305.219V20H308.719ZM391.319 28L389.769 31.1382L389.792 31.1496L389.815 31.1607L391.319 28ZM416.519 52.6L413.418 54.224L413.426 54.2384L413.434 54.2528L416.519 52.6ZM419.919 133L416.62 131.831L416.613 131.849L416.607 131.868L419.919 133ZM398.719 158.8L396.847 155.843L391.84 159.011L397.032 161.867L398.719 158.8ZM421.719 186.8L418.43 187.999L418.435 188.01L421.719 186.8ZM420.719 274.2L417.498 272.83L417.492 272.844L417.486 272.859L420.719 274.2ZM397.519 303.6L399.495 306.489L399.503 306.483L397.519 303.6ZM351.919 271.2H348.419V274.7H351.919V271.2ZM377.719 259.6L380.806 261.25L380.811 261.239L380.817 261.228L377.719 259.6ZM377.719 192.4L374.632 194.05L374.638 194.061L374.644 194.072L377.719 192.4ZM351.919 180.8V177.3H348.419V180.8H351.919ZM351.919 141.2H348.419V144.7H351.919V141.2ZM376.919 131.2L374.051 129.193L374.038 129.212L374.025 129.232L376.919 131.2ZM376.719 72.4L373.891 74.4621L373.915 74.4955L373.94 74.5283L376.719 72.4ZM351.919 62.8V59.3H348.419V62.8H351.919ZM312.219 314V20H305.219V314H312.219ZM308.719 23.5H352.719V16.5H308.719V23.5ZM352.719 23.5C367.241 23.5 379.553 26.093 389.769 31.1382L392.868 24.8618C381.485 19.2403 368.063 16.5 352.719 16.5V23.5ZM389.815 31.1607C400.032 36.0199 407.887 43.6639 413.418 54.224L419.619 50.976C413.417 39.1361 404.472 30.3801 392.822 24.8393L389.815 31.1607ZM413.434 54.2528C419.075 64.7833 422.019 78.6276 422.019 96H429.019C429.019 77.9057 425.963 62.8167 419.604 50.9472L413.434 54.2528ZM422.019 96C422.019 109.836 420.19 121.757 416.62 131.831L423.218 134.169C427.114 123.176 429.019 110.431 429.019 96H422.019ZM416.607 131.868C413.296 141.556 406.792 149.548 396.847 155.843L400.591 161.757C411.712 154.718 419.342 145.511 423.231 134.132L416.607 131.868ZM397.032 161.867C406.867 167.276 414.017 175.893 418.43 187.999L425.007 185.601C420.087 172.107 411.904 162.057 400.405 155.733L397.032 161.867ZM418.435 188.01C422.929 200.21 425.219 214.453 425.219 230.8H432.219C432.219 213.814 429.841 198.723 425.003 185.59L418.435 188.01ZM425.219 230.8C425.219 246.823 422.614 260.808 417.498 272.83L423.939 275.57C429.491 262.525 432.219 247.577 432.219 230.8H425.219ZM417.486 272.859C412.521 284.826 405.196 294.067 395.534 300.717L399.503 306.483C410.375 299 418.517 288.641 423.952 275.541L417.486 272.859ZM395.542 300.711C386.107 307.167 374.301 310.5 359.919 310.5V317.5C375.403 317.5 388.664 313.899 399.495 306.489L395.542 300.711ZM359.919 310.5H308.719V317.5H359.919V310.5ZM351.919 274.7C365.577 274.7 375.792 270.629 380.806 261.25L374.632 257.95C371.378 264.037 364.394 267.7 351.919 267.7V274.7ZM380.817 261.228C385.331 252.637 387.419 240.781 387.419 226H380.419C380.419 240.286 378.373 250.83 374.62 257.972L380.817 261.228ZM387.419 226C387.419 210.978 385.339 199.086 380.793 190.728L374.644 194.072C378.365 200.914 380.419 211.422 380.419 226H387.419ZM380.806 190.75C375.792 181.371 365.577 177.3 351.919 177.3V184.3C364.394 184.3 371.378 187.963 374.632 194.05L380.806 190.75ZM348.419 180.8V271.2H355.419V180.8H348.419ZM351.919 144.7C364.594 144.7 374.345 141.21 379.813 133.168L374.025 129.232C370.426 134.524 363.51 137.7 351.919 137.7V144.7ZM379.786 133.207C385.046 125.693 387.419 114.986 387.419 101.6H380.419C380.419 114.348 378.125 123.373 374.051 129.193L379.786 133.207ZM387.419 101.6C387.419 88.1018 384.988 77.4399 379.497 70.2717L373.94 74.5283C378.05 79.8935 380.419 88.6982 380.419 101.6H387.419ZM379.547 70.3379C373.941 62.6501 364.323 59.3 351.919 59.3V66.3C363.248 66.3 370.163 69.3499 373.891 74.4621L379.547 70.3379ZM348.419 62.8V141.2H355.419V62.8H348.419ZM454.422 314H450.922V317.5H454.422V314ZM454.422 20V16.5H450.922V20H454.422ZM553.222 20H556.722V16.5H553.222V20ZM553.222 64.4V67.9H556.722V64.4H553.222ZM497.622 64.4V60.9H494.122V64.4H497.622ZM497.622 143.6H494.122V147.1H497.622V143.6ZM537.622 143.6H541.122V140.1H537.622V143.6ZM537.622 186.8V190.3H541.122V186.8H537.622ZM497.622 186.8V183.3H494.122V186.8H497.622ZM497.622 269.6H494.122V273.1H497.622V269.6ZM553.222 269.6H556.722V266.1H553.222V269.6ZM553.222 314V317.5H556.722V314H553.222ZM457.922 314V20H450.922V314H457.922ZM454.422 23.5H553.222V16.5H454.422V23.5ZM549.722 20V64.4H556.722V20H549.722ZM553.222 60.9H497.622V67.9H553.222V60.9ZM494.122 64.4V143.6H501.122V64.4H494.122ZM497.622 147.1H537.622V140.1H497.622V147.1ZM534.122 143.6V186.8H541.122V143.6H534.122ZM537.622 183.3H497.622V190.3H537.622V183.3ZM494.122 186.8V269.6H501.122V186.8H494.122ZM497.622 273.1H553.222V266.1H497.622V273.1ZM549.722 269.6V314H556.722V269.6H549.722ZM553.222 310.5H454.422V317.5H553.222V310.5ZM585.281 314H581.781V317.5H585.281V314ZM585.281 20V16.5H581.781V20H585.281ZM685.681 41.6L683.017 43.8696L683.022 43.8757L683.027 43.8818L685.681 41.6ZM695.281 147.8L692.13 146.276L692.127 146.284L692.123 146.291L695.281 147.8ZM674.281 174.2L672.318 171.302L670.372 172.62L670.856 174.92L674.281 174.2ZM703.681 314V317.5H707.994L707.106 313.28L703.681 314ZM660.481 314L657.047 314.676L657.603 317.5H660.481V314ZM636.081 190L639.515 189.324L638.96 186.5H636.081V190ZM628.481 190V186.5H624.981V190H628.481ZM628.481 314V317.5H631.981V314H628.481ZM628.481 150H624.981V153.5H628.481V150ZM647.481 144.8L649.568 147.61L649.594 147.591L649.619 147.571L647.481 144.8ZM657.481 129.6L654.135 128.575L657.481 129.6ZM653.481 74.2L650.475 75.993L650.494 76.0242L650.513 76.055L653.481 74.2ZM628.481 62.8V59.3H624.981V62.8H628.481ZM588.781 314V20H581.781V314H588.781ZM585.281 23.5H628.481V16.5H585.281V23.5ZM628.481 23.5C653.718 23.5 671.635 30.5083 683.017 43.8696L688.346 39.3303C675.194 23.8917 654.977 16.5 628.481 16.5V23.5ZM683.027 43.8818C694.538 57.2691 700.581 77.3792 700.581 104.8H707.581C707.581 76.4875 701.358 54.4641 688.335 39.3181L683.027 43.8818ZM700.581 104.8C700.581 120.923 697.721 134.714 692.13 146.276L698.432 149.324C704.575 136.62 707.581 121.744 707.581 104.8H700.581ZM692.123 146.291C686.572 157.911 679.927 166.148 672.318 171.302L676.244 177.098C685.169 171.052 692.524 161.689 698.439 149.309L692.123 146.291ZM670.856 174.92L700.256 314.72L707.106 313.28L677.706 173.48L670.856 174.92ZM703.681 310.5H660.481V317.5H703.681V310.5ZM663.915 313.324L639.515 189.324L632.647 190.676L657.047 314.676L663.915 313.324ZM636.081 186.5H628.481V193.5H636.081V186.5ZM624.981 190V314H631.981V190H624.981ZM628.481 310.5H585.281V317.5H628.481V310.5ZM628.481 153.5C636.956 153.5 644.108 151.666 649.568 147.61L645.394 141.99C641.521 144.868 636.007 146.5 628.481 146.5V153.5ZM649.619 147.571C654.948 143.461 658.651 137.737 660.828 130.624L654.135 128.575C652.312 134.529 649.348 138.939 645.343 142.029L649.619 147.571ZM660.828 130.624C662.955 123.675 663.981 115.58 663.981 106.4H656.981C656.981 115.086 656.007 122.458 654.135 128.575L660.828 130.624ZM663.981 106.4C663.981 92.0965 661.612 80.6058 656.449 72.345L650.513 76.055C654.684 82.7276 656.981 92.7035 656.981 106.4H663.981ZM656.487 72.407C651.098 63.3722 641.335 59.3 628.481 59.3V66.3C639.894 66.3 646.798 69.8278 650.475 75.993L656.487 72.407ZM624.981 62.8V150H631.981V62.8H624.981Z" fill="white" mask="url(#path-1-outside-1_3762_67)"/>
</g>
<defs>
<filter id="filter0_d_3762_67" x="0" y="0.800049" width="724.081" height="340.4" filterUnits="userSpaceOnUse" color-interpolation-filters="sRGB">
<feFlood flood-opacity="0" result="BackgroundImageFix"/>
<feColorMatrix in="SourceAlpha" type="matrix" values="0 0 0 0 0 0 0 0 0 0 0 0 0 0 0 0 0 0 127 0" result="hardAlpha"/>
<feOffset dy="4"/>
<feGaussianBlur stdDeviation="10"/>
<feComposite in2="hardAlpha" operator="out"/>
<feColorMatrix type="matrix" values="0 0 0 0 1 0 0 0 0 1 0 0 0 0 1 0 0 0 1 0"/>
<feBlend mode="normal" in2="BackgroundImageFix" result="effect1_dropShadow_3762_67"/>
<feBlend mode="normal" in="SourceGraphic" in2="effect1_dropShadow_3762_67" result="shape"/>
</filter>
</defs>
</svg>
