<svg width="303" height="98" viewBox="0 0 303 98" fill="none" xmlns="http://www.w3.org/2000/svg">
<g filter="url(#filter0_d_3762_65)">
<path d="M33.64 21.04C34.4933 20.96 35.4533 20.9867 36.52 21.12C39.16 21.4933 41.4667 22.4267 43.44 23.92C46.6133 26.2667 48.4533 29.36 48.96 33.2C48.9867 33.4133 49.0133 33.6267 49.04 33.84C49.0667 34.0533 49.08 38.3867 49.08 46.84C49.08 55.2667 49.0267 59.6 48.92 59.84C48.9467 59.7867 48.92 59.84 48.84 60C48.8133 60.1333 48.7067 60.28 48.52 60.44C47.88 61.08 47.1467 61.1867 46.32 60.76C45.9733 60.6 45.72 60.3467 45.56 60C45.4267 59.7333 45.36 59.04 45.36 57.92C45.3333 56.8 45.32 53.1467 45.32 46.96C45.32 38.6133 45.3067 34.3333 45.28 34.12C45.0933 31.7733 44.1467 29.7333 42.44 28C40.7067 26.2667 38.64 25.2267 36.24 24.88C35.1733 24.72 34.1067 24.72 33.04 24.88C30.64 25.2267 28.5733 26.2667 26.84 28C25.1333 29.7333 24.1867 31.7733 24 34.12C23.9733 34.3333 23.96 38.6133 23.96 46.96C23.96 55.3067 23.9067 59.6 23.8 59.84C23.8267 59.76 23.8 59.8133 23.72 60C23.56 60.3467 23.3067 60.6 22.96 60.76C22.3733 61.1067 21.7867 61.1067 21.2 60.76C20.8533 60.6 20.6 60.3467 20.44 60C20.3067 59.7333 20.24 59.0267 20.24 57.88C20.2133 56.76 20.2 53.08 20.2 46.84C20.2 38.3867 20.2133 34.0533 20.24 33.84L20.4 32.76C20.96 29.2667 22.68 26.3867 25.56 24.12C27.0267 22.9467 28.68 22.0933 30.52 21.56C31.48 21.2933 32.52 21.12 33.64 21.04ZM80.2003 21.04L83.8803 21.08C87.8003 21.48 91.4003 22.56 94.6803 24.32C97.6403 25.8933 100.214 27.92 102.4 30.4C104.987 33.2533 106.894 36.5867 108.12 40.4C109.854 45.68 109.974 51 108.48 56.36C108.374 56.76 108.254 57.16 108.12 57.56C107.214 60.44 105.854 63.1067 104.04 65.56C100.947 69.8267 96.9203 72.9733 91.9603 75C89.3203 76.0133 86.6136 76.6533 83.8403 76.92C82.5336 77.0267 81.067 77.0267 79.4403 76.92C79.3603 76.92 79.2803 76.92 79.2003 76.92C75.2803 76.52 71.667 75.44 68.3603 73.68C65.4003 72.1067 62.827 70.08 60.6403 67.6C58.0536 64.72 56.147 61.3733 54.9203 57.56C53.187 52.3067 53.067 46.9867 54.5603 41.6C54.667 41.2 54.787 40.8 54.9203 40.4C56.147 36.5867 58.0536 33.2533 60.6403 30.4C62.0003 28.88 63.3603 27.6267 64.7203 26.64C67.9203 24.1867 71.507 22.5333 75.4803 21.68C76.9736 21.3333 78.547 21.12 80.2003 21.04ZM83.4803 25.4C82.0936 25.32 80.9736 25.3067 80.1203 25.36C76.0403 25.6533 72.3203 26.8533 68.9603 28.96C67.8136 29.6533 66.9736 30.2667 66.4403 30.8L73.9603 38.4L81.5203 45.92L85.3603 42.08L92.9203 34.52L96.6003 30.8L96.4403 30.64C96.4136 30.6133 95.8136 30.16 94.6403 29.28C91.227 27.04 87.507 25.7467 83.4803 25.4ZM70.9203 41.44L63.3603 33.88C63.2536 33.8267 62.747 34.4933 61.8403 35.88C61.7603 36.04 61.6803 36.1733 61.6003 36.28C59.707 39.2667 58.5336 42.5333 58.0803 46.08C57.9736 46.8 57.9203 47.7733 57.9203 49C57.9203 50.2267 57.9736 51.1867 58.0803 51.88C58.5336 55.5867 59.7736 58.9867 61.8003 62.08C62.3336 62.8533 62.8003 63.48 63.2003 63.96L63.3603 64.12L64.7603 62.72L72.2803 55.16L78.4403 49L70.9203 41.44ZM100.04 34.28C99.827 34.0133 99.707 33.88 99.6803 33.88L92.1203 41.44L84.6003 49L90.7603 55.2L98.3203 62.76L99.6803 64.12L99.8403 63.96C100.24 63.48 100.707 62.8533 101.24 62.08C103.267 58.9867 104.507 55.5867 104.96 51.88C105.067 51.1867 105.12 50.2267 105.12 49C105.12 47.5333 105.014 46.2 104.8 45C104.134 40.9733 102.547 37.4 100.04 34.28ZM89.0803 59.64C84.067 54.6267 81.547 52.1067 81.5203 52.08L68.2803 65.32L66.4403 67.2L66.6003 67.36C66.787 67.5467 67.4003 68 68.4403 68.72C71.507 70.7733 74.8936 72.0267 78.6003 72.48C83.9336 73.1733 88.9336 72.12 93.6003 69.32C94.1336 69.0267 94.6536 68.6933 95.1603 68.32C96.0136 67.76 96.4936 67.3867 96.6003 67.2L89.0803 59.64ZM140.63 21.04L144.31 21.08C148.23 21.48 151.83 22.56 155.11 24.32C158.07 25.8933 160.643 27.92 162.83 30.4C165.417 33.2533 167.323 36.5867 168.55 40.4C170.283 45.68 170.403 51 168.91 56.36C168.803 56.76 168.683 57.16 168.55 57.56C167.643 60.44 166.283 63.1067 164.47 65.56C161.377 69.8267 157.35 72.9733 152.39 75C149.75 76.0133 147.043 76.6533 144.27 76.92C142.963 77.0267 141.497 77.0267 139.87 76.92C139.79 76.92 139.71 76.92 139.63 76.92C135.71 76.52 132.097 75.44 128.79 73.68C125.83 72.1067 123.257 70.08 121.07 67.6C118.483 64.72 116.577 61.3733 115.35 57.56C113.617 52.3067 113.497 46.9867 114.99 41.6C115.097 41.2 115.217 40.8 115.35 40.4C116.577 36.5867 118.483 33.2533 121.07 30.4C122.43 28.88 123.79 27.6267 125.15 26.64C128.35 24.1867 131.937 22.5333 135.91 21.68C137.403 21.3333 138.977 21.12 140.63 21.04ZM143.91 25.4C142.523 25.32 141.403 25.3067 140.55 25.36C137.243 25.6 134.19 26.4133 131.39 27.8C126.857 30.0667 123.417 33.4267 121.07 37.88C120.483 38.9733 119.99 40.1067 119.59 41.28C118.977 43.1733 118.577 45.1067 118.39 47.08C118.283 47.9333 118.27 49.08 118.35 50.52C118.377 50.68 118.39 50.8 118.39 50.88C118.577 52.88 118.977 54.8267 119.59 56.72C121.243 61.52 124.15 65.4 128.31 68.36C128.817 68.7067 129.337 69.04 129.87 69.36C132.697 71.04 135.75 72.08 139.03 72.48C140.977 72.7467 142.923 72.7467 144.87 72.48C149.057 71.9467 152.817 70.44 156.15 67.96C160.443 64.7067 163.297 60.48 164.71 55.28C165.03 54.16 165.257 53.0267 165.39 51.88C165.497 51.1867 165.55 50.2267 165.55 49C165.55 47.7733 165.497 46.8 165.39 46.08C164.91 41.92 163.403 38.16 160.87 34.8C157.43 30.24 152.963 27.3067 147.47 26C146.323 25.7067 145.137 25.5067 143.91 25.4ZM141.51 45.2C141.963 45.1467 142.417 45.1733 142.87 45.28C142.923 45.3067 143.19 45.4133 143.67 45.6C144.417 45.9467 144.977 46.5067 145.35 47.28C145.617 47.8133 145.75 48.3867 145.75 49C145.75 49.6133 145.617 50.1733 145.35 50.68C145.003 51.4533 144.443 52.0267 143.67 52.4C143.137 52.6667 142.563 52.8 141.95 52.8C141.337 52.8 140.777 52.6667 140.27 52.4C139.47 52.0533 138.897 51.48 138.55 50.68C138.283 50.1733 138.15 49.6133 138.15 49C138.15 48.3867 138.283 47.8133 138.55 47.28C138.79 46.8267 139.11 46.4133 139.51 46.04C140.123 45.56 140.79 45.28 141.51 45.2ZM174.42 22.08V21H197.74H221.02V22.08V23.16H220.62C219.153 23.16 217.913 23.36 216.9 23.76C215.726 24.24 214.953 25.0533 214.58 26.2L214.5 26.52V49V71.44L214.58 71.8C214.953 72.9467 215.726 73.76 216.9 74.24C217.913 74.64 219.153 74.84 220.62 74.84H221.02V75.92V77H210.9H200.78V75.92V74.84H201.18C202.646 74.84 203.886 74.64 204.9 74.24C206.073 73.76 206.846 72.9467 207.22 71.8L207.34 71.44V47.32V23.16H197.74H188.1V47.32L188.14 71.44L188.22 71.8C188.593 72.9467 189.366 73.76 190.54 74.24C191.553 74.64 192.793 74.84 194.26 74.84H194.66V75.92V77H184.54H174.42V75.92V74.84H174.82C176.286 74.84 177.526 74.64 178.54 74.24C179.713 73.76 180.486 72.9467 180.86 71.8L180.98 71.44V49V26.52L180.86 26.2C180.486 25.0533 179.713 24.24 178.54 23.76C177.526 23.36 176.286 23.16 174.82 23.16H174.42V22.08ZM252.193 21.04L255.873 21.08C259.793 21.48 263.393 22.56 266.673 24.32C269.633 25.8933 272.206 27.92 274.393 30.4C276.979 33.2533 278.886 36.5867 280.113 40.4C281.846 45.68 281.966 51 280.473 56.36C280.366 56.76 280.246 57.16 280.113 57.56C279.206 60.44 277.846 63.1067 276.033 65.56C272.939 69.8267 268.913 72.9733 263.953 75C261.313 76.0133 258.606 76.6533 255.833 76.92C254.526 77.0267 253.059 77.0267 251.433 76.92C251.353 76.92 251.273 76.92 251.193 76.92C247.273 76.52 243.659 75.44 240.353 73.68C237.393 72.1067 234.819 70.08 232.633 67.6C230.046 64.72 228.139 61.3733 226.913 57.56C225.179 52.3067 225.059 46.9867 226.553 41.6C226.659 41.2 226.779 40.8 226.913 40.4C228.139 36.5867 230.046 33.2533 232.633 30.4C233.993 28.88 235.353 27.6267 236.713 26.64C239.913 24.1867 243.499 22.5333 247.473 21.68C248.966 21.3333 250.539 21.12 252.193 21.04ZM255.473 25.4C254.086 25.32 252.966 25.3067 252.113 25.36C248.033 25.6533 244.313 26.8533 240.953 28.96C239.806 29.6533 238.966 30.2667 238.433 30.8L245.953 38.4L253.513 45.92L257.353 42.08L264.913 34.52L268.593 30.8L268.433 30.64C268.406 30.6133 267.806 30.16 266.633 29.28C263.219 27.04 259.499 25.7467 255.473 25.4ZM242.913 41.44L235.353 33.88C235.246 33.8267 234.739 34.4933 233.833 35.88C233.753 36.04 233.673 36.1733 233.592 36.28C231.699 39.2667 230.526 42.5333 230.073 46.08C229.966 46.8 229.913 47.7733 229.913 49C229.913 50.2267 229.966 51.1867 230.073 51.88C230.526 55.5867 231.766 58.9867 233.793 62.08C234.326 62.8533 234.793 63.48 235.193 63.96L235.353 64.12L236.753 62.72L244.273 55.16L250.433 49L242.913 41.44ZM272.033 34.28C271.819 34.0133 271.699 33.88 271.673 33.88L264.113 41.44L256.593 49L262.753 55.2L270.313 62.76L271.673 64.12L271.833 63.96C272.233 63.48 272.699 62.8533 273.233 62.08C275.259 58.9867 276.499 55.5867 276.953 51.88C277.059 51.1867 277.113 50.2267 277.113 49C277.113 47.5333 277.006 46.2 276.793 45C276.126 40.9733 274.539 37.4 272.033 34.28ZM261.073 59.64C256.059 54.6267 253.539 52.1067 253.513 52.08L240.273 65.32L238.433 67.2L238.593 67.36C238.779 67.5467 239.393 68 240.433 68.72C243.499 70.7733 246.886 72.0267 250.593 72.48C255.926 73.1733 260.926 72.12 265.593 69.32C266.126 69.0267 266.646 68.6933 267.153 68.32C268.006 67.76 268.486 67.3867 268.593 67.2L261.073 59.64Z" fill="white"/>
</g>
<defs>
<filter id="filter0_d_3762_65" x="0.199951" y="0.919922" width="302.512" height="96.1602" filterUnits="userSpaceOnUse" color-interpolation-filters="sRGB">
<feFlood flood-opacity="0" result="BackgroundImageFix"/>
<feColorMatrix in="SourceAlpha" type="matrix" values="0 0 0 0 0 0 0 0 0 0 0 0 0 0 0 0 0 0 127 0" result="hardAlpha"/>
<feOffset/>
<feGaussianBlur stdDeviation="10"/>
<feComposite in2="hardAlpha" operator="out"/>
<feColorMatrix type="matrix" values="0 0 0 0 1 0 0 0 0 1 0 0 0 0 1 0 0 0 1 0"/>
<feBlend mode="normal" in2="BackgroundImageFix" result="effect1_dropShadow_3762_65"/>
<feBlend mode="normal" in="SourceGraphic" in2="effect1_dropShadow_3762_65" result="shape"/>
</filter>
</defs>
</svg>
