<svg width="910" height="620" viewBox="0 0 910 620" fill="none" xmlns="http://www.w3.org/2000/svg">
<g filter="url(#filter0_d_3762_68)">
<g filter="url(#filter1_d_3762_68)">
<path d="M105.989 517.497C104.095 517.384 102.432 516.587 101 515.107L99.2765 512.153C98.8245 511.238 98.4691 510.298 98.2103 509.332C97.9515 508.366 97.596 507.426 97.144 506.512C96.7438 505.791 96.3436 505.07 95.9433 504.349C95.788 503.77 95.4396 503.242 94.8979 502.766C94.3045 502.097 93.711 501.428 93.1176 500.758C92.5242 500.089 91.9308 499.42 91.3373 498.751C87.97 494.684 86.1033 490.422 85.7372 485.964L85.349 484.516C84.921 482.146 84.5189 479.872 84.1427 477.695C83.7147 475.325 83.2867 472.955 82.8587 470.585C82.6517 469.813 82.4446 469.04 82.2376 468.267C82.2237 467.443 82.1132 466.644 81.9062 465.871C81.7509 465.292 81.5956 464.712 81.4403 464.133C81.4782 463.501 81.4454 462.992 81.3418 462.606C81.083 461.64 80.7983 460.578 80.4877 459.419C80.3703 458.208 80.1822 457.119 79.9234 456.153L79.4575 454.415C78.4361 451.375 77.5372 448.407 76.7607 445.509C75.9325 442.418 75.1043 439.327 74.2761 436.236C74.0173 435.27 73.7584 434.304 73.4996 433.339C73.189 432.179 72.8078 431.143 72.3557 430.229C72.059 429.894 71.8072 429.34 71.6001 428.568C71.4309 427.164 71.0945 425.908 70.5907 424.801C70.2801 423.641 69.9695 422.482 69.659 421.323C69.4519 420.55 69.2707 419.874 69.1154 419.295C68.9084 418.522 68.8238 417.82 68.8617 417.189C68.5372 415.205 68.0455 413.37 67.3864 411.683C66.5721 409.416 65.7577 407.15 64.9434 404.883C64.129 402.617 63.244 400.473 62.2882 398.452C61.0218 395.271 59.7555 392.09 58.4891 388.91C57.4159 385.677 56.536 382.393 55.8492 379.057L53.5198 370.364C53.261 369.398 53.0022 368.432 52.7433 367.466C52.6777 366.448 52.5414 365.553 52.3343 364.78L51.7131 362.462C51.1058 360.969 50.5951 359.449 50.181 357.903C49.9083 356.113 49.6356 354.323 49.363 352.532L48.5089 349.345C47.7842 346.64 47.0595 343.935 46.3348 341.231C45.8033 338.474 45.2011 335.841 44.5281 333.329C44.114 331.784 43.7258 330.335 43.3634 328.983C42.9493 327.437 42.3679 326.04 41.6192 324.791C40.8048 322.525 40.3251 319.962 40.18 317.102C40.3454 315.401 40.6333 313.771 41.0437 312.211C41.4541 310.652 41.987 309.163 42.6423 307.746C45.0326 302.757 49.029 299.512 54.6313 298.011C56.4217 297.738 58.1674 297.685 59.8681 297.85C61.7103 297.77 63.4629 298.129 65.1257 298.926C65.5639 299.016 66.2728 299.343 67.2526 299.909C68.4256 300.423 69.6952 300.911 71.0613 301.373C72.5689 301.59 74.0506 301.711 75.5065 301.735C77.1037 301.514 78.7268 301.39 80.3758 301.362C82.218 301.282 83.9636 301.229 85.6127 301.201C86.244 301.239 87.0426 301.128 88.0085 300.87C88.9744 300.611 89.6695 300.114 90.0938 299.379C90.3767 298.889 90.6854 298.496 91.02 298.199C91.496 297.658 91.9979 297.212 92.5257 296.864C94.4816 294.891 96.5807 294.225 98.8232 294.866C99.4545 294.904 100.015 295.064 100.505 295.347C101.136 295.385 101.671 295.449 102.109 295.538C104.493 295.935 106.446 296.654 107.967 297.696C109.244 298.596 110.706 299.032 112.355 299.005C113.373 298.939 114.224 299.022 114.907 299.253C115.783 299.432 116.711 299.805 117.691 300.37C118.619 300.743 119.521 301.019 120.397 301.198C121.467 301.326 122.439 301.479 123.316 301.658C124.913 301.437 126.402 301.97 127.782 303.257C128.968 304.595 130.509 305.321 132.403 305.435C133.421 305.369 134.542 305.69 135.767 306.397C136.308 306.873 137.455 307.291 139.208 307.649C140.225 307.584 141.128 307.86 141.914 308.477C142.842 308.849 143.725 309.441 144.564 310.252L145.376 310.966C147.505 313.501 150.451 315.61 154.215 317.294C155.633 317.949 157.006 318.823 158.335 319.917C159.611 320.817 160.65 321.988 161.45 323.43C162.044 324.099 162.637 324.769 163.23 325.438C164.017 326.055 164.733 326.795 165.378 327.658C165.92 328.134 166.365 328.636 166.713 329.163C167.062 329.691 167.436 330.316 167.836 331.037C168.237 331.758 168.611 332.382 168.959 332.91C169.308 333.437 169.682 334.062 170.083 334.783C170.379 335.117 170.605 335.575 170.761 336.154C170.864 336.54 171.064 336.901 171.361 337.236C172.51 339.205 173.492 341.323 174.306 343.59C175.313 345.805 176.224 348.045 177.039 350.312C177.594 351.612 177.957 352.964 178.126 354.368C178.488 355.721 178.876 357.17 179.29 358.715C179.549 359.681 179.737 360.769 179.855 361.98C180.114 362.946 180.276 363.938 180.341 364.956C180.497 365.535 180.485 366.263 180.305 367.139C179.964 372.821 178.405 378.208 175.629 383.301C175.063 384.28 174.523 385.357 174.009 386.53C173.444 387.51 172.878 388.489 172.312 389.469C171.464 390.939 170.589 392.312 169.689 393.588C168.789 394.865 167.889 396.141 166.988 397.418L166.352 398.52C165.013 399.707 163.675 400.894 162.337 402.081C160.998 403.268 159.511 404.287 157.876 405.139C157.297 405.295 156.936 405.495 156.795 405.74C155.65 406.875 154.208 407.675 152.469 408.141C150.923 408.555 149.352 408.873 147.755 409.094C146.93 409.108 146.132 409.218 145.359 409.425C144.728 409.387 144.026 409.472 143.253 409.679C140.741 410.352 138.353 411.095 136.086 411.91C133.82 412.724 131.482 413.661 129.075 414.72L116.288 420.32C115.709 420.476 115.058 420.753 114.337 421.154C113.758 421.309 113.108 421.587 112.387 421.987C111.086 422.543 109.812 423.195 108.563 423.943C107.455 424.447 106.2 424.784 104.796 424.953C104.216 425.108 104.03 425.572 104.237 426.345L105.557 431.271C105.74 433.5 106.309 435.625 107.265 437.646C108.117 439.281 108.286 440.685 107.773 441.858C107.555 443.366 107.847 444.841 108.647 446.283C109.5 447.918 110.281 449.675 110.992 451.556C111.844 453.191 112.697 454.826 113.549 456.461C114.001 457.375 114.356 458.315 114.615 459.281C115.067 460.195 115.422 461.135 115.681 462.101C117.155 466.055 118.821 469.956 120.681 473.806C121.378 474.862 121.882 475.969 122.192 477.128C122.644 478.042 123.122 479.053 123.626 480.16C123.988 481.513 124.176 482.601 124.19 483.425C124.152 484.057 124.14 484.785 124.154 485.609C124.31 486.189 124.272 486.82 124.041 487.503L123.715 489.765C123.432 490.254 123.201 490.938 123.022 491.814C122.663 493.566 121.647 495.184 119.974 496.668C117.915 498.255 115.893 499.211 113.91 499.535C112.944 499.794 112.293 500.072 111.959 500.369C110.993 500.627 110.517 501.169 110.531 501.994C110.441 502.432 110.377 502.966 110.339 503.598C110.301 504.229 110.238 504.764 110.148 505.202C110.355 505.975 110.466 506.773 110.479 507.598C110.738 508.564 110.9 509.556 110.966 510.573C111.187 512.17 110.802 513.826 109.813 515.541C108.964 517.011 107.689 517.663 105.989 517.497ZM101.999 397.129C103.158 396.818 104.221 396.533 105.186 396.274C106.294 395.771 107.401 395.267 108.508 394.763C109.757 394.014 111.032 393.362 112.332 392.807C113.633 392.251 114.933 391.696 116.234 391.14C118.835 390.029 121.288 388.751 123.592 387.305C124.313 386.905 125.06 386.601 125.833 386.394C126.554 385.994 127.301 385.69 128.073 385.483C129.426 385.121 130.366 384.765 130.893 384.417C132.142 383.668 133.346 383.139 134.505 382.828C135.858 382.466 137.306 382.077 138.852 381.663L143.199 380.499C145.465 379.684 147.041 378.227 147.928 376.126L149.547 372.896C150.061 371.723 150.479 370.576 150.799 369.455C151.261 368.089 151.408 366.704 151.239 365.3C150.849 362.298 150.053 359.716 148.853 357.553C147.652 355.391 146.38 353.35 145.038 351.432C143.644 349.321 142.109 347.455 140.432 345.833C138.6 343.633 136.344 342.167 133.663 341.435C132.839 341.449 132.104 341.025 131.459 340.163C130.762 339.107 129.853 338.419 128.732 338.098C128.487 337.957 128.242 337.815 127.997 337.674C127.752 337.533 127.41 337.417 126.972 337.327C125.992 336.762 124.826 336.66 123.474 337.022C122.701 337.229 121.806 337.366 120.788 337.431C119.912 337.252 119.062 337.169 118.237 337.183C117.361 337.004 116.485 336.825 115.608 336.645C114.925 336.414 114.242 336.183 113.559 335.952C111.317 335.311 109.036 335.3 106.718 335.922C104.979 336.387 102.97 336.615 100.69 336.605C98.2023 335.822 95.7736 335.645 93.4036 336.073C93.0172 336.176 92.3859 336.138 91.5096 335.959L88.9585 335.711C87.6441 335.442 86.6005 335.411 85.8278 335.618C83.1093 335.518 81.507 336.879 81.0208 339.701C80.9829 340.333 80.9709 341.061 80.9848 341.885C80.9469 342.516 80.9349 343.244 80.9487 344.069C81.1697 345.666 81.3906 347.263 81.6115 348.861C81.8324 350.458 82.0534 352.055 82.2743 353.652C82.3917 354.863 82.5091 356.074 82.6265 357.285C82.7439 358.496 82.9579 359.681 83.2685 360.84C83.7482 363.403 84.3245 365.94 84.9975 368.452C85.8636 370.911 86.8522 373.442 87.9632 376.043L88.7397 378.941C89.102 380.293 89.4644 381.645 89.8267 382.997C90.3823 384.298 90.9378 385.599 91.4933 386.899C91.8418 387.427 92.1454 388.174 92.4043 389.14L95.37 396.731C95.6806 397.89 96.4155 398.314 97.5746 398.003C98.3991 397.99 99.1011 397.905 99.6807 397.75C100.453 397.543 101.226 397.336 101.999 397.129ZM356.809 589.121C355.65 589.431 354.555 589.207 353.523 588.448C352.543 587.883 351.757 587.265 351.163 586.596C350.17 585.206 349.492 583.835 349.129 582.482C348.522 580.989 347.889 579.398 347.23 577.711C346.816 576.166 346.279 574.55 345.62 572.863C344.792 569.772 343.7 566.855 342.344 564.113C342.033 562.953 341.626 561.82 341.122 560.713C340.619 559.606 340.211 558.472 339.901 557.313C339.99 556.875 339.861 556.392 339.513 555.864C339.409 555.478 339.28 554.995 339.124 554.415C338.672 553.501 338.317 552.561 338.058 551.595C337.851 550.823 337.644 550.05 337.437 549.277C337.037 548.556 336.681 547.616 336.371 546.457C335.273 544.68 334.659 542.774 334.528 540.739C334.138 537.738 333.394 535.349 332.297 533.572C331.742 532.272 331.308 531.042 330.998 529.883C330.687 528.724 330.377 527.565 330.066 526.405C329.562 525.298 329.155 524.165 328.845 523.006C328.534 521.847 328.223 520.688 327.913 519.528L327.292 517.21C327.188 516.824 326.962 516.367 326.614 515.839C326.51 515.453 326.381 514.97 326.225 514.39C325.76 512.651 325.294 510.913 324.828 509.174C324.362 507.435 323.703 505.748 322.851 504.113C322.295 502.813 321.836 501.486 321.474 500.134C321.356 498.923 321.142 497.738 320.832 496.579L318.658 488.465C318.399 487.499 318.114 486.437 317.804 485.278C317.545 484.312 317.383 483.32 317.317 482.302C317.251 481.285 316.993 480.319 316.541 479.405C316.333 478.632 316.126 477.859 315.919 477.086C315.661 476.12 315.331 475.277 314.931 474.556C314.724 473.783 314.613 472.985 314.599 472.16C313.074 468.014 311.434 464.209 309.677 460.745L308.42 459.529C307.388 458.77 306.331 457.915 305.247 456.963C304.357 455.959 303.3 455.104 302.075 454.396C298.297 451.889 294.758 449.11 291.456 446.061C290.721 445.637 290.083 445.186 289.541 444.71C288.948 444.041 288.354 443.372 287.761 442.703C287.167 442.034 286.6 441.461 286.058 440.985C285.465 440.316 284.871 439.646 284.278 438.977C283.091 437.639 281.93 436.397 280.795 435.252C279.66 434.107 278.621 432.935 277.679 431.738C276.441 430.207 275.299 428.649 274.253 427.066C273.401 425.431 272.285 423.97 270.905 422.683C270.66 422.542 270.538 422.471 270.538 422.471C270.486 422.278 270.46 422.181 270.46 422.181C268.214 418.435 265.781 415.153 263.163 412.334C262.711 411.42 262.188 410.629 261.595 409.959C261.143 409.045 260.691 408.131 260.239 407.217C259.787 406.303 259.238 405.414 258.593 404.552C258.089 403.445 257.514 402.46 256.869 401.597C255.772 399.821 254.772 398.018 253.868 396.19C252.963 394.362 252.059 392.533 251.155 390.705C250.859 390.371 250.581 389.72 250.322 388.754C249.805 386.822 249.216 385.013 248.557 383.326C247.898 381.639 247.117 379.882 246.213 378.053C244.857 375.311 243.764 372.394 242.936 369.303C242.677 368.337 242.419 367.371 242.16 366.405C241.901 365.439 241.571 364.596 241.171 363.875C240.823 363.347 240.571 362.794 240.415 362.214C240.208 361.441 240.001 360.669 239.794 359.896L237.31 350.623C237.103 349.85 236.921 349.174 236.766 348.594C236.559 347.822 236.449 347.023 236.435 346.199C236.331 345.812 236.254 345.522 236.202 345.329C236.343 345.084 236.388 344.865 236.336 344.672C235.574 342.599 235.101 340.448 234.918 338.219C234.735 335.991 234.455 333.788 234.079 331.611C233.768 330.452 233.632 329.557 233.67 328.926C233.539 326.89 233.214 324.907 232.697 322.975C232.372 320.991 231.951 319.033 231.433 317.102L231.201 316.232C231.121 314.39 230.752 312.626 230.093 310.939C229.434 309.252 228.897 307.636 228.483 306.09C227.876 304.596 227.268 303.103 226.661 301.609C226.054 300.115 225.64 298.57 225.419 296.972C224.811 295.479 224.275 293.863 223.809 292.124C223.343 290.385 222.974 288.621 222.701 286.83C222.339 285.478 221.976 284.126 221.614 282.773C221.393 281.176 221.198 279.675 221.029 278.271C220.615 276.726 220.227 275.277 219.864 273.925C219.643 272.327 219.422 270.73 219.201 269.133C218.67 266.377 218.525 263.517 218.766 260.553C218.776 258.273 219.585 255.882 221.192 253.381C222.182 251.666 223.347 250.216 224.685 249.029C226.217 247.79 227.897 246.719 229.725 245.815L232.043 245.194C233.975 244.676 235.772 244.816 237.435 245.612C238.363 245.985 239.195 246.383 239.93 246.807C240.858 247.18 241.76 247.456 242.636 247.635C243.371 248.059 243.887 248.439 244.183 248.773C244.725 249.249 245.267 249.726 245.808 250.202C246.298 250.484 246.691 250.793 246.988 251.128C249.876 252.632 251.199 254.865 250.958 257.829C250.896 259.916 251.098 261.829 251.564 263.567C251.578 264.392 251.688 265.19 251.895 265.963C252.102 266.736 252.309 267.509 252.516 268.281C252.93 269.827 253.248 271.398 253.469 272.996C253.638 274.4 253.736 275.926 253.764 277.575C253.726 278.206 253.863 279.102 254.173 280.261C254.536 281.613 254.801 282.991 254.97 284.395C255.333 285.748 255.624 287.222 255.845 288.82C255.925 290.662 256.461 292.278 257.455 293.668C258.049 294.337 258.037 295.065 257.419 295.852C257.419 295.852 257.348 295.974 257.207 296.219C257.259 296.413 257.31 296.606 257.362 296.799C257.531 298.203 257.797 299.581 258.16 300.933C258.47 302.093 258.807 303.348 259.169 304.701C259.635 306.439 260.004 308.204 260.277 309.994C260.691 311.54 261.008 313.111 261.229 314.708C261.436 315.481 261.618 316.157 261.773 316.737C261.928 317.316 262.013 318.018 262.027 318.843C262.7 321.354 263.276 323.892 263.756 326.455C264.184 328.825 264.541 331.317 264.827 333.932C265.076 337.178 265.937 340.778 267.411 344.732L269.662 353.135C270.283 355.453 271.194 357.694 272.395 359.857C273.247 361.492 274.003 363.153 274.662 364.84C275.463 366.282 276.263 367.724 277.063 369.166C278.419 371.908 280.336 374.811 282.813 377.874L285.851 381.098C287.49 383.35 289.296 385.455 291.27 387.411C293.436 389.315 295.577 391.122 297.692 392.833C299.317 394.261 300.987 395.47 302.701 396.46L309.315 400.279C310.823 400.496 312.008 400.282 312.87 399.637L314.164 398.669C315.026 398.024 315.888 397.378 316.751 396.733C317.561 395.895 318.301 395.179 318.971 394.586L320.476 393.25C322.046 391.38 323.01 389.569 323.368 387.817C323.586 386.309 323.899 384.776 324.31 383.216C324.617 381.27 324.924 379.325 325.23 377.379C325.679 375.188 326.275 373.165 327.02 371.309C327.483 369.943 327.874 368.699 328.195 367.578C328.657 366.212 329.022 364.871 329.291 363.557C329.612 362.436 329.907 361.218 330.176 359.904C330.445 358.589 330.591 357.204 330.616 355.748C330.729 353.854 330.843 351.96 330.957 350.066C331.018 347.979 330.984 345.918 330.853 343.883C330.707 341.023 330.298 338.337 329.625 335.826L327.917 329.451C326.999 326.798 326.056 324.048 325.086 321.202C324.258 318.111 323.255 314.756 322.079 311.138C321.768 309.979 321.283 308.556 320.624 306.869C319.913 304.989 319.299 303.083 318.781 301.151C318.316 299.412 317.753 297.699 317.094 296.012C316.628 294.274 316.066 292.561 315.407 290.874C314.333 287.642 313.19 284.532 311.975 281.544C310.954 278.505 309.836 275.492 308.621 272.504C308.517 272.118 308.343 271.854 308.098 271.713C307.995 271.326 307.917 271.037 307.865 270.843C307.348 268.911 306.759 267.102 306.1 265.415C305.441 263.728 304.853 261.919 304.335 259.987L301.468 253.923C300.912 252.622 300.286 251.444 299.589 250.388C299.085 249.281 298.459 248.103 297.71 246.854C296.689 243.815 296.511 240.446 297.177 236.748C297.842 233.05 299.539 230.11 302.268 227.93C303.465 226.988 304.688 226.143 305.936 225.394C307.133 224.452 308.408 223.8 309.76 223.438C312.851 222.609 315.711 222.464 318.34 223.002C321.162 223.488 323.708 224.877 325.978 227.167C326.52 227.643 327.191 228.602 327.991 230.044C328.637 230.907 329.115 231.917 329.425 233.076C329.684 234.042 329.943 235.008 330.202 235.974C330.912 237.854 331.578 239.953 332.2 242.272C332.962 244.345 333.725 246.418 334.487 248.491L335.264 251.389C335.574 252.548 335.885 253.707 336.196 254.867C336.699 255.974 337.229 257.178 337.784 258.478C338.185 259.199 338.514 260.043 338.773 261.009C339.032 261.975 339.291 262.941 339.55 263.906C339.705 264.486 339.86 265.066 340.015 265.645C340.171 266.225 340.423 266.778 340.771 267.306C341.171 268.027 341.475 268.774 341.682 269.547C341.889 270.32 342.096 271.092 342.303 271.865C342.666 273.217 343.054 274.666 343.468 276.212C344.023 277.512 344.605 278.909 345.212 280.403C345.716 281.51 346.123 282.644 346.434 283.803C346.744 284.962 347.151 286.095 347.655 287.202C347.966 288.362 348.276 289.521 348.587 290.68C349.091 291.787 349.498 292.92 349.808 294.079C350.119 295.239 350.455 296.494 350.818 297.847C351.322 298.954 351.825 300.061 352.329 301.169C352.936 302.662 353.473 304.278 353.939 306.017C354.353 307.563 354.767 309.108 355.181 310.654C356.047 313.113 356.746 315.721 357.278 318.478C357.951 320.989 358.553 323.623 359.084 326.379C359.447 327.732 359.712 329.11 359.882 330.514C359.999 331.725 360.239 333.006 360.601 334.359C360.653 334.552 360.608 334.771 360.467 335.016C360.518 335.209 360.596 335.499 360.7 335.885C360.676 337.341 360.703 338.99 360.783 340.832C360.811 342.481 360.838 344.13 360.866 345.779C360.776 346.217 360.713 346.752 360.675 347.383C360.83 347.963 360.766 348.498 360.483 348.987C360.266 350.495 360.12 351.88 360.044 353.143C359.968 354.405 359.918 355.765 359.894 357.221C359.715 358.097 359.677 358.728 359.781 359.114C359.846 360.132 359.815 361.176 359.688 362.245C359.508 363.121 359.355 364.094 359.227 365.164C358.817 366.723 358.503 368.257 358.286 369.764C358.017 371.079 357.651 372.419 357.189 373.785C356.817 374.713 356.47 375.738 356.149 376.859C355.777 377.787 355.404 378.715 355.032 379.643L353.78 383.084C353.37 384.644 352.985 386.3 352.626 388.052C352.216 389.611 351.735 391.293 351.183 393.098C350.721 394.464 350.117 396.075 349.372 397.931C348.434 399.839 347.793 402.081 347.448 404.658C347.306 404.903 347.262 405.122 347.313 405.315C347.365 405.509 347.32 405.728 347.179 405.973C346.293 408.074 345.529 410.245 344.887 412.488C344.439 414.679 343.894 416.895 343.252 419.137C342.521 421.818 341.668 424.428 340.692 426.967C339.909 429.454 338.784 431.826 337.318 434.083C336.328 435.797 335.487 437.679 334.794 439.728C334.473 440.85 333.907 441.829 333.096 442.668C332.389 443.893 331.708 445.214 331.053 446.632C330.449 448.243 329.82 449.757 329.164 451.175C328.716 453.366 328.602 455.26 328.823 456.857C328.837 457.682 328.877 458.603 328.943 459.621C329.253 460.78 329.538 461.842 329.797 462.808C330.121 464.792 330.542 466.749 331.06 468.681C331.629 470.806 332.199 472.931 332.768 475.056L335.253 484.329C335.563 485.488 335.777 486.673 335.895 487.884C336.205 489.043 336.542 490.299 336.904 491.651C337.073 493.055 337.365 494.53 337.779 496.076C338.193 497.621 338.607 499.167 339.021 500.712C339.525 501.82 339.81 502.882 339.875 503.9C340.186 505.059 340.593 506.192 341.097 507.299C341.459 508.652 341.699 509.933 341.817 511.144C342.179 512.496 342.638 513.823 343.193 515.123C343.852 516.81 344.267 518.356 344.436 519.76C344.294 520.005 344.25 520.224 344.301 520.417C344.598 520.752 344.772 521.016 344.824 521.209C345.587 523.282 346.182 525.504 346.61 527.874C346.468 528.119 346.398 528.241 346.398 528.241C346.643 528.382 346.765 528.453 346.765 528.453C347.335 530.578 347.904 532.703 348.473 534.828C349.288 537.095 350.005 539.387 350.627 541.705C351.455 544.796 352.186 547.913 352.821 551.056C353.65 554.147 354.504 557.334 355.384 560.619C356.25 563.078 356.826 565.615 357.113 568.23C357.593 570.794 358.169 573.331 358.842 575.842L359.696 579.03C360.2 580.137 360.388 581.226 360.26 582.295C360.184 583.558 360.083 584.724 359.955 585.793C359.879 587.056 358.831 588.165 356.809 589.121ZM642.628 451.041C640.606 451.996 639.099 451.779 638.105 450.389C637.808 450.054 637.486 449.623 637.137 449.095C636.789 448.568 636.37 448.162 635.88 447.879C635.428 446.965 634.976 446.051 634.524 445.137C634.072 444.223 633.62 443.309 633.168 442.394C632.767 441.673 632.367 440.952 631.967 440.231C631.76 439.459 631.553 438.686 631.346 437.913C630.687 436.226 630.028 434.539 629.369 432.853C628.761 431.359 628.128 429.769 627.469 428.082C627.365 427.695 627.165 427.335 626.869 427C626.765 426.614 626.662 426.227 626.558 425.841C625.885 423.33 625.116 420.844 624.249 418.384C623.577 415.873 622.807 413.388 621.941 410.928C621.592 410.4 621.315 409.75 621.108 408.977C620.952 408.398 620.797 407.818 620.642 407.238L620.098 405.21C619.18 402.557 618.262 399.904 617.345 397.251C616.62 394.547 615.895 391.842 615.171 389.138C614.601 387.013 613.813 384.843 612.805 382.628C612.043 380.555 611.209 378.604 610.305 376.776C609.104 374.613 607.692 372.817 606.067 371.389C604.635 369.909 603.274 368.307 601.983 366.582C600.745 365.051 599.48 363.422 598.19 361.698C597.79 360.977 597.222 360.404 596.487 359.98C595.946 359.504 595.404 359.028 594.862 358.552C591.523 356.134 588.183 353.716 584.843 351.298C581.504 348.88 578.138 346.365 574.747 343.754L564.205 335.708L554.109 328.164C551.994 326.453 549.808 324.865 547.552 323.399C545.437 321.688 543.322 319.977 541.207 318.266C538.009 315.603 534.74 313.062 531.401 310.644C528.009 308.033 524.547 305.544 521.014 303.178C512.658 296.721 504.432 290.746 496.334 285.255C495.251 284.303 494.194 283.447 493.162 282.689C492.079 281.737 490.995 280.785 489.912 279.832C488.881 279.074 487.849 278.315 486.817 277.556C485.734 276.604 484.58 275.774 483.355 275.067C482.569 274.45 481.808 273.929 481.073 273.505C480.338 273.08 479.674 272.534 479.081 271.864L463.183 261.216C462.396 260.599 461.636 260.078 460.901 259.654C460.166 259.229 459.431 258.805 458.696 258.381C456.195 256.773 453.597 255.192 450.903 253.636C448.35 251.836 445.752 250.254 443.109 248.892C442.078 248.133 441.072 247.47 440.092 246.905C439.112 246.339 437.965 245.922 436.651 245.653C436.651 245.653 436.554 245.679 436.361 245.73C436.168 245.782 436.001 245.931 435.859 246.176L436.092 247.045C436.003 247.483 436.061 248.088 436.268 248.861C436.682 250.407 437.097 251.952 437.511 253.498C437.873 254.85 438.165 256.325 438.386 257.922C438.399 258.746 438.51 259.545 438.717 260.318C439.065 260.846 439.221 261.425 439.183 262.056L442.832 275.676C442.987 276.256 443.169 276.932 443.376 277.704C443.531 278.284 443.616 278.986 443.629 279.811C443.747 281.021 443.961 282.206 444.271 283.366C444.582 284.525 444.918 285.78 445.281 287.133L447.3 294.667C447.765 296.406 448.135 298.17 448.407 299.961C448.873 301.699 449.243 303.464 449.515 305.254C449.943 307.624 450.468 309.968 451.089 312.286C451.71 314.605 452.331 316.923 452.952 319.241C453.418 320.98 453.884 322.718 454.35 324.457C454.764 326.003 454.985 327.6 455.013 329.249L455.789 332.147C456.203 333.692 456.643 335.334 457.109 337.073C457.575 338.812 457.919 340.479 458.14 342.077C458.398 343.043 458.683 344.105 458.994 345.264C459.252 346.23 459.415 347.222 459.48 348.24C459.649 349.644 460.038 351.093 460.645 352.586C461.111 354.325 461.577 356.064 462.043 357.802C462.702 359.489 463.335 361.08 463.942 362.573L466.364 368.136C467.424 370.544 468.58 372.926 469.832 375.282C471.033 377.445 472.259 379.704 473.512 382.06C473.86 382.588 474.235 383.213 474.635 383.934C474.983 384.461 475.332 384.989 475.68 385.517C476.622 386.714 477.178 388.015 477.347 389.419C477.658 390.578 477.897 391.859 478.067 393.263C478.029 393.895 477.779 394.893 477.317 396.26C477.137 397.136 476.861 398.038 476.489 398.966C476.258 399.649 475.93 400.358 475.506 401.093C475.044 402.459 474.794 403.458 474.756 404.089C474.911 404.669 474.899 405.397 474.72 406.273L475.03 407.432C475.086 410.73 473.375 412.845 469.897 413.777C468.79 414.28 467.45 413.915 465.877 412.68C465.825 412.487 465.677 412.319 465.432 412.178C465.38 411.985 465.328 411.792 465.276 411.599C464.669 410.105 463.727 408.908 462.451 408.008C461.419 407.249 460.387 406.49 459.356 405.731C458.814 405.255 458.202 404.901 457.519 404.67C456.977 404.194 456.461 403.815 455.971 403.532C454.888 402.58 454.146 401.743 453.746 401.022L451.811 398.435C450.468 396.517 449.249 394.67 448.152 392.893C447.054 391.117 446.054 389.314 445.15 387.486C445.046 387.1 444.872 386.836 444.627 386.694C443.478 384.725 442.4 382.632 441.392 380.418C440.578 378.151 439.667 375.911 438.659 373.696C438.349 372.537 437.993 371.597 437.593 370.876C436.675 368.223 435.88 365.641 435.207 363.129C434.675 360.373 434.073 357.739 433.4 355.228L430.605 344.796C430.191 343.25 429.803 341.801 429.44 340.449C429.219 338.852 429.024 337.351 428.855 335.947C428.79 334.93 428.653 334.034 428.446 333.262C428.187 332.296 427.954 331.426 427.747 330.654C427.489 329.688 427.23 328.722 426.971 327.756C426.712 326.79 426.55 325.798 426.484 324.78C426.263 323.183 425.946 321.612 425.532 320.066C425.118 318.521 424.729 317.072 424.367 315.72C424.198 314.316 423.861 313.06 423.358 311.952C422.995 310.6 422.633 309.248 422.271 307.896C422.05 306.298 421.732 304.727 421.318 303.182C420.852 301.443 420.386 299.704 419.92 297.966C419.492 295.596 418.968 293.251 418.347 290.933C417.726 288.615 417.104 286.297 416.483 283.979C416.159 281.995 415.764 280.134 415.298 278.395C414.78 276.463 414.359 274.506 414.035 272.522C414.072 271.891 413.936 270.995 413.626 269.836L406.327 242.597C405.268 240.189 404.331 237.852 403.516 235.586C402.843 233.074 402.171 230.563 401.498 228.051C401.135 226.699 400.483 225.424 399.541 224.227C399.438 223.841 399.089 223.313 398.496 222.644C395.915 219.195 394.925 215.112 395.524 210.396C396.138 206.504 398.46 203.191 402.489 200.455C404.793 199.009 407.62 198.355 410.97 198.493C411.794 198.479 412.548 198.587 413.231 198.818C414.108 198.998 414.817 199.325 415.358 199.801C415.848 200.084 416.119 200.322 416.171 200.515C418.969 202.457 421.908 204.155 424.989 205.607C426.704 206.597 428.322 207.612 429.843 208.654C431.506 209.451 433.221 210.441 434.987 211.624L444.618 217.429C446.822 218.702 448.93 220.001 450.941 221.325C453.094 222.405 455.202 223.703 457.265 225.221L459.837 226.706C462.583 228.455 465.33 230.204 468.076 231.953C471.015 233.65 473.787 235.495 476.392 237.489C477.914 238.531 479.435 239.572 480.957 240.614C482.426 241.463 483.948 242.504 485.521 243.739L494.282 249.777C499.195 253.43 504.037 257.206 508.809 261.104C513.528 264.808 518.345 268.487 523.257 272.14C525.321 273.658 527.287 275.201 529.157 276.771C531.22 278.289 533.187 279.832 535.057 281.402L537.784 283.466C539.164 284.753 540.64 286.014 542.214 287.249C543.735 288.29 545.282 289.429 546.856 290.663C548.919 292.181 550.982 293.699 553.045 295.217C555.056 296.541 556.971 297.892 558.789 299.268C560.504 300.258 562.174 301.467 563.799 302.895C568.066 305.686 572.141 308.528 576.022 311.422C576.46 311.512 576.75 311.434 576.892 311.189L576.814 310.899C576.607 310.126 576.4 309.354 576.193 308.581C576.127 307.563 575.991 306.668 575.784 305.895C575.332 304.981 575.028 304.234 574.873 303.655C574.666 302.882 574.459 302.109 574.252 301.337C573.889 299.984 573.553 298.729 573.242 297.569C572.88 296.217 572.421 294.891 571.865 293.59L570.778 289.533C570.171 288.04 569.686 286.617 569.324 285.264C568.91 283.719 568.522 282.27 568.159 280.918L568.004 280.338C567.241 278.265 566.479 276.192 565.716 274.118C565.095 271.8 564.403 269.604 563.641 267.531C563.278 266.179 562.845 264.949 562.341 263.842C561.838 262.734 561.334 261.627 560.83 260.519C560.675 259.94 560.423 259.386 560.074 258.858C559.867 258.086 559.686 257.41 559.531 256.83C558.768 254.757 558.128 252.754 557.611 250.822C557.093 248.89 556.479 246.985 555.768 245.104C554.746 242.065 553.628 239.052 552.414 236.064C551.392 233.025 550.468 229.96 549.639 226.869C548.694 222.567 547.581 218.414 546.301 214.409C545.214 210.352 544.101 206.198 542.962 201.948L541.564 196.732C541.409 196.153 541.209 195.792 540.964 195.651C540.357 194.157 539.872 192.734 539.509 191.382C539.147 190.03 538.785 188.677 538.422 187.325L537.646 184.427C537.18 182.689 536.618 180.976 535.959 179.289C535.299 177.602 534.473 176.063 533.479 174.673L533.324 174.094C532.034 172.369 531.561 170.218 531.906 167.641C531.968 165.554 532.397 163.679 533.194 162.016C533.939 160.16 534.806 158.374 535.796 156.66L537.592 155.247C540.372 153.26 543.341 152.361 546.497 152.55L551.543 153.993C551.981 154.083 552.374 154.392 552.723 154.92C553.212 155.202 553.606 155.511 553.902 155.846C556.611 158.226 558.353 160.865 559.13 163.763C559.337 164.535 559.57 165.405 559.828 166.371C560.229 167.092 560.558 167.935 560.817 168.901C561.024 169.674 561.135 170.472 561.148 171.297C561.162 172.121 561.273 172.92 561.48 173.693C562.398 176.346 563.148 179.147 563.732 182.096C564.456 184.801 565.181 187.506 565.906 190.21C566.268 191.562 566.63 192.915 566.993 194.267C567.548 195.568 568.033 196.991 568.447 198.536C568.654 199.309 568.887 200.178 569.146 201.144C569.353 201.917 569.682 202.76 570.134 203.674C570.535 204.395 570.89 205.335 571.201 206.494L572.987 213.159C573.245 214.125 573.504 215.091 573.763 216.057C574.022 217.023 574.377 217.963 574.829 218.877C575.281 219.791 575.663 220.828 575.973 221.987C576.232 222.953 576.587 223.893 577.039 224.807C577.246 225.58 577.454 226.353 577.661 227.126C577.816 227.705 578.094 228.355 578.494 229.076C578.597 229.463 578.701 229.849 578.804 230.235C579.101 230.57 579.301 230.931 579.405 231.317C579.715 232.476 580.026 233.635 580.337 234.794C580.84 235.902 581.344 237.009 581.848 238.116C582.417 240.241 583.109 242.437 583.923 244.704C584.931 246.918 585.745 249.185 586.367 251.503C586.574 252.276 586.781 253.048 586.988 253.821C587.336 254.349 587.711 254.973 588.111 255.694L588.499 257.143C589.068 259.268 589.734 261.367 590.497 263.441C591.453 265.462 592.215 267.535 592.785 269.66L593.095 270.82C593.999 272.648 594.71 274.528 595.228 276.46C595.745 278.392 596.386 280.394 597.148 282.468C597.355 283.24 597.562 284.013 597.769 284.786C597.976 285.558 598.28 286.305 598.68 287.026C598.732 287.22 598.81 287.509 598.913 287.896C599.158 288.037 599.306 288.204 599.358 288.398C599.876 290.329 600.464 292.139 601.123 293.826C601.782 295.513 602.441 297.2 603.1 298.886L605.678 305.029L606.511 306.979C607.274 309.053 608.036 311.126 608.799 313.199C609.755 315.221 610.614 317.268 611.377 319.341L614.42 327.222C615.479 329.63 616.635 332.012 617.888 334.368C619.14 336.724 620.753 338.88 622.727 340.836C623.617 341.84 624.34 342.992 624.895 344.293C625.592 345.348 626.192 346.43 626.696 347.537L627.317 349.855C627.279 350.487 627.416 351.382 627.726 352.541C628.154 354.911 628.196 357.384 627.851 359.962C627.775 361.224 627.7 362.487 627.624 363.749C627.548 365.012 627.472 366.275 627.397 367.537C627.41 368.362 627.495 369.064 627.65 369.643C627.857 370.416 627.968 371.215 627.982 372.039C628.334 375.672 628.976 379.227 629.908 382.704L632.237 391.398C633.103 393.857 633.873 396.343 634.545 398.854C635.218 401.366 635.891 403.877 636.564 406.388L638.117 412.184C638.376 413.15 638.635 414.116 638.894 415.082C639.204 416.241 639.586 417.277 640.038 418.192C640.334 418.526 640.464 419.009 640.426 419.641C640.581 420.22 640.71 420.703 640.814 421.089C640.88 422.107 641.042 423.099 641.301 424.065C641.611 425.224 641.896 426.286 642.155 427.252L645.183 438.554C645.752 440.679 646.058 442.978 646.099 445.452C646.141 447.925 644.984 449.788 642.628 451.041ZM714.193 387.451C712.275 388.794 710.574 388.628 709.09 386.955C707.762 385.862 706.646 384.401 705.742 382.572C705.535 381.8 705.231 381.053 704.831 380.332C704.676 379.752 704.494 379.076 704.287 378.303C703.991 377.969 703.79 377.608 703.687 377.222C703.466 375.625 703.174 374.15 702.812 372.798C702.45 371.445 702.184 370.067 702.015 368.663C701.29 365.958 700.54 363.157 699.763 360.26C699.232 357.503 698.481 354.702 697.511 351.856C696.89 349.538 695.541 347.208 693.464 344.865C691.632 342.664 690.012 340.096 688.604 337.161C688.152 336.246 687.823 335.403 687.616 334.63C687.409 333.857 687.202 333.085 686.995 332.312C686.812 330.083 686.532 327.881 686.156 325.704C685.728 323.334 685.326 321.061 684.949 318.884C684.766 316.655 684.39 314.478 683.821 312.353C683.445 310.177 683.094 308.096 682.77 306.113C682.394 303.936 682.043 301.856 681.719 299.872C681.536 297.644 681.063 295.493 680.3 293.419C680.117 291.191 679.767 289.111 679.249 287.179C678.873 285.002 678.523 282.922 678.198 280.938C678.171 279.289 677.879 277.814 677.323 276.514C676.909 274.968 676.425 273.545 675.869 272.245C675.417 271.331 675.113 270.584 674.958 270.004C674.944 269.18 674.834 268.381 674.627 267.608C674.561 266.591 674.399 265.599 674.14 264.633C673.829 263.474 673.667 262.482 673.653 261.657L670.625 250.356C669.759 247.896 669.015 245.508 668.394 243.189C667.914 240.626 667.338 238.089 666.665 235.577C665.954 233.697 665.34 231.791 664.822 229.86C664.446 227.683 664.096 225.603 663.771 223.619C663.809 222.988 663.751 222.382 663.595 221.803C663.44 221.223 663.311 220.74 663.207 220.354L660.567 210.501C660.257 209.342 660.12 208.447 660.158 207.816L659.149 204.049C658.607 203.572 658.4 202.8 658.528 201.73C658.448 199.888 657.982 198.149 657.13 196.514C656.833 196.18 656.633 195.819 656.53 195.433C656.568 194.802 656.509 194.196 656.354 193.617C656.095 192.651 655.862 191.781 655.655 191.009C655.589 189.991 655.427 188.999 655.168 188.033C654.961 187.26 654.754 186.488 654.547 185.715C654.481 184.697 654.441 183.776 654.428 182.952L654.117 181.792C653.703 180.247 653.385 178.676 653.164 177.078C652.892 175.288 652.671 173.691 652.502 172.287L651.212 160.519C651.081 158.484 650.976 156.545 650.896 154.703C651.01 152.809 651.22 150.889 651.527 148.944C651.754 145.156 653.025 141.399 655.34 137.673C656.099 136.641 656.883 135.706 657.694 134.868C658.698 133.978 659.876 133.351 661.228 132.989C661.37 132.744 661.633 132.57 662.02 132.466C663.269 131.718 664.498 131.285 665.709 131.167C666.92 131.05 668.157 131.029 669.42 131.105C672.279 130.96 674.696 131.865 676.67 133.821C677.998 134.914 678.817 136.041 679.128 137.2C679.387 138.166 679.69 138.913 680.039 139.44C681.291 141.796 682.106 144.063 682.482 146.24C682.689 147.012 682.896 147.785 683.103 148.558C683.503 149.279 683.929 150.096 684.381 151.011C685.027 151.873 685.504 152.884 685.815 154.043C686.074 155.009 686.333 155.975 686.591 156.941C686.954 158.293 687.22 159.671 687.389 161.075C687.506 162.286 687.649 163.594 687.819 164.998C687.832 165.822 687.872 166.743 687.938 167.761C688.145 168.534 688.185 169.455 688.057 170.524C688.226 171.928 688.299 173.358 688.275 174.814C688.444 176.218 688.613 177.622 688.782 179.026L689.093 180.185C689.224 182.221 689.478 184.327 689.854 186.504C690.179 188.487 690.406 190.497 690.538 192.532C690.5 193.163 690.558 193.769 690.714 194.348C690.869 194.928 690.998 195.411 691.102 195.797C691.257 196.377 691.413 196.956 691.568 197.536C691.723 198.115 691.782 198.721 691.744 199.352C691.861 200.563 692.075 201.748 692.386 202.907C692.697 204.066 692.936 205.348 693.106 206.752C693.157 206.945 693.183 207.042 693.183 207.042C693.376 206.99 693.499 207.061 693.551 207.254C693.602 207.447 693.751 207.614 693.996 207.756C694.434 207.845 694.724 207.768 694.865 207.523C695.534 206.929 696.081 206.265 696.505 205.53C698.164 203.222 699.92 200.888 701.772 198.529C703.625 196.169 705.477 193.809 707.33 191.449C709.04 189.334 710.751 187.219 712.462 185.104C714.173 182.99 715.884 180.875 717.595 178.76C717.788 178.708 717.956 178.56 718.097 178.315C719.615 176.252 721.036 174.214 722.36 172.203C723.878 170.14 725.299 168.103 726.624 166.091C728.231 163.59 729.742 161.115 731.156 158.665C732.764 156.164 734.152 153.618 735.321 151.027C735.604 150.537 735.887 150.047 736.17 149.557C736.453 149.067 736.736 148.577 737.018 148.088L743.786 135.093C744.865 132.94 746.402 130.562 748.396 127.957C749.155 126.925 750.088 126.158 751.195 125.654C751.582 125.55 751.871 125.473 752.065 125.421C752.206 125.176 752.399 125.124 752.644 125.266C753.61 125.007 754.505 124.871 755.33 124.857C756.102 124.65 756.901 124.539 757.726 124.525C758.357 124.563 759.252 124.427 760.411 124.116C761.274 123.471 762.027 123.58 762.673 124.442C762.724 124.635 762.943 124.68 763.33 124.577C763.523 124.525 763.954 124.202 764.623 123.609C765.203 123.453 765.545 123.569 765.648 123.955C766.538 124.959 767.64 125.596 768.955 125.865C769.007 126.058 769.032 126.154 769.032 126.154C769.226 126.103 769.322 126.077 769.322 126.077L769.555 126.946C769.814 127.912 770.356 128.388 771.18 128.374C771.373 128.322 771.496 128.393 771.548 128.586C771.741 128.534 771.837 128.509 771.837 128.509C772.276 128.598 772.791 128.978 773.385 129.647C773.747 130.999 774.425 132.37 775.419 133.761C777.458 136.734 778.215 139.948 777.691 143.401C777.271 147.241 776.245 151.139 774.613 155.096L769.931 166.6C769.417 167.773 768.807 168.972 768.1 170.196C767.393 171.421 766.66 172.549 765.901 173.581C765.194 174.806 764.724 175.76 764.493 176.443C764.211 176.933 763.928 177.422 763.645 177.912C763.362 178.402 763.079 178.892 762.796 179.382C762.193 180.993 761.318 182.366 760.173 183.501C759.414 184.533 758.559 185.59 757.607 186.674C756.603 187.564 755.747 188.621 755.04 189.846C754.281 190.878 753.304 191.864 752.107 192.806C751.051 193.503 749.995 194.2 748.94 194.897C748.129 195.735 746.996 196.143 745.54 196.119L745.25 196.196C742.532 196.096 740.053 197.278 737.815 199.742C737.339 200.283 736.766 200.851 736.097 201.444C735.621 201.986 735.048 202.553 734.379 203.147C733.337 204.668 732.076 206.145 730.596 207.577C729.927 208.17 729.381 208.834 728.956 209.569C728.48 210.111 728.004 210.652 727.528 211.194C726.293 212.767 724.962 214.366 723.534 215.991C722.054 217.423 720.696 218.926 719.462 220.499L714.598 225.529C714.122 226.071 713.575 226.735 712.958 227.522C712.482 228.063 711.935 228.727 711.317 229.514C711.035 230.004 711.138 230.39 711.628 230.673L715.804 232.349C718.678 233.029 721.507 233.927 724.291 235.045C727.023 235.969 729.781 236.99 732.565 238.107C735.105 239.083 737.573 240.182 739.971 241.403C742.51 242.379 745.049 243.355 747.588 244.331C748.026 244.421 748.49 244.607 748.98 244.89C749.663 245.121 750.153 245.404 750.45 245.739C753.041 246.908 755.439 248.129 757.643 249.402C759.989 250.43 762.361 251.554 764.759 252.775C768.871 254.986 773.054 257.074 777.308 259.04C781.51 260.813 785.596 262.928 789.567 265.384L792.874 267.293C794.396 268.335 795.891 269.28 797.361 270.128C798.972 270.732 800.609 271.432 802.272 272.229C803.586 272.498 804.663 273.037 805.501 273.848L806.603 274.485C808.318 275.474 809.576 276.69 810.376 278.132C811.177 279.574 811.739 281.287 812.063 283.271L812.317 285.377C812.873 286.677 812.771 287.843 812.012 288.875C811.484 289.223 811.402 290.074 811.764 291.426C811.971 292.199 811.688 292.689 810.915 292.896C810.195 293.296 809.622 293.864 809.198 294.598C808.156 296.12 806.747 297.429 804.97 298.526L802.885 300.017C802.216 300.61 801.662 300.862 801.224 300.773C800.348 300.593 799.375 300.44 798.305 300.312C797.236 300.185 796.192 300.154 795.175 300.219C794.736 300.13 794.028 299.802 793.048 299.236C791.823 298.529 790.598 297.822 789.373 297.115C788.097 296.215 786.82 295.314 785.544 294.414C783.778 293.231 781.915 292.074 779.955 290.942C777.995 289.811 776.062 288.776 774.154 287.838L762.785 282.499C760.09 280.943 757.351 279.607 754.567 278.489C751.783 277.372 748.876 276.183 745.847 274.924C745.357 274.642 744.384 274.488 742.928 274.464C742.349 274.619 741.743 274.678 741.112 274.64C740.429 274.409 739.772 274.275 739.14 274.237C737.633 274.02 736.125 273.802 734.618 273.585C733.303 273.316 731.866 272.976 730.307 272.566C728.941 272.104 727.575 271.642 726.209 271.18C724.842 270.717 723.476 270.255 722.11 269.793C720.447 268.996 718.617 268.348 716.62 267.848C714.763 267.103 712.933 266.454 711.129 265.903C710.884 265.761 710.568 265.742 710.182 265.846C709.989 265.898 709.673 265.879 709.235 265.789C708.359 265.61 707.857 266.055 707.729 267.124C707.446 267.614 707.267 268.49 707.191 269.753L707.564 274.622C707.837 276.413 708.039 278.326 708.17 280.361C708.443 282.152 708.716 283.942 708.988 285.732C709.158 287.136 709.327 288.541 709.496 289.945C709.613 291.155 709.731 292.366 709.848 293.577C709.965 294.788 710.083 295.999 710.2 297.21C710.318 298.421 710.338 299.657 710.263 300.92C710.277 301.745 710.413 302.64 710.672 303.606C710.879 304.378 711.112 305.248 711.371 306.214L713.933 315.776C714.554 318.095 714.982 320.465 715.217 322.886C715.4 325.115 715.583 327.343 715.766 329.572C716.222 333.591 715.627 337.167 713.981 340.299C713.147 342.594 712.776 345.074 712.87 347.741C713.029 351.425 713.433 355.251 714.081 359.218C714.095 360.043 714.206 360.841 714.413 361.614C714.672 362.58 714.834 363.572 714.9 364.589C714.913 365.414 715.05 366.309 715.309 367.275C715.619 368.434 715.807 369.523 715.873 370.54C716.094 372.138 716.315 373.735 716.536 375.332C717.002 377.071 717.248 378.765 717.276 380.414C717.445 381.818 717.202 383.229 716.547 384.647C716.033 385.82 715.248 386.755 714.193 387.451Z" fill="#00E5AE"/>
</g>
<g filter="url(#filter2_d_3762_68)">
<path d="M114.991 518.373C113.097 518.259 111.434 517.462 110.002 515.983L108.278 513.028C107.826 512.114 107.471 511.174 107.212 510.208C106.953 509.242 106.598 508.302 106.146 507.388C105.746 506.667 105.346 505.946 104.945 505.225C104.79 504.645 104.442 504.117 103.9 503.641C103.306 502.972 102.713 502.303 102.12 501.634C101.526 500.965 100.933 500.295 100.339 499.626C96.9719 495.559 95.1052 491.297 94.7391 486.84L94.3509 485.391C93.9229 483.021 93.5208 480.748 93.1446 478.571C92.7166 476.201 92.2887 473.831 91.8607 471.461C91.6536 470.688 91.4466 469.915 91.2395 469.143C91.2256 468.318 91.1152 467.52 90.9081 466.747C90.7528 466.167 90.5975 465.588 90.4423 465.008C90.4801 464.377 90.4473 463.868 90.3438 463.482C90.085 462.516 89.8003 461.453 89.4897 460.294C89.3723 459.083 89.1842 457.995 88.9254 457.029L88.4595 455.29C87.4381 452.251 86.5392 449.282 85.7627 446.385C84.9345 443.294 84.1063 440.203 83.278 437.112C83.0192 436.146 82.7604 435.18 82.5016 434.214C82.191 433.055 81.8097 432.018 81.3577 431.104C81.061 430.77 80.8091 430.216 80.602 429.443C80.4329 428.039 80.0964 426.783 79.5927 425.676C79.2821 424.517 78.9715 423.358 78.6609 422.199C78.4539 421.426 78.2727 420.75 78.1174 420.17C77.9103 419.397 77.8258 418.695 77.8636 418.064C77.5392 416.081 77.0474 414.245 76.3884 412.558C75.574 410.292 74.7597 408.025 73.9453 405.759C73.131 403.493 72.2459 401.349 71.2901 399.327C70.0238 396.146 68.7574 392.966 67.4911 389.785C66.4179 386.553 65.5379 383.269 64.8511 379.933L62.5217 371.239C62.2629 370.273 62.0041 369.308 61.7453 368.342C61.6797 367.324 61.5433 366.429 61.3363 365.656L60.7151 363.338C60.1078 361.844 59.5971 360.324 59.183 358.779C58.9103 356.989 58.6376 355.198 58.3649 353.408L57.5108 350.22C56.7861 347.516 56.0614 344.811 55.3367 342.106C54.8052 339.35 54.203 336.716 53.5301 334.205C53.116 332.659 52.7277 331.21 52.3654 329.858C51.9513 328.313 51.3699 326.915 50.6211 325.667C49.8068 323.4 49.3271 320.837 49.1819 317.977C49.3474 316.276 49.6353 314.646 50.0457 313.087C50.4561 311.528 50.9889 310.039 51.6443 308.621C54.0346 303.632 58.0309 300.387 63.6333 298.886C65.4237 298.614 67.1693 298.56 68.8701 298.725C70.7123 298.646 72.4648 299.005 74.1277 299.801C74.5658 299.891 75.2748 300.219 76.2546 300.784C77.4276 301.298 78.6971 301.786 80.0633 302.248C81.5709 302.466 83.0526 302.586 84.5084 302.61C86.1057 302.389 87.7288 302.265 89.3778 302.237C91.22 302.158 92.9656 302.104 94.6146 302.076C95.2459 302.114 96.0445 302.004 97.0105 301.745C97.9764 301.486 98.6715 300.989 99.0958 300.255C99.3786 299.765 99.6873 299.371 100.022 299.075C100.498 298.533 101 298.088 101.528 297.739C103.484 295.766 105.583 295.1 107.825 295.741C108.456 295.779 109.017 295.94 109.507 296.223C110.138 296.26 110.673 296.324 111.111 296.414C113.495 296.81 115.448 297.53 116.969 298.571C118.246 299.472 119.708 299.908 121.357 299.88C122.375 299.814 123.225 299.897 123.909 300.128C124.785 300.308 125.713 300.68 126.693 301.246C127.621 301.618 128.523 301.894 129.399 302.073C130.469 302.201 131.441 302.354 132.318 302.534C133.915 302.313 135.404 302.846 136.784 304.132C137.97 305.471 139.511 306.197 141.405 306.311C142.422 306.245 143.544 306.566 144.768 307.273C145.31 307.749 146.457 308.166 148.21 308.525C149.227 308.459 150.13 308.735 150.916 309.352C151.844 309.725 152.727 310.317 153.566 311.127L154.378 311.841C156.507 314.377 159.453 316.486 163.217 318.169C164.635 318.824 166.008 319.699 167.337 320.792C168.613 321.693 169.652 322.864 170.452 324.306C171.045 324.975 171.639 325.644 172.232 326.313C173.019 326.931 173.735 327.671 174.38 328.533C174.922 329.009 175.367 329.511 175.715 330.039C176.064 330.567 176.438 331.191 176.838 331.912C177.239 332.633 177.613 333.257 177.961 333.785C178.31 334.313 178.684 334.937 179.084 335.658C179.381 335.993 179.607 336.45 179.762 337.03C179.866 337.416 180.066 337.776 180.363 338.111C181.512 340.081 182.493 342.199 183.308 344.465C184.315 346.68 185.226 348.921 186.041 351.187C186.596 352.488 186.959 353.84 187.128 355.244C187.49 356.596 187.878 358.045 188.292 359.591C188.551 360.557 188.739 361.645 188.857 362.856C189.116 363.822 189.278 364.814 189.343 365.831C189.499 366.411 189.487 367.139 189.307 368.015C188.966 373.697 187.407 379.084 184.631 384.176C184.065 385.156 183.525 386.232 183.011 387.405C182.446 388.385 181.88 389.365 181.314 390.345C180.466 391.814 179.591 393.187 178.691 394.464C177.791 395.74 176.89 397.017 175.99 398.293L175.354 399.396C174.015 400.583 172.677 401.769 171.339 402.956C170 404.143 168.513 405.163 166.878 406.015C166.299 406.17 165.938 406.37 165.797 406.615C164.651 407.75 163.21 408.551 161.471 409.017C159.925 409.431 158.354 409.748 156.757 409.969C155.932 409.983 155.134 410.094 154.361 410.301C153.73 410.263 153.028 410.347 152.255 410.554C149.743 411.227 147.354 411.971 145.088 412.785C142.822 413.6 140.484 414.536 138.076 415.596L125.29 421.196C124.711 421.351 124.06 421.629 123.339 422.029C122.76 422.185 122.11 422.462 121.389 422.863C120.088 423.418 118.813 424.07 117.565 424.819C116.457 425.323 115.202 425.659 113.798 425.828C113.218 425.984 113.032 426.448 113.239 427.22L114.559 432.147C114.742 434.375 115.311 436.5 116.267 438.522C117.119 440.157 117.288 441.561 116.774 442.734C116.557 444.241 116.849 445.716 117.649 447.158C118.502 448.793 119.283 450.551 119.994 452.431C120.846 454.066 121.698 455.701 122.551 457.336C123.003 458.251 123.358 459.191 123.617 460.157C124.069 461.071 124.424 462.011 124.683 462.977C126.157 466.93 127.823 470.832 129.683 474.681C130.38 475.737 130.884 476.844 131.194 478.004C131.646 478.918 132.124 479.928 132.628 481.036C132.99 482.388 133.178 483.476 133.192 484.301C133.154 484.932 133.142 485.66 133.156 486.485C133.312 487.064 133.274 487.696 133.043 488.379L132.717 490.64C132.434 491.13 132.203 491.813 132.024 492.689C131.665 494.442 130.649 496.06 128.976 497.543C126.917 499.131 124.895 500.086 122.911 500.411C121.946 500.67 121.295 500.947 120.961 501.244C119.995 501.503 119.519 502.045 119.533 502.869C119.443 503.307 119.379 503.842 119.341 504.473C119.303 505.105 119.24 505.639 119.15 506.077C119.357 506.85 119.467 507.649 119.481 508.473C119.74 509.439 119.902 510.431 119.968 511.449C120.189 513.046 119.804 514.702 118.814 516.417C117.966 517.886 116.691 518.538 114.991 518.373ZM111.001 398.004C112.16 397.693 113.222 397.409 114.188 397.15C115.296 396.646 116.403 396.142 117.51 395.639C118.759 394.89 120.034 394.238 121.334 393.682C122.635 393.127 123.935 392.571 125.236 392.016C127.837 390.905 130.29 389.626 132.594 388.181C133.315 387.78 134.062 387.477 134.835 387.27C135.556 386.869 136.303 386.566 137.075 386.359C138.428 385.996 139.368 385.641 139.895 385.292C141.144 384.544 142.348 384.014 143.507 383.704C144.86 383.341 146.308 382.953 147.854 382.539L152.201 381.374C154.467 380.56 156.043 379.102 156.93 377.001L158.549 373.772C159.063 372.599 159.481 371.452 159.801 370.331C160.263 368.964 160.41 367.579 160.241 366.175C159.851 363.174 159.055 360.592 157.855 358.429C156.654 356.266 155.382 354.226 154.04 352.308C152.646 350.196 151.111 348.33 149.434 346.709C147.602 344.508 145.346 343.042 142.665 342.311C141.841 342.325 141.106 341.901 140.461 341.038C139.764 339.983 138.855 339.294 137.734 338.974C137.489 338.832 137.244 338.691 136.999 338.549C136.754 338.408 136.412 338.292 135.974 338.203C134.994 337.637 133.828 337.535 132.476 337.898C131.703 338.105 130.808 338.241 129.79 338.307C128.914 338.128 128.064 338.045 127.239 338.059C126.363 337.879 125.487 337.7 124.61 337.521C123.927 337.29 123.244 337.059 122.561 336.827C120.319 336.186 118.038 336.176 115.72 336.797C113.981 337.263 111.972 337.491 109.692 337.481C107.204 336.698 104.776 336.52 102.406 336.948C102.019 337.052 101.388 337.014 100.512 336.835L97.9604 336.586C96.646 336.317 95.6025 336.286 94.8297 336.494C92.1113 336.394 90.5089 337.755 90.0228 340.577C89.9849 341.208 89.9729 341.936 89.9867 342.761C89.9488 343.392 89.9368 344.12 89.9507 344.944C90.1716 346.542 90.3925 348.139 90.6135 349.736C90.8344 351.333 91.0553 352.93 91.2762 354.528C91.3936 355.739 91.511 356.949 91.6284 358.16C91.7458 359.371 91.9598 360.556 92.2704 361.715C92.7501 364.279 93.3265 366.816 93.9994 369.327C94.8655 371.787 95.8541 374.317 96.9652 376.918L97.7416 379.816C98.104 381.168 98.4663 382.521 98.8287 383.873C99.3842 385.173 99.9397 386.474 100.495 387.775C100.844 388.302 101.147 389.049 101.406 390.015L104.372 397.606C104.683 398.765 105.417 399.19 106.577 398.879C107.401 398.865 108.103 398.781 108.683 398.625C109.455 398.418 110.228 398.211 111.001 398.004ZM365.811 589.996C364.652 590.307 363.557 590.083 362.525 589.324C361.545 588.758 360.759 588.141 360.165 587.471C359.172 586.081 358.494 584.71 358.131 583.358C357.524 581.864 356.891 580.274 356.232 578.587C355.818 577.041 355.281 575.425 354.622 573.738C353.794 570.647 352.702 567.731 351.346 564.988C351.035 563.829 350.628 562.696 350.124 561.588C349.62 560.481 349.213 559.348 348.903 558.189C348.992 557.751 348.863 557.268 348.514 556.74C348.411 556.353 348.282 555.87 348.126 555.291C347.674 554.377 347.319 553.437 347.06 552.471C346.853 551.698 346.646 550.925 346.439 550.153C346.039 549.432 345.683 548.492 345.373 547.332C344.275 545.556 343.661 543.65 343.53 541.615C343.14 538.613 342.396 536.224 341.299 534.448C340.743 533.147 340.31 531.917 340 530.758C339.689 529.599 339.379 528.44 339.068 527.281C338.564 526.174 338.157 525.04 337.847 523.881C337.536 522.722 337.225 521.563 336.915 520.404L336.294 518.086C336.19 517.699 335.964 517.242 335.616 516.714C335.512 516.328 335.383 515.845 335.227 515.266C334.762 513.527 334.296 511.788 333.83 510.05C333.364 508.311 332.705 506.624 331.853 504.989C331.297 503.688 330.838 502.362 330.476 501.01C330.358 499.799 330.144 498.614 329.834 497.455L327.66 489.341C327.401 488.375 327.116 487.312 326.806 486.153C326.547 485.187 326.385 484.196 326.319 483.178C326.253 482.16 325.994 481.194 325.542 480.28C325.335 479.507 325.128 478.735 324.921 477.962C324.663 476.996 324.333 476.152 323.933 475.432C323.726 474.659 323.615 473.86 323.601 473.036C322.076 468.889 320.435 465.084 318.679 461.621L317.422 460.405C316.39 459.646 315.333 458.79 314.249 457.838C313.359 456.834 312.302 455.979 311.077 455.272C307.299 452.764 303.759 449.986 300.458 446.936C299.723 446.512 299.085 446.062 298.543 445.586C297.95 444.917 297.356 444.247 296.763 443.578C296.169 442.909 295.602 442.336 295.06 441.86C294.467 441.191 293.873 440.522 293.28 439.853C292.093 438.514 290.932 437.272 289.797 436.127C288.662 434.982 287.623 433.811 286.681 432.614C285.443 431.082 284.301 429.525 283.255 427.941C282.403 426.306 281.287 424.845 279.907 423.559C279.662 423.417 279.539 423.347 279.539 423.347C279.488 423.153 279.462 423.057 279.462 423.057C277.216 419.31 274.783 416.028 272.165 413.21C271.713 412.296 271.19 411.504 270.597 410.835C270.144 409.921 269.692 409.007 269.24 408.092C268.788 407.178 268.24 406.29 267.595 405.428C267.091 404.32 266.516 403.335 265.871 402.473C264.774 400.696 263.773 398.894 262.869 397.066C261.965 395.237 261.061 393.409 260.157 391.581C259.861 391.246 259.583 390.596 259.324 389.63C258.806 387.698 258.218 385.889 257.559 384.202C256.9 382.515 256.118 380.757 255.214 378.929C253.858 376.186 252.766 373.27 251.938 370.179C251.679 369.213 251.421 368.247 251.162 367.281C250.903 366.315 250.573 365.472 250.173 364.751C249.825 364.223 249.573 363.669 249.417 363.09C249.21 362.317 249.003 361.544 248.796 360.771L246.312 351.498C246.105 350.726 245.923 350.05 245.768 349.47C245.561 348.697 245.451 347.899 245.437 347.074C245.333 346.688 245.256 346.398 245.204 346.205C245.345 345.96 245.39 345.741 245.338 345.548C244.576 343.474 244.103 341.323 243.92 339.095C243.737 336.866 243.457 334.664 243.081 332.487C242.77 331.328 242.634 330.432 242.672 329.801C242.541 327.766 242.216 325.782 241.699 323.85C241.374 321.867 240.953 319.909 240.435 317.977L240.202 317.108C240.123 315.266 239.754 313.501 239.095 311.814C238.436 310.127 237.899 308.511 237.485 306.966C236.878 305.472 236.27 303.978 235.663 302.484C235.056 300.991 234.642 299.445 234.421 297.848C233.813 296.354 233.277 294.738 232.811 292.999C232.345 291.261 231.976 289.496 231.703 287.706C231.341 286.353 230.978 285.001 230.616 283.649C230.395 282.052 230.2 280.551 230.031 279.147C229.617 277.601 229.229 276.152 228.866 274.8C228.645 273.203 228.424 271.606 228.203 270.008C227.672 267.252 227.527 264.392 227.768 261.429C227.778 259.148 228.587 256.758 230.194 254.256C231.184 252.542 232.348 251.091 233.687 249.904C235.219 248.666 236.898 247.594 238.727 246.69L241.045 246.069C242.977 245.551 244.774 245.691 246.437 246.488C247.365 246.86 248.197 247.259 248.931 247.683C249.859 248.055 250.762 248.331 251.638 248.511C252.373 248.935 252.889 249.314 253.185 249.649C253.727 250.125 254.269 250.601 254.81 251.077C255.3 251.36 255.693 251.669 255.99 252.003C258.878 253.507 260.201 255.741 259.96 258.704C259.898 260.791 260.1 262.704 260.566 264.443C260.58 265.267 260.69 266.066 260.897 266.839C261.104 267.611 261.311 268.384 261.518 269.157C261.932 270.702 262.25 272.274 262.471 273.871C262.64 275.275 262.738 276.802 262.766 278.451C262.728 279.082 262.865 279.977 263.175 281.136C263.538 282.489 263.803 283.867 263.972 285.271C264.335 286.623 264.626 288.098 264.847 289.695C264.927 291.537 265.463 293.153 266.457 294.544C267.051 295.213 267.038 295.941 266.421 296.727C266.421 296.727 266.35 296.85 266.209 297.095C266.261 297.288 266.312 297.481 266.364 297.674C266.533 299.078 266.799 300.457 267.161 301.809C267.472 302.968 267.809 304.224 268.171 305.576C268.637 307.315 269.006 309.079 269.279 310.87C269.693 312.415 270.01 313.987 270.231 315.584C270.438 316.357 270.619 317.033 270.775 317.612C270.93 318.192 271.015 318.894 271.029 319.718C271.701 322.23 272.278 324.767 272.758 327.33C273.186 329.7 273.543 332.193 273.829 334.808C274.078 338.054 274.939 341.654 276.412 345.607L278.664 354.011C279.285 356.329 280.196 358.569 281.397 360.732C282.249 362.367 283.005 364.028 283.664 365.715C284.464 367.157 285.265 368.599 286.065 370.041C287.421 372.784 289.338 375.687 291.815 378.75L294.853 381.973C296.492 384.226 298.298 386.33 300.272 388.286C302.438 390.19 304.579 391.998 306.694 393.709C308.319 395.137 309.989 396.346 311.703 397.336L318.317 401.154C319.825 401.371 321.01 401.157 321.872 400.512L323.166 399.544C324.028 398.899 324.89 398.254 325.753 397.609C326.563 396.77 327.303 396.054 327.972 395.461L329.478 394.126C331.048 392.256 332.012 390.445 332.37 388.692C332.588 387.185 332.901 385.651 333.312 384.092C333.619 382.146 333.926 380.2 334.232 378.255C334.681 376.064 335.277 374.04 336.022 372.184C336.485 370.818 336.876 369.575 337.197 368.453C337.659 367.087 338.024 365.747 338.293 364.432C338.614 363.311 338.909 362.093 339.178 360.779C339.447 359.465 339.593 358.08 339.617 356.624C339.731 354.73 339.845 352.836 339.959 350.942C340.02 348.855 339.986 346.793 339.854 344.758C339.709 341.898 339.3 339.213 338.627 336.701L336.919 330.326C336.001 327.673 335.058 324.924 334.088 322.078C333.26 318.987 332.257 315.632 331.081 312.013C330.77 310.854 330.285 309.431 329.626 307.744C328.915 305.864 328.301 303.958 327.783 302.026C327.317 300.288 326.755 298.575 326.096 296.888C325.63 295.149 325.068 293.436 324.409 291.75C323.335 288.517 322.192 285.407 320.977 282.42C319.956 279.381 318.838 276.367 317.623 273.38C317.519 272.993 317.345 272.73 317.1 272.588C316.997 272.202 316.919 271.912 316.867 271.719C316.35 269.787 315.761 267.978 315.102 266.291C314.443 264.604 313.855 262.794 313.337 260.863L310.47 254.798C309.914 253.498 309.288 252.319 308.591 251.264C308.087 250.157 307.461 248.978 306.712 247.73C305.691 244.69 305.513 241.322 306.179 237.624C306.844 233.925 308.541 230.986 311.27 228.805C312.467 227.863 313.69 227.018 314.938 226.269C316.135 225.328 317.41 224.675 318.762 224.313C321.853 223.485 324.713 223.34 327.342 223.878C330.164 224.364 332.71 225.752 334.98 228.043C335.522 228.519 336.193 229.478 336.993 230.92C337.639 231.782 338.117 232.793 338.427 233.952C338.686 234.918 338.945 235.884 339.204 236.85C339.914 238.73 340.58 240.829 341.202 243.147C341.964 245.22 342.727 247.294 343.489 249.367L344.266 252.265C344.576 253.424 344.887 254.583 345.197 255.742C345.701 256.849 346.231 258.053 346.786 259.354C347.187 260.075 347.516 260.918 347.775 261.884C348.034 262.85 348.293 263.816 348.551 264.782C348.707 265.362 348.862 265.941 349.017 266.521C349.173 267.1 349.425 267.654 349.773 268.182C350.173 268.903 350.477 269.65 350.684 270.422C350.891 271.195 351.098 271.968 351.305 272.74C351.667 274.093 352.056 275.542 352.47 277.087C353.025 278.388 353.607 279.785 354.214 281.279C354.718 282.386 355.125 283.519 355.436 284.678C355.746 285.837 356.153 286.971 356.657 288.078C356.968 289.237 357.278 290.396 357.589 291.555C358.093 292.663 358.5 293.796 358.81 294.955C359.121 296.114 359.457 297.37 359.82 298.722C360.324 299.829 360.827 300.937 361.331 302.044C361.938 303.538 362.475 305.154 362.941 306.893C363.355 308.438 363.769 309.984 364.183 311.529C365.049 313.989 365.748 316.597 366.28 319.353C366.953 321.864 367.555 324.498 368.086 327.255C368.449 328.607 368.714 329.985 368.884 331.389C369.001 332.6 369.241 333.882 369.603 335.234C369.655 335.427 369.61 335.646 369.469 335.891C369.52 336.084 369.598 336.374 369.702 336.761C369.678 338.216 369.705 339.865 369.785 341.708C369.813 343.357 369.84 345.006 369.868 346.655C369.778 347.093 369.715 347.627 369.677 348.259C369.832 348.838 369.768 349.373 369.485 349.863C369.268 351.371 369.122 352.756 369.046 354.018C368.97 355.281 368.92 356.64 368.896 358.096C368.717 358.972 368.679 359.604 368.782 359.99C368.848 361.008 368.817 362.051 368.69 363.121C368.51 363.997 368.357 364.97 368.229 366.039C367.819 367.599 367.505 369.132 367.288 370.64C367.019 371.954 366.653 373.294 366.191 374.661C365.819 375.589 365.472 376.613 365.151 377.734C364.779 378.662 364.406 379.59 364.034 380.518L362.782 383.96C362.371 385.519 361.987 387.175 361.628 388.928C361.218 390.487 360.737 392.169 360.185 393.973C359.723 395.339 359.119 396.95 358.374 398.806C357.436 400.714 356.795 402.957 356.45 405.534C356.308 405.779 356.264 405.998 356.315 406.191C356.367 406.384 356.322 406.603 356.181 406.848C355.294 408.949 354.531 411.121 353.889 413.363C353.441 415.554 352.896 417.771 352.254 420.013C351.523 422.694 350.67 425.303 349.694 427.843C348.911 430.33 347.786 432.702 346.32 434.958C345.33 436.673 344.489 438.555 343.795 440.604C343.475 441.725 342.909 442.705 342.098 443.543C341.391 444.768 340.71 446.089 340.055 447.507C339.451 449.118 338.822 450.633 338.166 452.051C337.718 454.242 337.604 456.136 337.825 457.733C337.839 458.557 337.879 459.478 337.945 460.496C338.255 461.655 338.54 462.718 338.799 463.684C339.123 465.667 339.544 467.625 340.062 469.557C340.631 471.682 341.201 473.807 341.77 475.932L344.255 485.205C344.565 486.364 344.779 487.549 344.897 488.76C345.207 489.919 345.544 491.175 345.906 492.527C346.075 493.931 346.367 495.406 346.781 496.951C347.195 498.497 347.609 500.042 348.023 501.588C348.527 502.695 348.812 503.758 348.877 504.775C349.188 505.934 349.595 507.068 350.099 508.175C350.461 509.527 350.701 510.809 350.819 512.02C351.181 513.372 351.64 514.698 352.195 515.999C352.854 517.686 353.269 519.231 353.438 520.635C353.296 520.88 353.251 521.099 353.303 521.293C353.6 521.627 353.774 521.891 353.826 522.084C354.589 524.158 355.184 526.379 355.612 528.749C355.47 528.994 355.4 529.117 355.4 529.117C355.645 529.258 355.767 529.329 355.767 529.329C356.336 531.454 356.906 533.579 357.475 535.704C358.29 537.97 359.007 540.263 359.629 542.581C360.457 545.672 361.188 548.789 361.823 551.931C362.652 555.022 363.506 558.21 364.386 561.494C365.252 563.954 365.828 566.491 366.115 569.106C366.595 571.669 367.171 574.206 367.844 576.718L368.698 579.905C369.202 581.013 369.39 582.101 369.262 583.17C369.186 584.433 369.085 585.599 368.957 586.669C368.881 587.931 367.833 589.04 365.811 589.996ZM651.63 451.916C649.608 452.872 648.101 452.655 647.107 451.264C646.81 450.93 646.488 450.499 646.139 449.971C645.791 449.443 645.371 449.038 644.882 448.755C644.43 447.841 643.978 446.927 643.526 446.012C643.074 445.098 642.622 444.184 642.17 443.27C641.769 442.549 641.369 441.828 640.969 441.107C640.762 440.334 640.555 439.561 640.348 438.789C639.689 437.102 639.03 435.415 638.37 433.728C637.763 432.234 637.13 430.644 636.471 428.957C636.367 428.571 636.167 428.21 635.871 427.876C635.767 427.489 635.664 427.103 635.56 426.717C634.887 424.205 634.118 421.72 633.251 419.26C632.579 416.749 631.809 414.263 630.943 411.803C630.594 411.276 630.317 410.625 630.11 409.853C629.954 409.273 629.799 408.693 629.644 408.114L629.1 406.085C628.182 403.433 627.264 400.78 626.347 398.127C625.622 395.422 624.897 392.718 624.172 390.013C623.603 387.888 622.815 385.718 621.807 383.504C621.044 381.43 620.211 379.48 619.307 377.651C618.106 375.488 616.694 373.693 615.069 372.265C613.637 370.785 612.276 369.183 610.985 367.458C609.747 365.926 608.482 364.298 607.192 362.573C606.792 361.852 606.224 361.279 605.489 360.855C604.948 360.379 604.406 359.903 603.864 359.427C600.525 357.009 597.185 354.591 593.845 352.173C590.506 349.755 587.14 347.24 583.749 344.629L573.207 336.583L563.111 329.04C560.996 327.329 558.81 325.74 556.554 324.274C554.439 322.563 552.324 320.852 550.209 319.141C547.011 316.478 543.742 313.938 540.402 311.52C537.011 308.909 533.549 306.42 530.016 304.054C521.66 297.596 513.434 291.622 505.336 286.13C504.253 285.178 503.196 284.323 502.164 283.564C501.081 282.612 499.997 281.66 498.914 280.708C497.883 279.949 496.851 279.19 495.819 278.431C494.736 277.479 493.582 276.65 492.357 275.943C491.571 275.325 490.81 274.804 490.075 274.38C489.34 273.956 488.676 273.409 488.083 272.74L472.185 262.092C471.398 261.474 470.638 260.953 469.903 260.529C469.168 260.105 468.433 259.68 467.698 259.256C465.197 257.649 462.599 256.067 459.905 254.512C457.352 252.711 454.754 251.13 452.111 249.767C451.08 249.008 450.074 248.346 449.094 247.78C448.114 247.215 446.967 246.797 445.653 246.528C445.653 246.528 445.556 246.554 445.363 246.606C445.17 246.658 445.003 246.806 444.861 247.051L445.094 247.92C445.005 248.358 445.063 248.964 445.27 249.737C445.684 251.282 446.098 252.828 446.513 254.373C446.875 255.725 447.167 257.2 447.388 258.797C447.401 259.622 447.512 260.421 447.719 261.193C448.067 261.721 448.223 262.301 448.185 262.932L451.834 276.552C451.989 277.131 452.171 277.807 452.378 278.58C452.533 279.16 452.618 279.862 452.631 280.686C452.749 281.897 452.963 283.082 453.273 284.241C453.584 285.4 453.92 286.656 454.283 288.008L456.302 295.542C456.767 297.281 457.137 299.046 457.409 300.836C457.875 302.575 458.245 304.339 458.517 306.13C458.945 308.5 459.47 310.844 460.091 313.162C460.712 315.48 461.333 317.798 461.954 320.117C462.42 321.855 462.886 323.594 463.352 325.333C463.766 326.878 463.987 328.475 464.015 330.124L464.791 333.022C465.205 334.568 465.645 336.21 466.111 337.948C466.577 339.687 466.921 341.355 467.141 342.952C467.4 343.918 467.685 344.981 467.996 346.14C468.254 347.106 468.417 348.098 468.482 349.115C468.651 350.519 469.04 351.968 469.647 353.462C470.113 355.201 470.579 356.939 471.045 358.678C471.704 360.365 472.337 361.955 472.944 363.449L475.366 369.011C476.426 371.419 477.582 373.801 478.834 376.157C480.035 378.32 481.261 380.58 482.514 382.936C482.862 383.464 483.237 384.088 483.637 384.809C483.985 385.337 484.334 385.865 484.682 386.393C485.624 387.59 486.18 388.89 486.349 390.294C486.66 391.453 486.899 392.735 487.069 394.139C487.031 394.77 486.781 395.769 486.318 397.135C486.139 398.011 485.863 398.914 485.491 399.842C485.26 400.525 484.932 401.234 484.508 401.968C484.046 403.335 483.796 404.333 483.758 404.965C483.913 405.544 483.901 406.272 483.722 407.148L484.032 408.308C484.088 411.606 482.377 413.72 478.899 414.652C477.792 415.156 476.452 414.79 474.879 413.555C474.827 413.362 474.678 413.195 474.434 413.054C474.382 412.86 474.33 412.667 474.278 412.474C473.671 410.98 472.729 409.783 471.453 408.883C470.421 408.124 469.389 407.365 468.358 406.606C467.816 406.13 467.204 405.777 466.521 405.546C465.979 405.07 465.463 404.69 464.973 404.407C463.89 403.455 463.148 402.619 462.748 401.898L460.812 399.311C459.47 397.393 458.251 395.545 457.153 393.769C456.056 391.992 455.056 390.19 454.152 388.362C454.048 387.975 453.874 387.711 453.629 387.57C452.48 385.6 451.402 383.508 450.394 381.293C449.58 379.027 448.669 376.786 447.661 374.571C447.351 373.412 446.995 372.472 446.595 371.751C445.677 369.098 444.882 366.516 444.209 364.005C443.677 361.249 443.075 358.615 442.402 356.103L439.607 345.671C439.193 344.126 438.805 342.677 438.442 341.325C438.221 339.727 438.026 338.227 437.857 336.823C437.792 335.805 437.655 334.91 437.448 334.137C437.189 333.171 436.956 332.302 436.749 331.529C436.491 330.563 436.232 329.597 435.973 328.631C435.714 327.665 435.552 326.674 435.486 325.656C435.265 324.059 434.948 322.487 434.534 320.942C434.12 319.396 433.731 317.947 433.369 316.595C433.2 315.191 432.863 313.935 432.36 312.828C431.997 311.476 431.635 310.123 431.273 308.771C431.052 307.174 430.734 305.602 430.32 304.057C429.854 302.318 429.388 300.58 428.922 298.841C428.494 296.471 427.97 294.127 427.349 291.809C426.727 289.49 426.106 287.172 425.485 284.854C425.161 282.87 424.766 281.009 424.3 279.271C423.782 277.339 423.361 275.381 423.037 273.397C423.074 272.766 422.938 271.871 422.627 270.712L415.329 243.473C414.269 241.065 413.333 238.728 412.518 236.461C411.845 233.95 411.172 231.438 410.5 228.927C410.137 227.575 409.485 226.3 408.543 225.103C408.44 224.717 408.091 224.189 407.498 223.52C404.917 220.07 403.927 215.987 404.526 211.271C405.14 207.38 407.462 204.066 411.491 201.33C413.795 199.884 416.622 199.23 419.972 199.368C420.796 199.354 421.55 199.463 422.233 199.694C423.11 199.873 423.819 200.201 424.36 200.677C424.85 200.96 425.121 201.198 425.173 201.391C427.971 203.333 430.91 205.03 433.991 206.482C435.705 207.472 437.324 208.488 438.845 209.53C440.508 210.326 442.223 211.316 443.989 212.499L453.62 218.305C455.824 219.577 457.932 220.876 459.943 222.201C462.096 223.28 464.204 224.579 466.267 226.097L468.839 227.582C471.585 229.33 474.332 231.079 477.078 232.828C480.017 234.525 482.789 236.371 485.394 238.364C486.916 239.406 488.437 240.448 489.958 241.49C491.428 242.338 492.95 243.38 494.523 244.615L503.284 250.653C508.197 254.306 513.039 258.081 517.811 261.979C522.53 265.684 527.346 269.363 532.259 273.015C534.322 274.533 536.289 276.077 538.159 277.646C540.222 279.164 542.189 280.708 544.059 282.277L546.786 284.342C548.166 285.628 549.642 286.889 551.216 288.124C552.737 289.166 554.284 290.304 555.858 291.539C557.921 293.057 559.984 294.574 562.047 296.092C564.058 297.417 565.973 298.767 567.791 300.143C569.506 301.133 571.176 302.342 572.801 303.771C577.068 306.561 581.143 309.403 585.024 312.297C585.462 312.387 585.752 312.309 585.894 312.064L585.816 311.775C585.609 311.002 585.402 310.229 585.195 309.456C585.129 308.439 584.993 307.544 584.786 306.771C584.334 305.857 584.03 305.11 583.875 304.53C583.668 303.757 583.461 302.985 583.254 302.212C582.891 300.86 582.555 299.604 582.244 298.445C581.882 297.093 581.423 295.766 580.867 294.466L579.78 290.409C579.173 288.915 578.688 287.492 578.326 286.14C577.912 284.594 577.524 283.145 577.161 281.793L577.006 281.214C576.243 279.14 575.481 277.067 574.718 274.994C574.097 272.675 573.405 270.48 572.642 268.406C572.28 267.054 571.847 265.824 571.343 264.717C570.84 263.61 570.336 262.502 569.832 261.395C569.677 260.815 569.425 260.262 569.076 259.734C568.869 258.961 568.688 258.285 568.533 257.705C567.77 255.632 567.13 253.63 566.612 251.698C566.095 249.766 565.481 247.86 564.77 245.98C563.748 242.941 562.63 239.927 561.416 236.94C560.394 233.901 559.47 230.836 558.641 227.745C557.696 223.443 556.583 219.289 555.303 215.284C554.216 211.227 553.103 207.074 551.964 202.824L550.566 197.608C550.411 197.028 550.211 196.668 549.966 196.526C549.359 195.033 548.874 193.61 548.511 192.257C548.149 190.905 547.787 189.553 547.424 188.2L546.648 185.303C546.182 183.564 545.62 181.851 544.96 180.164C544.301 178.477 543.475 176.939 542.481 175.549L542.326 174.969C541.036 173.244 540.563 171.093 540.908 168.516C540.97 166.429 541.399 164.554 542.196 162.891C542.941 161.035 543.808 159.25 544.798 157.535L546.594 156.122C549.374 154.135 552.343 153.236 555.499 153.426L560.545 154.869C560.983 154.959 561.376 155.267 561.724 155.795C562.214 156.078 562.608 156.387 562.904 156.721C565.613 159.101 567.355 161.74 568.132 164.638C568.339 165.411 568.572 166.28 568.83 167.246C569.231 167.967 569.56 168.811 569.819 169.777C570.026 170.549 570.136 171.348 570.15 172.172C570.164 172.997 570.275 173.796 570.482 174.568C571.4 177.221 572.15 180.022 572.733 182.972C573.458 185.676 574.183 188.381 574.908 191.086C575.27 192.438 575.632 193.79 575.995 195.142C576.55 196.443 577.035 197.866 577.449 199.411C577.656 200.184 577.889 201.054 578.148 202.019C578.355 202.792 578.684 203.636 579.136 204.55C579.537 205.271 579.892 206.211 580.203 207.37L581.989 214.035C582.247 215.001 582.506 215.967 582.765 216.933C583.024 217.899 583.379 218.839 583.831 219.753C584.283 220.667 584.665 221.704 584.975 222.863C585.234 223.829 585.589 224.769 586.041 225.683C586.248 226.456 586.455 227.228 586.663 228.001C586.818 228.581 587.096 229.231 587.496 229.952C587.599 230.338 587.703 230.725 587.806 231.111C588.103 231.446 588.303 231.806 588.407 232.192C588.717 233.352 589.028 234.511 589.338 235.67C589.842 236.777 590.346 237.884 590.85 238.992C591.419 241.117 592.111 243.313 592.925 245.579C593.933 247.794 594.747 250.06 595.368 252.378C595.576 253.151 595.783 253.924 595.99 254.697C596.338 255.224 596.712 255.849 597.113 256.57L597.501 258.019C598.07 260.144 598.736 262.243 599.499 264.316C600.455 266.338 601.217 268.411 601.787 270.536L602.097 271.695C603.001 273.523 603.712 275.403 604.23 277.335C604.747 279.267 605.388 281.27 606.15 283.343C606.357 284.116 606.564 284.889 606.771 285.661C606.978 286.434 607.282 287.181 607.682 287.902C607.734 288.095 607.812 288.385 607.915 288.771C608.16 288.913 608.308 289.08 608.36 289.273C608.878 291.205 609.466 293.014 610.125 294.701C610.784 296.388 611.443 298.075 612.102 299.762L614.68 305.904L615.513 307.855C616.276 309.928 617.038 312.001 617.801 314.075C618.757 316.096 619.616 318.144 620.379 320.217L623.422 328.098C624.481 330.506 625.637 332.888 626.89 335.244C628.142 337.6 629.755 339.756 631.729 341.712C632.619 342.716 633.342 343.868 633.897 345.168C634.594 346.224 635.194 347.305 635.698 348.413L636.319 350.731C636.281 351.362 636.418 352.257 636.728 353.416C637.156 355.786 637.198 358.26 636.853 360.837C636.777 362.1 636.702 363.362 636.626 364.625C636.55 365.888 636.474 367.15 636.398 368.413C636.412 369.237 636.497 369.939 636.652 370.519C636.859 371.292 636.97 372.09 636.984 372.915C637.336 376.547 637.978 380.102 638.91 383.58L641.239 392.273C642.105 394.733 642.875 397.218 643.547 399.73C644.22 402.241 644.893 404.752 645.566 407.264L647.119 413.059C647.378 414.025 647.637 414.991 647.896 415.957C648.206 417.116 648.587 418.153 649.039 419.067C649.336 419.402 649.466 419.885 649.428 420.516C649.583 421.096 649.712 421.579 649.816 421.965C649.882 422.983 650.044 423.974 650.303 424.94C650.613 426.099 650.898 427.162 651.157 428.128L654.185 439.429C654.754 441.554 655.06 443.854 655.101 446.327C655.143 448.801 653.986 450.664 651.63 451.916ZM723.194 388.327C721.277 389.669 719.576 389.504 718.092 387.831C716.764 386.737 715.648 385.276 714.744 383.448C714.537 382.675 714.233 381.928 713.833 381.207C713.678 380.628 713.496 379.952 713.289 379.179C712.993 378.844 712.792 378.484 712.689 378.097C712.468 376.5 712.176 375.025 711.814 373.673C711.452 372.321 711.186 370.943 711.017 369.539C710.292 366.834 709.541 364.033 708.765 361.135C708.234 358.379 707.483 355.577 706.513 352.731C705.892 350.413 704.543 348.083 702.466 345.741C700.634 343.54 699.014 340.972 697.606 338.036C697.154 337.122 696.825 336.278 696.618 335.506C696.411 334.733 696.204 333.96 695.997 333.187C695.814 330.959 695.534 328.756 695.158 326.579C694.73 324.209 694.328 321.936 693.951 319.759C693.768 317.531 693.392 315.354 692.823 313.229C692.447 311.052 692.096 308.972 691.772 306.988C691.396 304.811 691.045 302.731 690.721 300.748C690.538 298.519 690.065 296.368 689.302 294.295C689.119 292.066 688.769 289.986 688.251 288.054C687.875 285.877 687.525 283.797 687.2 281.814C687.173 280.165 686.881 278.69 686.325 277.389C685.911 275.844 685.426 274.421 684.871 273.12C684.419 272.206 684.115 271.459 683.96 270.88C683.946 270.055 683.836 269.257 683.629 268.484C683.563 267.466 683.401 266.474 683.142 265.508C682.831 264.349 682.669 263.357 682.655 262.533L679.627 251.232C678.761 248.772 678.017 246.383 677.396 244.065C676.916 241.502 676.34 238.964 675.667 236.453C674.956 234.573 674.342 232.667 673.824 230.735C673.448 228.558 673.098 226.478 672.773 224.494C672.811 223.863 672.753 223.258 672.597 222.678C672.442 222.099 672.313 221.616 672.209 221.229L669.569 211.377C669.259 210.218 669.122 209.322 669.16 208.691L668.151 204.924C667.609 204.448 667.402 203.675 667.53 202.606C667.45 200.764 666.984 199.025 666.132 197.39C665.835 197.055 665.635 196.695 665.532 196.308C665.569 195.677 665.511 195.072 665.355 194.492C665.097 193.526 664.864 192.657 664.657 191.884C664.591 190.866 664.429 189.875 664.17 188.909C663.963 188.136 663.756 187.363 663.549 186.59C663.483 185.573 663.443 184.652 663.43 183.827L663.119 182.668C662.705 181.122 662.387 179.551 662.166 177.954C661.894 176.163 661.673 174.566 661.504 173.162L660.214 161.395C660.083 159.36 659.977 157.421 659.898 155.579C660.012 153.685 660.222 151.765 660.529 149.819C660.756 146.031 662.027 142.274 664.342 138.548C665.1 137.517 665.885 136.582 666.696 135.743C667.7 134.853 668.878 134.227 670.23 133.865C670.371 133.62 670.635 133.445 671.022 133.342C672.271 132.593 673.5 132.16 674.711 132.043C675.922 131.925 677.159 131.904 678.421 131.98C681.281 131.835 683.698 132.74 685.671 134.696C687 135.79 687.819 136.916 688.13 138.075C688.389 139.041 688.692 139.788 689.041 140.316C690.293 142.672 691.108 144.938 691.484 147.115C691.691 147.888 691.898 148.661 692.105 149.433C692.505 150.154 692.931 150.972 693.383 151.886C694.028 152.749 694.506 153.759 694.817 154.918C695.076 155.884 695.335 156.85 695.593 157.816C695.956 159.168 696.222 160.547 696.391 161.951C696.508 163.162 696.651 164.469 696.821 165.873C696.834 166.698 696.874 167.619 696.94 168.636C697.147 169.409 697.187 170.33 697.059 171.4C697.228 172.804 697.301 174.234 697.277 175.689C697.446 177.094 697.615 178.498 697.784 179.902L698.095 181.061C698.226 183.096 698.48 185.202 698.856 187.379C699.18 189.363 699.408 191.372 699.54 193.408C699.502 194.039 699.56 194.644 699.716 195.224C699.871 195.803 700 196.286 700.104 196.673C700.259 197.252 700.415 197.832 700.57 198.411C700.725 198.991 700.784 199.596 700.746 200.228C700.863 201.439 701.077 202.624 701.388 203.783C701.698 204.942 701.938 206.223 702.107 207.627C702.159 207.821 702.185 207.917 702.185 207.917C702.378 207.865 702.501 207.936 702.553 208.129C702.604 208.323 702.753 208.49 702.998 208.631C703.436 208.721 703.726 208.643 703.867 208.398C704.536 207.805 705.083 207.141 705.507 206.406C707.166 204.098 708.922 201.764 710.774 199.404C712.627 197.044 714.479 194.684 716.331 192.325C718.042 190.21 719.753 188.095 721.464 185.98C723.175 183.865 724.886 181.75 726.597 179.635C726.79 179.584 726.958 179.435 727.099 179.19C728.617 177.127 730.038 175.09 731.362 173.079C732.88 171.015 734.301 168.978 735.626 166.967C737.233 164.466 738.744 161.99 740.158 159.541C741.766 157.039 743.154 154.493 744.323 151.902C744.606 151.413 744.889 150.923 745.172 150.433C745.455 149.943 745.737 149.453 746.02 148.963L752.788 135.969C753.867 133.816 755.404 131.437 757.398 128.832C758.157 127.801 759.09 127.033 760.197 126.529C760.584 126.426 760.873 126.348 761.066 126.296C761.208 126.052 761.401 126 761.646 126.141C762.612 125.882 763.507 125.746 764.332 125.732C765.104 125.525 765.903 125.415 766.728 125.401C767.359 125.439 768.254 125.302 769.413 124.992C770.276 124.347 771.029 124.455 771.675 125.318C771.726 125.511 771.945 125.556 772.332 125.452C772.525 125.4 772.956 125.078 773.625 124.484C774.205 124.329 774.546 124.444 774.65 124.831C775.54 125.835 776.642 126.471 777.957 126.74C778.009 126.933 778.034 127.03 778.034 127.03C778.228 126.978 778.324 126.952 778.324 126.952L778.557 127.822C778.816 128.787 779.358 129.263 780.182 129.25C780.375 129.198 780.498 129.269 780.55 129.462C780.743 129.41 780.839 129.384 780.839 129.384C781.277 129.474 781.793 129.853 782.387 130.522C782.749 131.875 783.427 133.246 784.421 134.636C786.46 137.61 787.217 140.823 786.693 144.276C786.273 148.116 785.247 152.014 783.615 155.972L778.933 167.475C778.419 168.648 777.809 169.847 777.102 171.072C776.394 172.297 775.662 173.425 774.903 174.456C774.196 175.681 773.726 176.635 773.495 177.318C773.213 177.808 772.93 178.298 772.647 178.788C772.364 179.278 772.081 179.768 771.798 180.258C771.195 181.869 770.32 183.242 769.175 184.377C768.416 185.408 767.561 186.466 766.609 187.549C765.605 188.439 764.749 189.497 764.042 190.722C763.283 191.753 762.305 192.74 761.108 193.682C760.053 194.379 758.997 195.076 757.942 195.773C757.131 196.611 755.998 197.018 754.542 196.994L754.252 197.072C751.534 196.972 749.055 198.154 746.816 200.617C746.34 201.159 745.768 201.726 745.099 202.32C744.623 202.861 744.05 203.429 743.381 204.022C742.339 205.544 741.078 207.02 739.598 208.452C738.929 209.046 738.382 209.71 737.958 210.445C737.482 210.986 737.006 211.528 736.53 212.07C735.295 213.643 733.964 215.242 732.536 216.867C731.056 218.299 729.698 219.801 728.464 221.374L723.6 226.405C723.124 226.946 722.577 227.61 721.96 228.397C721.483 228.939 720.937 229.603 720.319 230.39C720.036 230.879 720.14 231.266 720.63 231.549L724.806 233.225C727.68 233.904 730.509 234.803 733.293 235.92C736.025 236.844 738.783 237.865 741.567 238.983C744.107 239.959 746.575 241.058 748.973 242.279C751.512 243.255 754.051 244.231 756.59 245.207C757.028 245.296 757.492 245.483 757.982 245.766C758.665 245.997 759.155 246.279 759.452 246.614C762.043 247.783 764.441 249.004 766.645 250.277C768.991 251.305 771.363 252.429 773.761 253.65C777.873 255.861 782.056 257.95 786.31 259.916C790.512 261.689 794.598 263.803 798.569 266.259L801.876 268.168C803.398 269.21 804.893 270.155 806.363 271.004C807.974 271.607 809.611 272.307 811.274 273.104C812.588 273.373 813.665 273.913 814.503 274.724L815.605 275.36C817.32 276.35 818.578 277.566 819.378 279.008C820.178 280.45 820.741 282.163 821.065 284.146L821.319 286.252C821.875 287.553 821.773 288.719 821.014 289.75C820.486 290.099 820.404 290.949 820.766 292.302C820.973 293.074 820.69 293.564 819.917 293.771C819.196 294.172 818.624 294.739 818.2 295.474C817.158 296.995 815.749 298.305 813.972 299.402L811.887 300.892C811.218 301.486 810.664 301.738 810.226 301.648C809.35 301.469 808.377 301.315 807.307 301.188C806.238 301.06 805.194 301.029 804.177 301.095C803.738 301.005 803.029 300.678 802.05 300.112C800.825 299.405 799.6 298.698 798.375 297.991C797.099 297.09 795.822 296.19 794.546 295.29C792.78 294.107 790.917 292.949 788.957 291.818C786.997 290.687 785.064 289.652 783.156 288.714L771.786 283.374C769.092 281.819 766.353 280.482 763.569 279.365C760.785 278.247 757.878 277.059 754.849 275.8C754.359 275.517 753.386 275.364 751.93 275.34C751.351 275.495 750.745 275.554 750.114 275.516C749.431 275.285 748.774 275.15 748.142 275.112C746.635 274.895 745.127 274.678 743.62 274.461C742.305 274.192 740.868 273.852 739.309 273.442C737.943 272.979 736.577 272.517 735.211 272.055C733.844 271.593 732.478 271.131 731.112 270.669C729.449 269.872 727.619 269.223 725.622 268.723C723.765 267.978 721.935 267.33 720.131 266.778C719.886 266.637 719.57 266.618 719.184 266.721C718.991 266.773 718.675 266.754 718.237 266.664C717.361 266.485 716.859 266.93 716.731 268C716.448 268.49 716.269 269.366 716.193 270.628L716.566 275.498C716.839 277.288 717.041 279.201 717.172 281.237C717.445 283.027 717.718 284.817 717.99 286.608C718.159 288.012 718.329 289.416 718.498 290.82C718.615 292.031 718.733 293.242 718.85 294.453C718.967 295.664 719.085 296.874 719.202 298.085C719.32 299.296 719.34 300.533 719.265 301.796C719.278 302.62 719.415 303.515 719.674 304.481C719.881 305.254 720.114 306.123 720.372 307.089L722.935 316.652C723.556 318.97 723.984 321.34 724.219 323.762C724.402 325.99 724.585 328.219 724.768 330.448C725.224 334.467 724.629 338.042 722.983 341.175C722.149 343.469 721.778 345.95 721.872 348.616C722.031 352.301 722.434 356.126 723.083 360.094C723.097 360.918 723.208 361.717 723.415 362.49C723.674 363.455 723.836 364.447 723.901 365.465C723.915 366.289 724.052 367.185 724.31 368.151C724.621 369.31 724.809 370.398 724.875 371.416C725.096 373.013 725.317 374.61 725.538 376.208C726.003 377.946 726.25 379.64 726.278 381.289C726.447 382.693 726.204 384.104 725.549 385.522C725.035 386.695 724.25 387.63 723.194 388.327Z" fill="#D50073"/>
</g>
</g>
<defs>
<filter id="filter0_d_3762_68" x="11.4116" y="76.1462" width="880.546" height="599.096" filterUnits="userSpaceOnUse" color-interpolation-filters="sRGB">
<feFlood flood-opacity="0" result="BackgroundImageFix"/>
<feColorMatrix in="SourceAlpha" type="matrix" values="0 0 0 0 0 0 0 0 0 0 0 0 0 0 0 0 0 0 127 0" result="hardAlpha"/>
<feOffset dy="4"/>
<feGaussianBlur stdDeviation="10"/>
<feComposite in2="hardAlpha" operator="out"/>
<feColorMatrix type="matrix" values="0 0 0 0 0 0 0 0 0 0 0 0 0 0 0 0 0 0 1 0"/>
<feBlend mode="normal" in2="BackgroundImageFix" result="effect1_dropShadow_3762_68"/>
<feBlend mode="normal" in="SourceGraphic" in2="effect1_dropShadow_3762_68" result="shape"/>
</filter>
<filter id="filter1_d_3762_68" x="11.4116" y="76.1462" width="871.544" height="598.22" filterUnits="userSpaceOnUse" color-interpolation-filters="sRGB">
<feFlood flood-opacity="0" result="BackgroundImageFix"/>
<feColorMatrix in="SourceAlpha" type="matrix" values="0 0 0 0 0 0 0 0 0 0 0 0 0 0 0 0 0 0 127 0" result="hardAlpha"/>
<feOffset dy="4"/>
<feGaussianBlur stdDeviation="10"/>
<feComposite in2="hardAlpha" operator="out"/>
<feColorMatrix type="matrix" values="0 0 0 0 1 0 0 0 0 1 0 0 0 0 1 0 0 0 0.5 0"/>
<feBlend mode="normal" in2="BackgroundImageFix" result="effect1_dropShadow_3762_68"/>
<feBlend mode="normal" in="SourceGraphic" in2="effect1_dropShadow_3762_68" result="shape"/>
</filter>
<filter id="filter2_d_3762_68" x="35.4136" y="92.0217" width="841.544" height="568.22" filterUnits="userSpaceOnUse" color-interpolation-filters="sRGB">
<feFlood flood-opacity="0" result="BackgroundImageFix"/>
<feColorMatrix in="SourceAlpha" type="matrix" values="0 0 0 0 0 0 0 0 0 0 0 0 0 0 0 0 0 0 127 0" result="hardAlpha"/>
<feOffset dy="4"/>
<feGaussianBlur stdDeviation="2.5"/>
<feComposite in2="hardAlpha" operator="out"/>
<feColorMatrix type="matrix" values="0 0 0 0 0 0 0 0 0 0 0 0 0 0 0 0 0 0 0.5 0"/>
<feBlend mode="normal" in2="BackgroundImageFix" result="effect1_dropShadow_3762_68"/>
<feBlend mode="normal" in="SourceGraphic" in2="effect1_dropShadow_3762_68" result="shape"/>
</filter>
</defs>
</svg>
