<svg xmlns="http://www.w3.org/2000/svg" width="16" height="207" viewBox="0 0 16 207" fill="none">
<path d="M9.33333 71.2H11.2381L12 68H9.33333V66.4C9.33333 65.576 9.33333 64.8 10.8571 64.8H12V62.112C11.7516 62.0776 10.8137 62 9.82324 62C7.75467 62 6.28571 63.3256 6.28571 65.76V68H4V71.2H6.28571V78H9.33333V71.2Z" fill="white"/>
<path d="M16 195.529C15.4111 195.797 14.7763 195.973 14.1185 196.057C14.7916 195.652 15.3117 195.009 15.5564 194.237C14.9216 194.619 14.218 194.887 13.4761 195.04C12.8719 194.382 12.0229 194 11.0593 194C9.26195 194 7.7935 195.468 7.7935 197.281C7.7935 197.541 7.82409 197.793 7.87763 198.03C5.15488 197.892 2.7304 196.585 1.11663 194.604C0.833652 195.086 0.67304 195.652 0.67304 196.248C0.67304 197.388 1.24665 198.397 2.13384 198.971C1.59082 198.971 1.08604 198.818 0.642448 198.588V198.611C0.642448 200.202 1.77438 201.532 3.27342 201.831C2.79223 201.963 2.28684 201.981 1.79732 201.884C2.00505 202.536 2.41188 203.106 2.96062 203.515C3.50937 203.924 4.17243 204.15 4.8566 204.163C3.69688 205.081 2.25928 205.577 0.780115 205.57C0.520077 205.57 0.260038 205.555 0 205.524C1.45315 206.457 3.18164 207 5.03251 207C11.0593 207 14.3709 201.999 14.3709 197.663C14.3709 197.518 14.3709 197.38 14.3633 197.235C15.0057 196.776 15.5564 196.195 16 195.529Z" fill="white"/>
<path d="M13.538 0.997273C12.5247 0.532395 11.4275 0.194983 10.2846 3.44896e-05C10.2746 -0.00028088 10.2646 0.0015697 10.2554 0.00545614C10.2462 0.00934258 10.2379 0.0151705 10.2313 0.0225288C10.0941 0.269964 9.93411 0.592379 9.82744 0.839815C8.61522 0.659862 7.38242 0.659862 6.1702 0.839815C6.06353 0.584881 5.90353 0.269964 5.75876 0.0225288C5.75114 0.00753268 5.72828 3.44896e-05 5.70542 3.44896e-05C4.56254 0.194983 3.47298 0.532395 2.452 0.997273C2.44438 0.997273 2.43676 1.00477 2.42914 1.01227C0.356706 4.06397 -0.214738 7.03319 0.0671745 9.97242C0.0671745 9.98742 0.0747937 10.0024 0.0900322 10.0099C1.4615 10.9997 2.77963 11.5995 4.08252 11.9969C4.10538 12.0044 4.12824 11.9969 4.13586 11.9819C4.44063 11.5695 4.71492 11.1346 4.95112 10.6772C4.96636 10.6472 4.95112 10.6173 4.92064 10.6098C4.48634 10.4448 4.0749 10.2499 3.67108 10.0249C3.64061 10.0099 3.64061 9.96493 3.66346 9.94243C3.74728 9.88245 3.83109 9.81497 3.9149 9.75498C3.93014 9.73998 3.953 9.73998 3.96823 9.74748C6.58926 10.9247 9.416 10.9247 12.0065 9.74748C12.0218 9.73998 12.0446 9.73998 12.0599 9.75498C12.1437 9.82246 12.2275 9.88245 12.3113 9.94993C12.3418 9.97242 12.3418 10.0174 12.3037 10.0324C11.9075 10.2648 11.4884 10.4523 11.0541 10.6173C11.0237 10.6248 11.016 10.6622 11.0237 10.6847C11.2675 11.1421 11.5418 11.577 11.8389 11.9894C11.8618 11.9969 11.8846 12.0044 11.9075 11.9969C13.218 11.5995 14.5361 10.9997 15.9076 10.0099C15.9228 10.0024 15.9305 9.98742 15.9305 9.97242C16.2657 6.57581 15.3743 3.62908 13.5685 1.01227C13.5609 1.00477 13.5533 0.997273 13.538 0.997273ZM5.34732 8.18039C4.56254 8.18039 3.90728 7.46808 3.90728 6.59081C3.90728 5.71354 4.5473 5.00123 5.34732 5.00123C6.15496 5.00123 6.79498 5.72104 6.78736 6.59081C6.78736 7.46808 6.14734 8.18039 5.34732 8.18039ZM10.6579 8.18039C9.87316 8.18039 9.2179 7.46808 9.2179 6.59081C9.2179 5.71354 9.85792 5.00123 10.6579 5.00123C11.4656 5.00123 12.1056 5.72104 12.098 6.59081C12.098 7.46808 11.4656 8.18039 10.6579 8.18039Z" fill="white"/>
<path fill-rule="evenodd" clip-rule="evenodd" d="M3.42885 128C2.51969 128 1.64775 128.361 1.00475 129.004C0.361756 129.647 0.00034914 130.518 0 131.428V140.571C0 141.481 0.361253 142.353 1.00429 142.996C1.64732 143.639 2.51947 144 3.42885 144H12.5725C13.4816 144 14.3534 143.638 14.9962 142.995C15.6389 142.352 16 141.48 16 140.571V131.428C15.9997 130.519 15.6384 129.647 14.9957 129.004C14.353 128.362 13.4814 128 12.5725 128H3.42885ZM13.5587 131.433C13.5587 131.695 13.4547 131.946 13.2695 132.131C13.0843 132.316 12.8331 132.42 12.5711 132.42C12.3092 132.42 12.058 132.316 11.8728 132.131C11.6876 131.946 11.5836 131.695 11.5836 131.433C11.5836 131.171 11.6876 130.92 11.8728 130.734C12.058 130.549 12.3092 130.445 12.5711 130.445C12.8331 130.445 13.0843 130.549 13.2695 130.734C13.4547 130.92 13.5587 131.171 13.5587 131.433ZM8.00197 133.26C7.27558 133.26 6.57894 133.549 6.0653 134.063C5.55166 134.576 5.26311 135.273 5.26311 135.999C5.26311 136.726 5.55166 137.422 6.0653 137.936C6.57894 138.45 7.27558 138.738 8.00197 138.738C8.72837 138.738 9.42501 138.45 9.93865 137.936C10.4523 137.422 10.7408 136.726 10.7408 135.999C10.7408 135.273 10.4523 134.576 9.93865 134.063C9.42501 133.549 8.72837 133.26 8.00197 133.26ZM3.94503 135.999C3.94503 134.924 4.37231 133.892 5.13289 133.132C5.89347 132.371 6.92504 131.944 8.00066 131.944C9.07628 131.944 10.1078 132.371 10.8684 133.132C11.629 133.892 12.0563 134.924 12.0563 135.999C12.0563 137.075 11.629 138.107 10.8684 138.867C10.1078 139.628 9.07628 140.055 8.00066 140.055C6.92504 140.055 5.89347 139.628 5.13289 138.867C4.37231 138.107 3.94503 137.075 3.94503 135.999Z" fill="white"/>
</svg>