<svg xmlns="http://www.w3.org/2000/svg" width="30" height="29" viewBox="0 0 30 29" fill="none">
  <path d="M15 0.740234C6.71578 0.740234 0 7.03854 0 14.8075C0 22.5771 6.7159 28.8748 15 28.8748C23.2848 28.8748 30 22.5771 30 14.8075C30 7.03909 23.2848 0.741004 14.9998 0.741004L15 0.740234ZM21.8788 21.0295C21.6101 21.4427 21.0333 21.5737 20.5927 21.32C17.0708 19.3026 12.6374 18.8456 7.41609 19.9644C7.17431 20.016 6.92056 19.9755 6.71064 19.8517C6.50073 19.7279 6.35184 19.531 6.29672 19.3042C6.26927 19.192 6.26569 19.0758 6.28618 18.9623C6.30668 18.8487 6.35084 18.7401 6.41615 18.6426C6.48145 18.5451 6.56662 18.4606 6.66678 18.394C6.76694 18.3273 6.88012 18.2799 6.99984 18.2544C12.7139 17.0301 17.615 17.5572 21.5689 19.8233C22.0096 20.077 22.1493 20.6162 21.8788 21.0295ZM23.7148 17.1991C23.3761 17.7151 22.6561 17.8781 22.1063 17.5606C18.0743 15.2364 11.9282 14.5632 7.15922 15.9208C6.5407 16.096 5.8875 15.7692 5.69977 15.1901C5.51344 14.6101 5.86219 13.9986 6.47965 13.8223C11.9271 12.272 18.6994 13.023 23.3297 15.6914C23.8795 16.009 24.0533 16.6841 23.7148 17.1991ZM23.8724 13.2105C19.0379 10.5175 11.0618 10.2697 6.44613 11.5837C5.70492 11.7945 4.92105 11.402 4.69652 10.7069C4.47188 10.0115 4.88988 9.27689 5.63168 9.06555C10.9301 7.55705 19.7384 7.84862 25.3042 10.9474C25.9724 11.3184 26.1908 12.126 25.795 12.7503C25.401 13.3756 24.5375 13.5817 23.8731 13.2105H23.8724Z" fill="#1ED760"/>
</svg>