<svg width="418" height="418" viewBox="0 0 418 418" fill="none" xmlns="http://www.w3.org/2000/svg">
<rect x="-13.1716" y="209" width="314.198" height="314.198" rx="38" transform="rotate(-45 -13.1716 209)" fill="#FF406E" stroke="white" stroke-width="4"/>
<mask id="path-2-outside-1_3698_2" maskUnits="userSpaceOnUse" x="56.8545" y="162.926" width="303" height="92" fill="black">
<rect fill="white" x="56.8545" y="162.926" width="303" height="92"/>
<path d="M130.18 166.926C132.775 166.926 134.921 167.774 136.618 169.471C138.315 171.168 139.164 173.364 139.164 176.059V239.396C139.164 241.991 138.315 244.187 136.618 245.984C134.921 247.681 132.775 248.529 130.18 248.529C127.585 248.529 125.438 247.681 123.741 245.984C122.045 244.187 121.196 241.991 121.196 239.396V232.059L124.49 233.406C124.49 234.704 123.791 236.301 122.394 238.198C120.996 239.994 119.1 241.791 116.704 243.588C114.308 245.385 111.464 246.932 108.169 248.23C104.975 249.428 101.481 250.026 97.6883 250.026C90.8007 250.026 84.5619 248.28 78.9719 244.786C73.382 241.192 68.94 236.301 65.6459 230.112C62.4516 223.824 60.8545 216.636 60.8545 208.551C60.8545 200.366 62.4516 193.179 65.6459 186.99C68.94 180.701 73.3321 175.81 78.8222 172.316C84.3123 168.723 90.4014 166.926 97.0894 166.926C101.382 166.926 105.325 167.575 108.918 168.872C112.512 170.17 115.606 171.817 118.201 173.813C120.897 175.81 122.943 177.856 124.34 179.952C125.838 181.949 126.586 183.646 126.586 185.043L121.196 186.99V176.059C121.196 173.464 122.045 171.318 123.741 169.621C125.438 167.824 127.585 166.926 130.18 166.926ZM99.9343 233.556C104.326 233.556 108.169 232.458 111.464 230.262C114.758 228.066 117.303 225.071 119.1 221.278C120.996 217.485 121.945 213.243 121.945 208.551C121.945 203.76 120.996 199.467 119.1 195.674C117.303 191.881 114.758 188.886 111.464 186.69C108.169 184.494 104.326 183.396 99.9343 183.396C95.642 183.396 91.8488 184.494 88.5547 186.69C85.2606 188.886 82.6653 191.881 80.7687 195.674C78.9719 199.467 78.0736 203.76 78.0736 208.551C78.0736 213.243 78.9719 217.485 80.7687 221.278C82.6653 225.071 85.2606 228.066 88.5547 230.262C91.8488 232.458 95.642 233.556 99.9343 233.556Z"/>
<path d="M194.254 166.926C199.944 166.926 204.885 167.525 209.078 168.723C213.37 169.92 216.664 171.617 218.96 173.813C221.356 175.91 222.553 178.455 222.553 181.45C222.553 183.446 221.954 185.343 220.757 187.139C219.559 188.836 217.812 189.685 215.516 189.685C213.919 189.685 212.571 189.485 211.473 189.086C210.475 188.587 209.577 187.988 208.778 187.289C207.98 186.59 207.031 185.942 205.933 185.343C204.935 184.744 203.388 184.295 201.292 183.995C199.295 183.596 197.798 183.396 196.8 183.396C191.709 183.396 187.367 184.494 183.773 186.69C180.279 188.886 177.584 191.881 175.688 195.674C173.791 199.367 172.843 203.66 172.843 208.551C172.843 213.342 173.791 217.635 175.688 221.428C177.684 225.121 180.379 228.066 183.773 230.262C187.267 232.458 191.26 233.556 195.752 233.556C198.247 233.556 200.393 233.406 202.19 233.107C203.987 232.807 205.484 232.358 206.682 231.759C208.079 230.961 209.327 230.112 210.425 229.214C211.523 228.315 213.17 227.866 215.366 227.866C217.962 227.866 219.958 228.715 221.356 230.412C222.753 232.009 223.452 234.005 223.452 236.401C223.452 238.896 222.054 241.192 219.259 243.289C216.464 245.285 212.771 246.932 208.179 248.23C203.687 249.428 198.796 250.026 193.506 250.026C185.62 250.026 178.782 248.23 172.992 244.636C167.203 240.943 162.711 235.952 159.517 229.663C156.422 223.374 154.875 216.337 154.875 208.551C154.875 200.366 156.522 193.179 159.816 186.99C163.21 180.701 167.852 175.81 173.741 172.316C179.73 168.723 186.568 166.926 194.254 166.926Z"/>
<path d="M278.483 166.926C286.468 166.926 292.358 168.872 296.151 172.765C299.944 176.558 302.44 181.5 303.637 187.589L301.092 186.241L302.29 183.845C303.488 181.55 305.334 179.104 307.83 176.509C310.325 173.813 313.32 171.567 316.814 169.771C320.407 167.874 324.4 166.926 328.792 166.926C335.979 166.926 341.419 168.473 345.113 171.567C348.906 174.662 351.501 178.804 352.899 183.995C354.296 189.086 354.995 194.776 354.995 201.064V239.396C354.995 241.991 354.147 244.187 352.45 245.984C350.753 247.681 348.607 248.529 346.011 248.529C343.416 248.529 341.27 247.681 339.573 245.984C337.876 244.187 337.027 241.991 337.027 239.396V201.064C337.027 197.77 336.628 194.826 335.83 192.23C335.031 189.535 333.584 187.389 331.487 185.792C329.391 184.195 326.396 183.396 322.503 183.396C318.71 183.396 315.466 184.195 312.771 185.792C310.076 187.389 308.03 189.535 306.632 192.23C305.334 194.826 304.686 197.77 304.686 201.064V239.396C304.686 241.991 303.837 244.187 302.14 245.984C300.443 247.681 298.297 248.529 295.702 248.529C293.106 248.529 290.96 247.681 289.263 245.984C287.566 244.187 286.718 241.991 286.718 239.396V201.064C286.718 197.77 286.318 194.826 285.52 192.23C284.721 189.535 283.274 187.389 281.178 185.792C279.082 184.195 276.087 183.396 272.194 183.396C268.401 183.396 265.157 184.195 262.461 185.792C259.766 187.389 257.72 189.535 256.322 192.23C255.025 194.826 254.376 197.77 254.376 201.064V239.396C254.376 241.991 253.527 244.187 251.83 245.984C250.134 247.681 247.987 248.529 245.392 248.529C242.797 248.529 240.651 247.681 238.954 245.984C237.257 244.187 236.408 241.991 236.408 239.396V177.557C236.408 174.961 237.257 172.815 238.954 171.118C240.651 169.321 242.797 168.423 245.392 168.423C247.987 168.423 250.134 169.321 251.83 171.118C253.527 172.815 254.376 174.961 254.376 177.557V183.995L252.13 183.546C253.028 181.849 254.276 180.052 255.873 178.156C257.47 176.159 259.417 174.313 261.713 172.616C264.009 170.919 266.554 169.571 269.349 168.573C272.144 167.475 275.189 166.926 278.483 166.926Z"/>
</mask>
<path d="M130.18 166.926C132.775 166.926 134.921 167.774 136.618 169.471C138.315 171.168 139.164 173.364 139.164 176.059V239.396C139.164 241.991 138.315 244.187 136.618 245.984C134.921 247.681 132.775 248.529 130.18 248.529C127.585 248.529 125.438 247.681 123.741 245.984C122.045 244.187 121.196 241.991 121.196 239.396V232.059L124.49 233.406C124.49 234.704 123.791 236.301 122.394 238.198C120.996 239.994 119.1 241.791 116.704 243.588C114.308 245.385 111.464 246.932 108.169 248.23C104.975 249.428 101.481 250.026 97.6883 250.026C90.8007 250.026 84.5619 248.28 78.9719 244.786C73.382 241.192 68.94 236.301 65.6459 230.112C62.4516 223.824 60.8545 216.636 60.8545 208.551C60.8545 200.366 62.4516 193.179 65.6459 186.99C68.94 180.701 73.3321 175.81 78.8222 172.316C84.3123 168.723 90.4014 166.926 97.0894 166.926C101.382 166.926 105.325 167.575 108.918 168.872C112.512 170.17 115.606 171.817 118.201 173.813C120.897 175.81 122.943 177.856 124.34 179.952C125.838 181.949 126.586 183.646 126.586 185.043L121.196 186.99V176.059C121.196 173.464 122.045 171.318 123.741 169.621C125.438 167.824 127.585 166.926 130.18 166.926ZM99.9343 233.556C104.326 233.556 108.169 232.458 111.464 230.262C114.758 228.066 117.303 225.071 119.1 221.278C120.996 217.485 121.945 213.243 121.945 208.551C121.945 203.76 120.996 199.467 119.1 195.674C117.303 191.881 114.758 188.886 111.464 186.69C108.169 184.494 104.326 183.396 99.9343 183.396C95.642 183.396 91.8488 184.494 88.5547 186.69C85.2606 188.886 82.6653 191.881 80.7687 195.674C78.9719 199.467 78.0736 203.76 78.0736 208.551C78.0736 213.243 78.9719 217.485 80.7687 221.278C82.6653 225.071 85.2606 228.066 88.5547 230.262C91.8488 232.458 95.642 233.556 99.9343 233.556Z" fill="white"/>
<path d="M194.254 166.926C199.944 166.926 204.885 167.525 209.078 168.723C213.37 169.92 216.664 171.617 218.96 173.813C221.356 175.91 222.553 178.455 222.553 181.45C222.553 183.446 221.954 185.343 220.757 187.139C219.559 188.836 217.812 189.685 215.516 189.685C213.919 189.685 212.571 189.485 211.473 189.086C210.475 188.587 209.577 187.988 208.778 187.289C207.98 186.59 207.031 185.942 205.933 185.343C204.935 184.744 203.388 184.295 201.292 183.995C199.295 183.596 197.798 183.396 196.8 183.396C191.709 183.396 187.367 184.494 183.773 186.69C180.279 188.886 177.584 191.881 175.688 195.674C173.791 199.367 172.843 203.66 172.843 208.551C172.843 213.342 173.791 217.635 175.688 221.428C177.684 225.121 180.379 228.066 183.773 230.262C187.267 232.458 191.26 233.556 195.752 233.556C198.247 233.556 200.393 233.406 202.19 233.107C203.987 232.807 205.484 232.358 206.682 231.759C208.079 230.961 209.327 230.112 210.425 229.214C211.523 228.315 213.17 227.866 215.366 227.866C217.962 227.866 219.958 228.715 221.356 230.412C222.753 232.009 223.452 234.005 223.452 236.401C223.452 238.896 222.054 241.192 219.259 243.289C216.464 245.285 212.771 246.932 208.179 248.23C203.687 249.428 198.796 250.026 193.506 250.026C185.62 250.026 178.782 248.23 172.992 244.636C167.203 240.943 162.711 235.952 159.517 229.663C156.422 223.374 154.875 216.337 154.875 208.551C154.875 200.366 156.522 193.179 159.816 186.99C163.21 180.701 167.852 175.81 173.741 172.316C179.73 168.723 186.568 166.926 194.254 166.926Z" fill="white"/>
<path d="M278.483 166.926C286.468 166.926 292.358 168.872 296.151 172.765C299.944 176.558 302.44 181.5 303.637 187.589L301.092 186.241L302.29 183.845C303.488 181.55 305.334 179.104 307.83 176.509C310.325 173.813 313.32 171.567 316.814 169.771C320.407 167.874 324.4 166.926 328.792 166.926C335.979 166.926 341.419 168.473 345.113 171.567C348.906 174.662 351.501 178.804 352.899 183.995C354.296 189.086 354.995 194.776 354.995 201.064V239.396C354.995 241.991 354.147 244.187 352.45 245.984C350.753 247.681 348.607 248.529 346.011 248.529C343.416 248.529 341.27 247.681 339.573 245.984C337.876 244.187 337.027 241.991 337.027 239.396V201.064C337.027 197.77 336.628 194.826 335.83 192.23C335.031 189.535 333.584 187.389 331.487 185.792C329.391 184.195 326.396 183.396 322.503 183.396C318.71 183.396 315.466 184.195 312.771 185.792C310.076 187.389 308.03 189.535 306.632 192.23C305.334 194.826 304.686 197.77 304.686 201.064V239.396C304.686 241.991 303.837 244.187 302.14 245.984C300.443 247.681 298.297 248.529 295.702 248.529C293.106 248.529 290.96 247.681 289.263 245.984C287.566 244.187 286.718 241.991 286.718 239.396V201.064C286.718 197.77 286.318 194.826 285.52 192.23C284.721 189.535 283.274 187.389 281.178 185.792C279.082 184.195 276.087 183.396 272.194 183.396C268.401 183.396 265.157 184.195 262.461 185.792C259.766 187.389 257.72 189.535 256.322 192.23C255.025 194.826 254.376 197.77 254.376 201.064V239.396C254.376 241.991 253.527 244.187 251.83 245.984C250.134 247.681 247.987 248.529 245.392 248.529C242.797 248.529 240.651 247.681 238.954 245.984C237.257 244.187 236.408 241.991 236.408 239.396V177.557C236.408 174.961 237.257 172.815 238.954 171.118C240.651 169.321 242.797 168.423 245.392 168.423C247.987 168.423 250.134 169.321 251.83 171.118C253.527 172.815 254.376 174.961 254.376 177.557V183.995L252.13 183.546C253.028 181.849 254.276 180.052 255.873 178.156C257.47 176.159 259.417 174.313 261.713 172.616C264.009 170.919 266.554 169.571 269.349 168.573C272.144 167.475 275.189 166.926 278.483 166.926Z" fill="white"/>
<path d="M130.18 166.926C132.775 166.926 134.921 167.774 136.618 169.471C138.315 171.168 139.164 173.364 139.164 176.059V239.396C139.164 241.991 138.315 244.187 136.618 245.984C134.921 247.681 132.775 248.529 130.18 248.529C127.585 248.529 125.438 247.681 123.741 245.984C122.045 244.187 121.196 241.991 121.196 239.396V232.059L124.49 233.406C124.49 234.704 123.791 236.301 122.394 238.198C120.996 239.994 119.1 241.791 116.704 243.588C114.308 245.385 111.464 246.932 108.169 248.23C104.975 249.428 101.481 250.026 97.6883 250.026C90.8007 250.026 84.5619 248.28 78.9719 244.786C73.382 241.192 68.94 236.301 65.6459 230.112C62.4516 223.824 60.8545 216.636 60.8545 208.551C60.8545 200.366 62.4516 193.179 65.6459 186.99C68.94 180.701 73.3321 175.81 78.8222 172.316C84.3123 168.723 90.4014 166.926 97.0894 166.926C101.382 166.926 105.325 167.575 108.918 168.872C112.512 170.17 115.606 171.817 118.201 173.813C120.897 175.81 122.943 177.856 124.34 179.952C125.838 181.949 126.586 183.646 126.586 185.043L121.196 186.99V176.059C121.196 173.464 122.045 171.318 123.741 169.621C125.438 167.824 127.585 166.926 130.18 166.926ZM99.9343 233.556C104.326 233.556 108.169 232.458 111.464 230.262C114.758 228.066 117.303 225.071 119.1 221.278C120.996 217.485 121.945 213.243 121.945 208.551C121.945 203.76 120.996 199.467 119.1 195.674C117.303 191.881 114.758 188.886 111.464 186.69C108.169 184.494 104.326 183.396 99.9343 183.396C95.642 183.396 91.8488 184.494 88.5547 186.69C85.2606 188.886 82.6653 191.881 80.7687 195.674C78.9719 199.467 78.0736 203.76 78.0736 208.551C78.0736 213.243 78.9719 217.485 80.7687 221.278C82.6653 225.071 85.2606 228.066 88.5547 230.262C91.8488 232.458 95.642 233.556 99.9343 233.556Z" stroke="white" stroke-width="8" mask="url(#path-2-outside-1_3698_2)"/>
<path d="M194.254 166.926C199.944 166.926 204.885 167.525 209.078 168.723C213.37 169.92 216.664 171.617 218.96 173.813C221.356 175.91 222.553 178.455 222.553 181.45C222.553 183.446 221.954 185.343 220.757 187.139C219.559 188.836 217.812 189.685 215.516 189.685C213.919 189.685 212.571 189.485 211.473 189.086C210.475 188.587 209.577 187.988 208.778 187.289C207.98 186.59 207.031 185.942 205.933 185.343C204.935 184.744 203.388 184.295 201.292 183.995C199.295 183.596 197.798 183.396 196.8 183.396C191.709 183.396 187.367 184.494 183.773 186.69C180.279 188.886 177.584 191.881 175.688 195.674C173.791 199.367 172.843 203.66 172.843 208.551C172.843 213.342 173.791 217.635 175.688 221.428C177.684 225.121 180.379 228.066 183.773 230.262C187.267 232.458 191.26 233.556 195.752 233.556C198.247 233.556 200.393 233.406 202.19 233.107C203.987 232.807 205.484 232.358 206.682 231.759C208.079 230.961 209.327 230.112 210.425 229.214C211.523 228.315 213.17 227.866 215.366 227.866C217.962 227.866 219.958 228.715 221.356 230.412C222.753 232.009 223.452 234.005 223.452 236.401C223.452 238.896 222.054 241.192 219.259 243.289C216.464 245.285 212.771 246.932 208.179 248.23C203.687 249.428 198.796 250.026 193.506 250.026C185.62 250.026 178.782 248.23 172.992 244.636C167.203 240.943 162.711 235.952 159.517 229.663C156.422 223.374 154.875 216.337 154.875 208.551C154.875 200.366 156.522 193.179 159.816 186.99C163.21 180.701 167.852 175.81 173.741 172.316C179.73 168.723 186.568 166.926 194.254 166.926Z" stroke="white" stroke-width="8" mask="url(#path-2-outside-1_3698_2)"/>
<path d="M278.483 166.926C286.468 166.926 292.358 168.872 296.151 172.765C299.944 176.558 302.44 181.5 303.637 187.589L301.092 186.241L302.29 183.845C303.488 181.55 305.334 179.104 307.83 176.509C310.325 173.813 313.32 171.567 316.814 169.771C320.407 167.874 324.4 166.926 328.792 166.926C335.979 166.926 341.419 168.473 345.113 171.567C348.906 174.662 351.501 178.804 352.899 183.995C354.296 189.086 354.995 194.776 354.995 201.064V239.396C354.995 241.991 354.147 244.187 352.45 245.984C350.753 247.681 348.607 248.529 346.011 248.529C343.416 248.529 341.27 247.681 339.573 245.984C337.876 244.187 337.027 241.991 337.027 239.396V201.064C337.027 197.77 336.628 194.826 335.83 192.23C335.031 189.535 333.584 187.389 331.487 185.792C329.391 184.195 326.396 183.396 322.503 183.396C318.71 183.396 315.466 184.195 312.771 185.792C310.076 187.389 308.03 189.535 306.632 192.23C305.334 194.826 304.686 197.77 304.686 201.064V239.396C304.686 241.991 303.837 244.187 302.14 245.984C300.443 247.681 298.297 248.529 295.702 248.529C293.106 248.529 290.96 247.681 289.263 245.984C287.566 244.187 286.718 241.991 286.718 239.396V201.064C286.718 197.77 286.318 194.826 285.52 192.23C284.721 189.535 283.274 187.389 281.178 185.792C279.082 184.195 276.087 183.396 272.194 183.396C268.401 183.396 265.157 184.195 262.461 185.792C259.766 187.389 257.72 189.535 256.322 192.23C255.025 194.826 254.376 197.77 254.376 201.064V239.396C254.376 241.991 253.527 244.187 251.83 245.984C250.134 247.681 247.987 248.529 245.392 248.529C242.797 248.529 240.651 247.681 238.954 245.984C237.257 244.187 236.408 241.991 236.408 239.396V177.557C236.408 174.961 237.257 172.815 238.954 171.118C240.651 169.321 242.797 168.423 245.392 168.423C247.987 168.423 250.134 169.321 251.83 171.118C253.527 172.815 254.376 174.961 254.376 177.557V183.995L252.13 183.546C253.028 181.849 254.276 180.052 255.873 178.156C257.47 176.159 259.417 174.313 261.713 172.616C264.009 170.919 266.554 169.571 269.349 168.573C272.144 167.475 275.189 166.926 278.483 166.926Z" stroke="white" stroke-width="8" mask="url(#path-2-outside-1_3698_2)"/>
</svg>
