<svg width="307" height="307" viewBox="0 0 307 307" fill="none" xmlns="http://www.w3.org/2000/svg">
<rect x="0.159393" y="153.783" width="216.637" height="216.637" rx="36.1062" transform="rotate(-45 0.159393 153.783)" fill="#FF406E"/>
<mask id="mask0_18_29" style="mask-type:alpha" maskUnits="userSpaceOnUse" x="62" y="63" width="182" height="181">
<path d="M62.984 63.4219H243.515V243.953H62.984V63.4219Z" fill="#D9D9D9"/>
</mask>
<g mask="url(#mask0_18_29)">
<path d="M168.293 221.386C166.162 221.386 164.377 220.664 162.938 219.22C161.493 217.781 160.771 215.995 160.771 213.864C160.771 211.733 161.493 209.948 162.938 208.508C164.377 207.064 166.162 206.342 168.293 206.342C174.186 206.342 179.419 205.184 183.992 202.867C188.571 200.545 190.86 197.942 190.86 195.059C190.86 193.304 190.045 191.674 188.415 190.169C187.804 189.605 187.104 189.058 186.316 188.529C184.202 187.109 183.595 184.083 185.395 182.282L190.756 176.921C191.924 175.754 193.746 175.511 195.1 176.454C198.026 178.492 200.436 180.807 202.331 183.4C204.713 186.659 205.904 190.546 205.904 195.059C205.904 203.333 201.955 209.79 194.057 214.428C186.158 219.067 177.571 221.386 168.293 221.386ZM99.37 161.87C98.2082 163.031 96.3954 163.28 95.0457 162.343C92.4958 160.572 90.3962 158.595 88.7471 156.41C86.6158 153.592 85.5502 150.177 85.5502 146.165C85.5502 140.9 87.4934 136.479 91.3798 132.904C95.2663 129.333 102.224 125.354 112.254 120.966C120.152 117.33 125.197 114.79 127.388 113.346C129.585 111.907 130.683 110.31 130.683 108.555C130.683 106.549 129.459 104.793 127.012 103.289C124.57 101.785 120.779 101.032 115.639 101.032C112.504 101.032 109.872 101.409 107.74 102.161C105.609 102.913 103.666 104.167 101.911 105.922C100.532 107.301 98.8393 108.116 96.8334 108.366C94.8275 108.617 93.0096 108.053 91.3798 106.674C89.75 105.42 88.8098 103.791 88.559 101.785C88.3083 99.7787 88.8725 97.9609 90.2515 96.3311C92.6335 93.4476 96.0511 91.0029 100.504 88.997C104.952 86.9911 109.997 85.9882 115.639 85.9882C124.665 85.9882 131.937 88.0241 137.453 92.0961C142.969 96.1731 145.727 101.659 145.727 108.555C145.727 113.444 143.909 117.832 140.274 121.718C136.638 125.605 129.304 129.93 118.271 134.694C111 137.828 106.236 140.147 103.979 141.652C101.723 143.156 100.594 144.661 100.594 146.165C100.594 147.293 101.314 148.392 102.753 149.46C103.068 149.691 103.407 149.921 103.772 150.149C105.968 151.526 106.642 154.598 104.809 156.431L99.37 161.87ZM108.117 202.731C108.117 204.726 109.733 206.342 111.727 206.342H117.145C118.107 206.342 119.029 205.958 119.706 205.276L198.96 125.49C200.362 124.078 200.358 121.799 198.952 120.392L193.527 114.967C192.113 113.554 189.821 113.558 188.412 114.976L109.166 194.755C108.494 195.431 108.117 196.346 108.117 197.3V202.731ZM96.6829 221.386C94.6888 221.386 93.0723 219.77 93.0723 217.776V190.907C93.0723 189.953 93.4499 189.038 94.1226 188.361L185.859 96.103C188.677 93.2693 193.26 93.2628 196.086 96.0885L217.842 117.845C220.657 120.659 220.663 125.221 217.857 128.043L126.1 220.321C125.422 221.003 124.501 221.386 123.54 221.386H96.6829Z" fill="#F8F8F8"/>
</g>
</svg>
