<svg width="343" height="288" viewBox="0 0 343 288" fill="none" xmlns="http://www.w3.org/2000/svg">
<path d="M129.544 22.2867C127.729 27.036 125.202 31.0349 121.396 36.4017L107.038 30.9714C108.581 17.2259 107.238 14.7286 115.811 5.25212C117.047 3.88548 118.703 2.91593 120.54 2.76593C123.002 2.56485 125.174 2.86127 126.974 3.80433C133.032 6.97744 131.986 15.8988 129.544 22.2867Z" fill="#5D3A2C" stroke="#281214" stroke-width="4"/>
<path d="M184.4 180C177.28 177.267 139.286 165.293 131.4 153.789C134.516 145.017 143.797 141.167 159.126 146.315C167.853 149.246 175.337 155.089 183.778 158.762C188.964 161.018 194.25 163.231 197.991 166.987C200.209 169.215 197.898 172.2 194.816 171.583L194.4 171.5C195.77 173.144 194.079 175.54 192.072 174.8L189.9 174L191.946 176.361C193.229 177.841 191.772 180.076 189.9 179.5C190.561 181.745 187.79 183.39 186.135 181.735L184.4 180Z" fill="url(#paint0_linear_3762_954)" stroke="url(#paint1_linear_3762_954)" stroke-width="4"/>
<g filter="url(#filter0_d_3762_954)">
<path d="M50.0906 33.9957C69.7933 28.2179 80.0639 25.0563 93.4751 24.7537C112.245 24.3303 128.788 36.0069 140.12 50.9763C155.791 71.6781 165.705 83.7793 175.477 109.93C177.754 122.973 175.783 131.166 173.152 140.097C171.73 144.925 167.272 148.276 162.238 148.276C186.724 185.154 182.937 260.706 162.088 263.538C161.288 263.646 160.446 263.706 159.655 263.867C94.8719 276.994 65.5766 273.688 45.6493 266.806C33.6396 262.658 23.8778 253.906 16.2285 243.761C15.3456 242.59 14.5837 241.346 14.0025 240C-2.14539 202.591 4.34762 135.929 50.0906 33.9957Z" fill="#B89061"/>
<path d="M50.0906 109.93C67.0359 123.176 87.911 131.341 109.58 139.295C125.597 145.174 142.536 148.276 159.598 148.276H162.238M162.238 148.276V148.276C167.272 148.276 171.73 144.925 173.152 140.097C175.783 131.166 177.754 122.973 175.477 109.93C165.705 83.7793 155.791 71.6781 140.12 50.9763C128.788 36.0069 112.245 24.3303 93.4751 24.7537C80.0639 25.0563 69.7933 28.2179 50.0906 33.9957C4.34762 135.929 -2.14539 202.591 14.0025 240C14.5837 241.346 15.3456 242.59 16.2285 243.761V243.761C23.8778 253.906 33.6396 262.658 45.6493 266.806C65.5766 273.688 94.8719 276.994 159.655 263.867C160.446 263.706 161.288 263.646 162.088 263.538C182.937 260.706 186.724 185.154 162.238 148.276Z" stroke="#281214" stroke-width="4"/>
</g>
<path d="M185.902 236.487L182.342 256.056C181.574 260.272 179.809 265.056 175.661 266.13C175.455 266.184 175.251 266.224 175.048 266.253C169.783 266.991 166.494 260.657 165.465 255.441L161.604 235.861C161.37 234.678 161.868 233.471 162.867 232.795L164.309 231.821C164.901 231.421 165.71 231.753 165.85 232.455L167.904 242.808C168.136 243.976 169.849 243.834 169.885 242.644L170.19 232.621C170.233 231.208 171.339 230.057 172.75 229.958C173.702 229.892 174.547 230.567 174.692 231.511L176.507 243.366C176.672 244.44 178.189 244.518 178.463 243.468L181.699 231.082C181.807 230.67 182.252 230.445 182.647 230.603C184.994 231.541 186.355 234.001 185.902 236.487Z" fill="#553C1E" stroke="#281214" stroke-width="4"/>
<path d="M80.9917 252.733L77.4954 273.956C76.7392 278.545 75.0039 284.079 70.4304 284.929C70.3752 284.94 70.3201 284.949 70.265 284.957C64.912 285.768 61.6876 279.1 60.6858 273.78L56.5874 252.014C56.3724 250.872 56.836 249.709 57.7775 249.028L59.2836 247.938C59.8772 247.509 60.7158 247.843 60.8522 248.563L62.9676 259.728C63.1909 260.907 64.9216 260.765 64.9498 259.566L65.2074 248.622C65.2406 247.211 66.3425 246.057 67.7509 245.958C68.7015 245.892 69.5431 246.569 69.682 247.511L71.5794 260.39C71.7399 261.479 73.2857 261.547 73.5414 260.476L76.7022 247.238C76.8092 246.79 77.295 246.547 77.7178 246.73C80.0565 247.744 81.4061 250.218 80.9917 252.733Z" fill="#553C1E" stroke="#281214" stroke-width="4"/>
<path d="M40.2278 9.61119C37.425 12.3855 36.6076 15.602 36.5005 19.0268C36.2648 26.5636 39.8816 33.8655 44.9869 39.4148C47.0825 41.6926 50.4743 42.2198 53.1624 40.6854L55.5854 39.3024C59.3004 37.1819 61.1181 32.8054 60.1589 28.6367C58.2239 20.2273 56.993 14.9981 48.1267 9.22716C45.6533 7.61726 42.3252 7.53506 40.2278 9.61119Z" fill="#5D3A2C" stroke="#281214" stroke-width="4"/>
<ellipse cx="12.1734" cy="12.1734" rx="12.1734" ry="12.1734" transform="matrix(-1 0 0 1 105.175 70.823)" fill="#281214"/>
<circle cx="4.73411" cy="4.73411" r="4.73411" transform="matrix(-1 0 0 1 101.118 73.5281)" fill="white"/>
<ellipse cx="2.93411" cy="2.1339" rx="2.93411" ry="2.1339" transform="matrix(-1 0 0 1 90.2305 86.0752)" fill="white"/>
<path d="M144.796 119.838C147.231 106.599 150.427 103.403 159.709 102.338C168.991 101.273 172.795 105.085 176.143 118.78C176.143 123.778 174.054 126.782 170.969 128.063C163.152 132.451 159.709 130.954 153.622 130.193C147.432 129.419 144.267 124.683 144.796 119.838Z" fill="#5D3A2C"/>
<path d="M144.796 119.838C147.231 106.599 150.427 103.403 159.709 102.338C168.991 101.273 172.795 105.085 176.143 118.78M144.796 119.838C156.916 109.658 169.448 111.781 176.143 118.78M144.796 119.838C144.267 124.683 147.432 129.419 153.622 130.193C159.709 130.954 163.152 132.451 170.969 128.063C174.054 126.782 176.143 123.778 176.143 118.78" stroke="#281214" stroke-width="4"/>
<path d="M141.543 140.211C154.934 145.081 164.977 146.298 173.194 140.211" stroke="#281214" stroke-width="4"/>
<path d="M163.304 130.929C163.834 137.107 163.7 140.051 162.391 144.015" stroke="#281214" stroke-width="4"/>
<path d="M84.3771 62.6841C83.0096 69.719 79.9547 71.3546 76.6548 70.7131C73.355 70.0717 71.0599 67.3962 72.4273 60.3613C73.7948 53.3264 76.8817 51.7906 80.1815 52.432C83.4813 53.0734 85.7445 55.6492 84.3771 62.6841Z" fill="#D4B694"/>
<path d="M84.3771 62.6841C83.0096 69.719 79.9547 71.3546 76.6548 70.7131C73.355 70.0717 71.0599 67.3962 72.4273 60.3613C73.7948 53.3264 76.8817 51.7906 80.1815 52.432C83.4813 53.0734 85.7445 55.6492 84.3771 62.6841Z" fill="#D4B694"/>
<path d="M98.7091 196.811L139.194 163.888L145.861 161.692C146.678 161.423 147.431 162.244 147.093 163.035L144.659 168.728L103.88 202.971C103.177 203.561 102.297 203.899 101.38 203.931C97.5363 204.065 95.7254 199.237 98.7091 196.811Z" fill="#F5F5F5" stroke="black"/>
<path d="M183.228 162.496L231.505 48.27C233.493 43.5656 238.707 41.1155 243.597 42.5872L332.071 69.2112C337.859 70.9531 340.791 77.3927 338.304 82.902L286.198 198.31C284.095 202.968 278.818 205.29 273.963 203.695L189.318 175.89C183.763 174.065 180.952 167.882 183.228 162.496Z" fill="#2F2E2E" stroke="black" stroke-width="5"/>
<g opacity="0.5">
<mask id="path-18-inside-1_3762_954" fill="white">
<path fill-rule="evenodd" clip-rule="evenodd" d="M231.607 80.12C231.83 79.2483 232.133 78.3988 232.511 77.5819L233.109 76.2868C235.081 72.0214 239.468 69.4025 244.159 69.6903C247.286 69.8822 250.061 71.7588 251.404 74.5892L252.373 76.6319C253.477 78.959 254.319 81.4017 254.883 83.9151L256.11 89.3895C260.493 89.0325 264.795 89.5251 268.788 91.0579C272.736 92.5734 276.216 95.0955 279.194 98.3211L283.834 95.0284C285.934 93.5377 288.194 92.2855 290.572 91.295L292.659 90.4255C295.551 89.2207 298.869 89.6832 301.321 91.633C305 94.5577 306.507 99.4392 305.119 103.929L304.697 105.292C304.431 106.152 304.088 106.985 303.67 107.783C300.8 113.271 294.731 116.257 288.672 115.237C292.498 126.999 292.722 140.571 288.76 150.893C281.069 170.927 261.843 167.68 242.261 160.163C222.679 152.647 206.824 141.109 214.514 121.074C218.402 110.947 227.223 101.468 237.526 95.5406C232.503 92.2048 230.092 86.0271 231.607 80.12Z"/>
</mask>
<path fill-rule="evenodd" clip-rule="evenodd" d="M231.607 80.12C231.83 79.2483 232.133 78.3988 232.511 77.5819L233.109 76.2868C235.081 72.0214 239.468 69.4025 244.159 69.6903C247.286 69.8822 250.061 71.7588 251.404 74.5892L252.373 76.6319C253.477 78.959 254.319 81.4017 254.883 83.9151L256.11 89.3895C260.493 89.0325 264.795 89.5251 268.788 91.0579C272.736 92.5734 276.216 95.0955 279.194 98.3211L283.834 95.0284C285.934 93.5377 288.194 92.2855 290.572 91.295L292.659 90.4255C295.551 89.2207 298.869 89.6832 301.321 91.633C305 94.5577 306.507 99.4392 305.119 103.929L304.697 105.292C304.431 106.152 304.088 106.985 303.67 107.783C300.8 113.271 294.731 116.257 288.672 115.237C292.498 126.999 292.722 140.571 288.76 150.893C281.069 170.927 261.843 167.68 242.261 160.163C222.679 152.647 206.824 141.109 214.514 121.074C218.402 110.947 227.223 101.468 237.526 95.5406C232.503 92.2048 230.092 86.0271 231.607 80.12Z" fill="#B89061"/>
<path d="M232.511 77.5819L228.88 75.9032L228.88 75.9032L232.511 77.5819ZM231.607 80.12L227.732 79.1262L231.607 80.12ZM233.109 76.2868L236.74 77.9655L233.109 76.2868ZM244.159 69.6903L243.914 73.6828L244.159 69.6903ZM251.404 74.5892L247.79 76.3039L247.79 76.3039L251.404 74.5892ZM252.373 76.6319L255.987 74.9172L255.987 74.9172L252.373 76.6319ZM254.883 83.9151L258.786 83.04L258.786 83.04L254.883 83.9151ZM256.11 89.3895L252.207 90.2646L252.968 93.6586L256.435 93.3763L256.11 89.3895ZM279.194 98.3211L276.255 101.034L278.641 103.619L281.509 101.583L279.194 98.3211ZM283.834 95.0284L286.149 98.2904L286.149 98.2904L283.834 95.0284ZM290.572 91.295L289.034 87.6026L289.034 87.6026L290.572 91.295ZM292.659 90.4255L291.121 86.7331L291.121 86.7331L292.659 90.4255ZM301.321 91.633L298.832 94.7639L298.832 94.7639L301.321 91.633ZM305.119 103.929L301.297 102.747L301.297 102.747L305.119 103.929ZM304.697 105.292L308.519 106.474L308.519 106.474L304.697 105.292ZM303.67 107.783L307.215 109.637L307.215 109.637L303.67 107.783ZM288.672 115.237L289.336 111.293L282.827 110.198L284.869 116.475L288.672 115.237ZM237.526 95.5406L239.521 99.0077L245.123 95.7844L239.739 92.2085L237.526 95.5406ZM228.88 75.9032C228.4 76.9405 228.016 78.0193 227.732 79.1262L235.481 81.1139C235.645 80.4774 235.865 79.8571 236.141 79.2606L228.88 75.9032ZM229.479 74.6081L228.88 75.9032L236.141 79.2606L236.74 77.9655L229.479 74.6081ZM244.404 65.6978C238.068 65.3091 232.143 68.8466 229.479 74.6081L236.74 77.9655C238.02 75.1962 240.868 73.4959 243.914 73.6828L244.404 65.6978ZM255.018 72.8746C253.051 68.7281 248.985 65.9789 244.404 65.6978L243.914 73.6828C245.587 73.7854 247.072 74.7895 247.79 76.3039L255.018 72.8746ZM255.987 74.9172L255.018 72.8746L247.79 76.3039L248.759 78.3466L255.987 74.9172ZM258.786 83.04C258.157 80.237 257.219 77.5126 255.987 74.9172L248.759 78.3466C249.736 80.4054 250.481 82.5665 250.979 84.7901L258.786 83.04ZM260.013 88.5145L258.786 83.04L250.979 84.7901L252.207 90.2646L260.013 88.5145ZM256.435 93.3763C260.311 93.0606 264 93.5046 267.355 94.7922L270.222 87.3236C265.59 85.5456 260.676 85.0044 255.785 85.4027L256.435 93.3763ZM267.355 94.7922C270.641 96.0537 273.625 98.1854 276.255 101.034L282.133 95.6077C278.808 92.0057 274.831 89.0931 270.222 87.3236L267.355 94.7922ZM281.509 101.583L286.149 98.2904L281.519 91.7665L276.879 95.0591L281.509 101.583ZM286.149 98.2904C288.007 96.9715 290.007 95.8637 292.11 94.9873L289.034 87.6026C286.382 88.7073 283.861 90.1039 281.519 91.7665L286.149 98.2904ZM292.11 94.9873L294.197 94.1179L291.121 86.7331L289.034 87.6026L292.11 94.9873ZM294.197 94.1179C295.745 93.4732 297.52 93.7207 298.832 94.7639L303.811 88.5021C300.218 85.6457 295.357 84.9681 291.121 86.7331L294.197 94.1179ZM298.832 94.7639C301.22 96.6628 302.199 99.832 301.297 102.747L308.94 105.111C310.816 99.0464 308.779 92.4526 303.811 88.5021L298.832 94.7639ZM301.297 102.747L300.876 104.11L308.519 106.474L308.94 105.111L301.297 102.747ZM300.876 104.11C300.682 104.738 300.431 105.346 300.126 105.929L307.215 109.637C307.745 108.624 308.181 107.565 308.519 106.474L300.876 104.11ZM300.126 105.929C298.061 109.877 293.694 112.026 289.336 111.293L288.009 119.182C295.769 120.487 303.538 116.665 307.215 109.637L300.126 105.929ZM284.869 116.475C288.47 127.547 288.596 140.157 285.025 149.459L292.494 152.326C296.847 140.986 296.526 126.452 292.476 114L284.869 116.475ZM285.025 149.459C283.321 153.9 281.085 156.787 278.601 158.652C276.116 160.518 273.126 161.554 269.604 161.876C262.371 162.539 253.412 160.159 243.694 156.429L240.828 163.898C250.691 167.684 261.137 170.686 270.334 169.843C275.028 169.413 279.511 167.974 283.405 165.049C287.302 162.123 290.353 157.903 292.494 152.326L285.025 149.459ZM243.694 156.429C234.07 152.734 225.978 148.261 221.191 142.703C218.85 139.985 217.355 137.071 216.79 133.88C216.226 130.691 216.542 126.952 218.249 122.508L210.78 119.641C208.641 125.213 208.055 130.43 208.913 135.274C209.77 140.116 212.02 144.313 215.13 147.923C221.244 155.022 230.871 160.076 240.828 163.898L243.694 156.429ZM218.249 122.508C221.748 113.391 229.859 104.566 239.521 99.0077L235.531 92.0735C224.587 98.3703 215.055 108.503 210.78 119.641L218.249 122.508ZM227.732 79.1262C225.792 86.6907 228.88 94.6003 235.313 98.8727L239.739 92.2085C236.126 89.8092 234.391 85.3636 235.481 81.1139L227.732 79.1262Z" fill="#281214" mask="url(#path-18-inside-1_3762_954)"/>
<path d="M297.597 110.339C299.354 108.589 300.602 106.39 301.201 103.984L301.605 102.36C302.429 99.0466 300.945 95.5893 297.975 93.9043C296.416 93.0194 294.532 92.9143 292.883 93.6203L288.446 95.5203C286.527 96.3421 284.67 97.3019 282.89 98.3922L277 102C279.639 105.476 281.871 109.242 283.653 113.225L284 114L287.828 114.151C291.472 114.294 295.013 112.911 297.597 110.339Z" fill="#5D3A2C"/>
<path d="M233.978 82.7987C234.168 80.6794 234.878 78.6201 236.042 76.8391C237.908 73.9845 241.234 72.3748 244.635 72.6305C247.231 72.8257 249.56 74.4124 250.657 76.7733L251.007 77.5279C252.119 79.9209 252.828 82.4807 253.107 85.1043L254 93.5L253.386 93.6415C249.472 94.5449 245.657 95.8375 242 97.5L237.443 92.7354C234.912 90.0895 233.651 86.4453 233.978 82.7987Z" fill="#5D3A2C"/>
<path d="M251.368 105.53C250.107 108.816 248.49 109.346 246.949 108.755C245.407 108.163 244.526 106.674 245.787 103.388C247.048 100.103 248.672 99.623 250.213 100.215C251.754 100.806 252.629 102.245 251.368 105.53Z" fill="#D4B694"/>
<path d="M251.368 105.53C250.107 108.816 248.49 109.346 246.949 108.755C245.407 108.163 244.526 106.674 245.787 103.388C247.048 100.103 248.672 99.623 250.213 100.215C251.754 100.806 252.629 102.245 251.368 105.53Z" fill="#D4B694"/>
<path d="M277.96 115.738C276.698 119.023 275.081 119.554 273.54 118.962C271.999 118.371 271.117 116.881 272.379 113.596C273.64 110.31 275.264 109.831 276.805 110.422C278.346 111.014 279.221 112.452 277.96 115.738Z" fill="#D4B694"/>
<path d="M277.96 115.738C276.698 119.023 275.081 119.554 273.54 118.962C271.999 118.371 271.117 116.881 272.379 113.596C273.64 110.31 275.264 109.831 276.805 110.422C278.346 111.014 279.221 112.452 277.96 115.738Z" fill="#D4B694"/>
<path d="M241.085 146.054L247.649 146.126L253.232 150.717L251.29 154.303L244.688 153.841L239.964 149.956L241.085 146.054Z" fill="#FFCAF0"/>
<path d="M236.221 139.102C238.831 132.303 246.458 128.907 253.257 131.517C260.056 134.127 263.452 141.754 260.842 148.553L259.519 152L234.897 142.549L236.221 139.102Z" fill="#8C6748"/>
<rect x="250.646" y="133.904" width="3.16484" height="13.7143" rx="1.58242" transform="rotate(21 250.646 133.904)" fill="#281214"/>
<mask id="path-27-inside-2_3762_954" fill="white">
<path d="M243.74 131.382C242.912 129.915 244.282 128.183 245.901 128.651L249.444 129.676L256.83 132.511L260.78 134.402C262.259 135.109 262.144 137.251 260.598 137.796C258.021 138.705 255.204 138.667 252.652 137.688L249.765 136.579C247.213 135.6 245.083 133.762 243.74 131.382Z"/>
</mask>
<path d="M243.74 131.382C242.912 129.915 244.282 128.183 245.901 128.651L249.444 129.676L256.83 132.511L260.78 134.402C262.259 135.109 262.144 137.251 260.598 137.796C258.021 138.705 255.204 138.667 252.652 137.688L249.765 136.579C247.213 135.6 245.083 133.762 243.74 131.382Z" fill="#5D3A2C"/>
<path d="M249.444 129.676L251.952 123.141L251.675 123.034L251.389 122.952L249.444 129.676ZM256.83 132.511L259.852 126.197L259.6 126.077L259.339 125.976L256.83 132.511ZM255.16 131.152L252.273 130.044L247.256 143.114L250.143 144.223L255.16 131.152ZM243.955 135.375L247.498 136.4L251.389 122.952L247.846 121.927L243.955 135.375ZM246.935 136.211L254.322 139.047L259.339 125.976L251.952 123.141L246.935 136.211ZM253.809 138.826L257.759 140.716L263.802 128.088L259.852 126.197L253.809 138.826ZM252.273 130.044C251.241 129.648 250.38 128.905 249.836 127.942L237.643 134.822C239.786 138.619 243.185 141.552 247.256 143.114L252.273 130.044ZM258.269 131.195C257.261 131.551 256.159 131.536 255.16 131.152L250.143 144.223C254.248 145.798 258.781 145.86 262.927 144.397L258.269 131.195ZM262.927 144.397C270.353 141.777 270.905 131.487 263.802 128.088L257.759 140.716C253.612 138.732 253.934 132.724 258.269 131.195L262.927 144.397ZM249.836 127.942C252.09 131.935 248.36 136.65 243.955 135.375L247.846 121.927C240.205 119.716 233.734 127.894 237.643 134.822L249.836 127.942Z" fill="#281214" mask="url(#path-27-inside-2_3762_954)"/>
<path d="M259.644 151.714C260.146 151.482 260.364 150.888 260.132 150.387C259.9 149.885 259.306 149.667 258.804 149.899L259.644 151.714ZM247.143 146.915C249.213 151.752 254.87 153.924 259.644 151.714L258.804 149.899C255.053 151.635 250.608 149.929 248.982 146.129L247.143 146.915Z" fill="#281214"/>
<path d="M236.817 141.426C236.577 140.928 235.98 140.719 235.482 140.958C234.984 141.197 234.775 141.795 235.014 142.293L236.817 141.426ZM235.014 142.293L235.124 142.52L236.926 141.653L236.817 141.426L235.014 142.293ZM235.124 142.52C237.339 147.126 242.815 149.136 247.484 147.057L246.671 145.23C242.99 146.869 238.673 145.284 236.926 141.653L235.124 142.52Z" fill="#281214"/>
<path d="M239.52 146.207V146.207C239.381 153.746 248.801 157.412 253.637 151.625V151.625" stroke="#281214" stroke-width="2" stroke-linecap="round"/>
<ellipse cx="232.865" cy="115.287" rx="8.0243" ry="8.0243" transform="rotate(21 232.865 115.287)" fill="#281214"/>
<ellipse cx="231.902" cy="111.575" rx="3.12056" ry="3.12056" transform="rotate(21 231.902 111.575)" fill="white"/>
<ellipse cx="234.908" cy="119.953" rx="2.10989" ry="1.40659" transform="rotate(21 234.908 119.953)" fill="white"/>
<ellipse cx="279.158" cy="134.012" rx="8.0243" ry="8.0243" transform="rotate(21 279.158 134.012)" fill="#281214"/>
<ellipse cx="278.195" cy="130.3" rx="3.12056" ry="3.12056" transform="rotate(21 278.195 130.3)" fill="white"/>
<ellipse cx="281.438" cy="138.568" rx="1.93407" ry="1.40659" transform="rotate(21 281.438 138.568)" fill="white"/>
</g>
<path d="M95.5532 203.442C88.433 200.709 54.2858 188.293 46.4004 176.789C49.516 168.017 58.7969 164.167 74.126 169.315C82.8527 172.246 90.4123 177.883 96.8813 184.433C101.121 188.725 105.185 193.462 108.249 198.711C109.087 200.146 107.459 201.271 106.284 200.096C106.593 201.643 104.642 202.591 103.618 201.39L103.399 201.134V202.209C103.399 203.975 101.199 204.786 100.053 203.442C100.314 205.331 97.9238 206.367 96.723 204.886L95.5532 203.442Z" fill="url(#paint2_linear_3762_954)" stroke="url(#paint3_linear_3762_954)" stroke-width="4"/>
<defs>
<filter id="filter0_d_3762_954" x="0" y="22.7424" width="185.195" height="260.098" filterUnits="userSpaceOnUse" color-interpolation-filters="sRGB">
<feFlood flood-opacity="0" result="BackgroundImageFix"/>
<feColorMatrix in="SourceAlpha" type="matrix" values="0 0 0 0 0 0 0 0 0 0 0 0 0 0 0 0 0 0 127 0" result="hardAlpha"/>
<feOffset dy="4"/>
<feGaussianBlur stdDeviation="2"/>
<feComposite in2="hardAlpha" operator="out"/>
<feColorMatrix type="matrix" values="0 0 0 0 0 0 0 0 0 0 0 0 0 0 0 0 0 0 0.5 0"/>
<feBlend mode="normal" in2="BackgroundImageFix" result="effect1_dropShadow_3762_954"/>
<feBlend mode="normal" in="SourceGraphic" in2="effect1_dropShadow_3762_954" result="shape"/>
</filter>
<linearGradient id="paint0_linear_3762_954" x1="169.13" y1="151.366" x2="188.63" y2="185.98" gradientUnits="userSpaceOnUse">
<stop offset="0.611347" stop-color="#B89061"/>
<stop offset="0.623632" stop-color="#A6753D"/>
</linearGradient>
<linearGradient id="paint1_linear_3762_954" x1="152.285" y1="141.789" x2="158.746" y2="183.673" gradientUnits="userSpaceOnUse">
<stop offset="0.22" stop-color="#B89061"/>
<stop offset="0.2201" stop-color="#281214"/>
</linearGradient>
<linearGradient id="paint2_linear_3762_954" x1="84.1304" y1="174.366" x2="103.63" y2="208.98" gradientUnits="userSpaceOnUse">
<stop offset="0.611347" stop-color="#B89061"/>
<stop offset="0.623632" stop-color="#A6753D"/>
</linearGradient>
<linearGradient id="paint3_linear_3762_954" x1="67.2846" y1="164.789" x2="73.746" y2="206.673" gradientUnits="userSpaceOnUse">
<stop offset="0.22" stop-color="#B89061"/>
<stop offset="0.2201" stop-color="#281214"/>
</linearGradient>
</defs>
</svg>
