<svg width="412" height="474" viewBox="0 0 412 474" fill="none" xmlns="http://www.w3.org/2000/svg">
<path d="M157.526 30.554C160.694 41.9529 165.386 49.7579 173.566 61.2912L197.894 52.0898C195.204 28.1155 197.693 24.3356 181.707 7.06518C180.455 5.71279 178.794 4.76367 176.969 4.51297C169.085 3.4304 162.772 5.02659 158.859 10.8378C155.039 16.5103 155.694 23.9652 157.526 30.554Z" fill="#5D3A2C" stroke="#281214" stroke-width="7"/>
<g filter="url(#filter0_d_3762_1001)">
<path d="M294.387 57.2146C251.82 44.7318 235.235 39.4557 200.473 42.2399C181.758 43.7388 165.216 54.5307 154.073 69.641C120.176 115.605 100.896 135.126 81.9296 185.88C78.0719 207.981 81.4103 221.863 85.8687 236.995C88.2792 245.177 95.8322 250.855 104.362 250.855C62.546 313.833 69.3935 443.376 105.456 446.247C106.26 446.311 107.107 446.382 107.898 446.543C254.954 476.45 294.491 456.56 332.032 438.818L365.232 419.597C385.076 408.108 402.491 390.785 403.796 367.892C407.496 302.961 360.499 204.537 294.387 57.2146Z" fill="#B89061"/>
<path d="M294.387 185.88C261.305 211.74 219.384 226.171 176.75 241.793C160.729 247.663 143.824 250.855 126.762 250.855H104.361M104.361 250.855V250.855C95.8321 250.855 88.2792 245.177 85.8687 236.995C81.4103 221.863 78.0719 207.981 81.9296 185.88C100.896 135.126 120.176 115.605 154.073 69.641C165.216 54.5307 181.758 43.7388 200.473 42.2399C235.235 39.4557 251.82 44.7318 294.387 57.2146C360.499 204.537 407.496 302.961 403.796 367.892C402.491 390.785 385.076 408.108 365.232 419.597L332.032 438.818C294.491 456.56 254.954 476.45 107.898 446.543C107.107 446.382 106.26 446.311 105.456 446.247C69.3935 443.376 62.546 313.833 104.361 250.855Z" stroke="#281214" stroke-width="7"/>
</g>
<path d="M70.3509 404.099L76.3847 437.258C77.6843 444.4 80.6759 452.508 87.7038 454.328C88.053 454.418 88.3988 454.487 88.7433 454.535C97.6641 455.787 103.238 445.053 104.981 436.215L111.791 401.684C112.024 400.501 111.526 399.293 110.527 398.618L106.073 395.607C105.481 395.207 104.672 395.54 104.533 396.241L99.6581 420.802C99.4263 421.97 97.7139 421.828 97.6777 420.638L96.9743 397.548C96.9014 395.154 95.0269 393.204 92.6375 393.037C91.023 392.924 89.5918 394.068 89.3468 395.668L85.7618 419.077C85.5974 420.151 84.0803 420.229 83.8058 419.179L77.4727 394.941C77.2902 394.242 76.5368 393.862 75.8664 394.13C71.8909 395.718 69.5845 399.887 70.3509 404.099Z" fill="#553C1E" stroke="#281214" stroke-width="7"/>
<path d="M241.378 415.04L247.303 450.999C248.584 458.777 251.524 468.153 259.274 469.594C259.367 469.611 259.461 469.627 259.554 469.641C268.624 471.014 274.088 459.717 275.785 450.702L282.974 412.522C283.189 411.38 282.726 410.217 281.784 409.536L277.275 406.275C276.682 405.845 275.843 406.179 275.707 406.899L270.697 433.342C270.474 434.521 268.743 434.379 268.715 433.18L268.124 408.074C268.068 405.683 266.2 403.727 263.814 403.56C262.203 403.447 260.777 404.594 260.542 406.192L256.802 431.579C256.641 432.668 255.095 432.736 254.84 431.666L248.647 405.728C248.465 404.969 247.642 404.557 246.926 404.868C242.963 406.585 240.676 410.778 241.378 415.04Z" fill="#553C1E" stroke="#281214" stroke-width="7"/>
<path d="M308.761 13.8583C315.412 18.9906 317.207 25.1879 317.415 31.8505C317.815 44.6209 311.686 56.9935 303.036 66.3963C299.485 70.256 293.738 71.1492 289.183 68.5493L282.474 64.7201C277.711 62.0012 275.406 56.3924 276.653 51.0512C280.581 34.2245 281.822 24.7124 300.348 13.6021C302.978 12.0252 306.334 11.9852 308.761 13.8583Z" fill="#5D3A2C" stroke="#281214" stroke-width="7"/>
<circle cx="221.678" cy="140.242" r="20.627" fill="#281214"/>
<ellipse cx="215.948" cy="132.221" rx="8.0216" ry="8.0216" fill="white"/>
<ellipse cx="231.346" cy="149.075" rx="4.97164" ry="3.61574" fill="white"/>
<path d="M274.416 360.535V356.611L89.1272 341.102L16.4858 368.373V374.616L172.035 399.588L274.416 360.535Z" fill="#FF406E"/>
<path d="M274.416 356.611V360.535L172.035 399.588M274.416 356.611L172.035 394.916M274.416 356.611L89.1272 341.102L16.4858 368.373M172.035 399.588V394.916M172.035 399.588L16.4858 374.616V368.373M172.035 394.916L16.4858 368.373" stroke="#6D1C1C" stroke-width="7"/>
<path d="M162.346 275.288L171.383 394.458C171.48 395.739 170.362 396.778 169.092 396.587L17.365 373.86C16.4612 373.725 15.764 372.994 15.6716 372.085L4.24861 259.759C4.12038 258.498 5.18254 257.437 6.44337 257.567L160.557 273.45C161.52 273.549 162.273 274.323 162.346 275.288Z" fill="#FF406E" stroke="#6D1C1C" stroke-width="7"/>
<path d="M97 338C102.5 345 100.56 351.198 86 352" stroke="white" stroke-width="4"/>
<path d="M129.5 294.5L103.5 292L45.5 341.5L43 356L63 353L129.5 294.5Z" stroke="white" stroke-width="4"/>
<path d="M43 299C49.2116 295.63 57.6919 294.436 66.658 295.846C71.6622 296.633 72.4704 302.837 68.3084 305.725L61.685 310.321C58.3473 312.637 59.1261 317.777 63 319V319" stroke="white" stroke-width="4"/>
<path d="M226.061 361.209C241.972 355.102 318.278 327.357 335.899 301.649C327.92 279.182 301.844 271.166 258.065 291.306C249.702 295.153 242.177 300.61 235.421 306.863C221.864 319.409 207.489 333.85 197.689 350.637C195.817 353.844 199.456 356.357 202.082 353.732C201.39 357.19 205.75 359.307 208.039 356.624L208.528 356.052V359.122C208.528 362.84 213.158 364.547 215.571 361.718L216.005 361.209L215.902 361.955C215.349 365.967 220.423 368.166 222.972 365.02L226.061 361.209Z" fill="url(#paint0_linear_3762_1001)" stroke="url(#paint1_linear_3762_1001)" stroke-width="7"/>
<path d="M133.916 202.667C129.79 180.235 124.376 174.82 108.648 173.015C92.9197 171.21 86.4737 177.67 80.8012 200.876C80.8012 209.343 84.3409 214.434 89.5677 216.604C102.814 224.04 108.648 221.503 118.961 220.213C129.451 218.902 134.813 210.878 133.916 202.667Z" fill="#5D3A2C"/>
<path d="M133.916 202.667C129.79 180.235 124.376 174.82 108.648 173.015C92.9197 171.21 86.4737 177.67 80.8012 200.876M133.916 202.667C113.381 185.418 92.1461 189.015 80.8012 200.876M133.916 202.667C134.813 210.878 129.451 218.902 118.961 220.213C108.648 221.503 102.814 224.04 89.5677 216.604C84.3409 214.434 80.8012 209.343 80.8012 200.876" stroke="#281214" stroke-width="7"/>
<path d="M139.427 237.189C116.738 245.44 99.7203 247.503 85.7971 237.189" stroke="#281214" stroke-width="7"/>
<path d="M102.556 221.461C101.658 231.929 101.886 236.918 104.104 243.635" stroke="#281214" stroke-width="7"/>
<path d="M236.291 105.824C238.608 117.745 243.784 120.516 249.376 119.429C254.967 118.342 258.856 113.809 256.539 101.889C254.222 89.9685 248.991 87.3661 243.4 88.453C237.809 89.5398 233.974 93.9043 236.291 105.824Z" fill="#D4B694"/>
<path d="M236.291 105.824C238.608 117.745 243.784 120.516 249.376 119.429C254.967 118.342 258.856 113.809 256.539 101.889C254.222 89.9685 248.991 87.3661 243.4 88.453C237.809 89.5398 233.974 93.9043 236.291 105.824Z" fill="#D4B694"/>
<defs>
<filter id="filter0_d_3762_1001" x="68.1289" y="38.0159" width="343.371" height="435.404" filterUnits="userSpaceOnUse" color-interpolation-filters="sRGB">
<feFlood flood-opacity="0" result="BackgroundImageFix"/>
<feColorMatrix in="SourceAlpha" type="matrix" values="0 0 0 0 0 0 0 0 0 0 0 0 0 0 0 0 0 0 127 0" result="hardAlpha"/>
<feOffset dy="4"/>
<feGaussianBlur stdDeviation="2"/>
<feComposite in2="hardAlpha" operator="out"/>
<feColorMatrix type="matrix" values="0 0 0 0 0 0 0 0 0 0 0 0 0 0 0 0 0 0 0.5 0"/>
<feBlend mode="normal" in2="BackgroundImageFix" result="effect1_dropShadow_3762_1001"/>
<feBlend mode="normal" in="SourceGraphic" in2="effect1_dropShadow_3762_1001" result="shape"/>
</filter>
<linearGradient id="paint0_linear_3762_1001" x1="251.587" y1="296.234" x2="208.012" y2="373.585" gradientUnits="userSpaceOnUse">
<stop offset="0.611347" stop-color="#B89061"/>
<stop offset="0.623632" stop-color="#A6753D"/>
</linearGradient>
<linearGradient id="paint1_linear_3762_1001" x1="289.231" y1="274.833" x2="274.792" y2="368.428" gradientUnits="userSpaceOnUse">
<stop offset="0.22" stop-color="#B89061"/>
<stop offset="0.2201" stop-color="#281214"/>
</linearGradient>
</defs>
</svg>
