<svg width="394" height="570" viewBox="0 0 394 570" fill="none" xmlns="http://www.w3.org/2000/svg">
<path d="M333.492 375.236C246.189 299.726 164.916 212.116 131.052 131.438H126.052C126.052 187.771 225.066 287.529 333.492 375.236C497.109 516.75 681.905 615.765 615.5 547C629 538 612.306 545.07 606.5 547C584.531 554.304 453.268 472.122 333.492 375.236Z" fill="#991010" fill-opacity="0.22"/>
<g filter="url(#filter0_d_3762_862)">
<path d="M48.8591 115.934C70.9889 122.181 105.037 131.224 134.554 129.938C118.555 132.727 106.004 133.169 88.2129 131.875C74.5003 130.877 61.1497 127.117 48.5674 121.575C33.5572 114.963 33.0741 111.479 48.8591 115.934Z" fill="#DB4367"/>
</g>
<ellipse cx="39.3839" cy="114.271" rx="9.18022" ry="5.93355" transform="rotate(10 39.3839 114.271)" fill="#DB4367"/>
<g filter="url(#filter1_d_3762_862)">
<path d="M129.266 134.011C115.537 145.085 86.6825 175.059 51.8667 198.037C39.2518 206.363 23.1169 201.957 14.8112 189.825C13.1783 188.576 11.9451 187.185 11.0658 185.878C8.90406 182.664 10.9833 182.798 12.7156 186.262C13.3411 187.513 14.0426 188.702 14.8112 189.825C19.3991 193.332 27.1419 195.711 39.0536 191.938C74.6896 180.649 104.45 149.216 129.266 134.011Z" fill="#DB4367"/>
</g>
<ellipse cx="8.3332" cy="13.3181" rx="8.3332" ry="13.3181" transform="matrix(-0.898794 0.438371 0.446423 0.894823 15.6411 171.644)" fill="#DB4367"/>
<g filter="url(#filter2_d_3762_862)">
<path d="M282.688 90.1311C223.866 111.083 188.442 119.963 123.731 134.011L199.49 121.446C214.428 118.969 228.976 114.541 242.761 108.276L282.688 90.1311Z" fill="#DB4367"/>
</g>
<ellipse cx="12.2481" cy="5.5" rx="12.2481" ry="5.5" transform="matrix(-0.933581 0.358368 0.358368 0.933581 285.111 82.7738)" fill="#DB4367"/>
<g filter="url(#filter3_d_3762_862)">
<path d="M131.903 126.851L193.311 172.965C208.451 184.335 225.355 193.142 243.349 199.035L253.618 202.399C256.201 203.245 258.862 201.335 258.886 198.617C259.04 181.528 243.969 169.805 250.199 185.719C251.554 189.181 253.409 193.256 255.84 198.021C216.617 186.527 179.174 158.179 131.903 126.851Z" fill="#DB4367"/>
</g>
<ellipse cx="8.3332" cy="13.3181" rx="8.3332" ry="13.3181" transform="matrix(-0.998386 -0.0567942 -0.0478287 0.998856 262.084 166.28)" fill="#DB4367"/>
<g filter="url(#filter4_d_3762_862)">
<path d="M131.26 131.046C131.26 150.366 115.624 177.028 179.55 217.972L174.737 198.722C171.517 185.839 166.891 173.292 158.95 162.649C152.86 154.486 143.897 143.685 131.26 131.046C173.409 164.473 215.475 133.13 226.839 131.143C227.474 131.032 228.096 130.79 228.552 130.334C234.351 124.536 229.296 114.71 221.206 116.058L131.26 131.046C202.503 95.4165 170.548 123.138 228.834 82.679C242.035 73.5149 243.685 54.5699 232.321 43.2062C225.279 36.1639 213.37 38.5574 208.558 47.2771C191.918 77.4303 172.024 89.5917 131.26 131.046C204.464 2.93995 206.108 -8.12227 187.649 3.54396C162.373 19.5198 142.438 47.8886 138.455 77.5242L131.26 131.046C115.355 36.3356 68.6544 41.8705 52.0606 53.6848C42.7122 60.3406 56.8791 68.9658 65.6894 76.3191L131.26 131.046C63.6532 140.708 59.6069 160.551 73.3112 160.024C113.103 158.492 92.6274 150.366 131.26 131.046Z" fill="#F2154A"/>
</g>
<defs>
<filter id="filter0_d_3762_862" x="33.165" y="113.936" width="105.389" height="26.6329" filterUnits="userSpaceOnUse" color-interpolation-filters="sRGB">
<feFlood flood-opacity="0" result="BackgroundImageFix"/>
<feColorMatrix in="SourceAlpha" type="matrix" values="0 0 0 0 0 0 0 0 0 0 0 0 0 0 0 0 0 0 127 0" result="hardAlpha"/>
<feOffset dy="4"/>
<feGaussianBlur stdDeviation="2"/>
<feComposite in2="hardAlpha" operator="out"/>
<feColorMatrix type="matrix" values="0 0 0 0 0 0 0 0 0 0 0 0 0 0 0 0 0 0 0.25 0"/>
<feBlend mode="normal" in2="BackgroundImageFix" result="effect1_dropShadow_3762_862"/>
<feBlend mode="normal" in="SourceGraphic" in2="effect1_dropShadow_3762_862" result="shape"/>
</filter>
<filter id="filter1_d_3762_862" x="6.14111" y="134.011" width="127.125" height="76.3038" filterUnits="userSpaceOnUse" color-interpolation-filters="sRGB">
<feFlood flood-opacity="0" result="BackgroundImageFix"/>
<feColorMatrix in="SourceAlpha" type="matrix" values="0 0 0 0 0 0 0 0 0 0 0 0 0 0 0 0 0 0 127 0" result="hardAlpha"/>
<feOffset dy="4"/>
<feGaussianBlur stdDeviation="2"/>
<feComposite in2="hardAlpha" operator="out"/>
<feColorMatrix type="matrix" values="0 0 0 0 0 0 0 0 0 0 0 0 0 0 0 0 0 0 0.25 0"/>
<feBlend mode="normal" in2="BackgroundImageFix" result="effect1_dropShadow_3762_862"/>
<feBlend mode="normal" in="SourceGraphic" in2="effect1_dropShadow_3762_862" result="shape"/>
</filter>
<filter id="filter2_d_3762_862" x="119.73" y="90.1311" width="166.958" height="51.8798" filterUnits="userSpaceOnUse" color-interpolation-filters="sRGB">
<feFlood flood-opacity="0" result="BackgroundImageFix"/>
<feColorMatrix in="SourceAlpha" type="matrix" values="0 0 0 0 0 0 0 0 0 0 0 0 0 0 0 0 0 0 127 0" result="hardAlpha"/>
<feOffset dy="4"/>
<feGaussianBlur stdDeviation="2"/>
<feComposite in2="hardAlpha" operator="out"/>
<feColorMatrix type="matrix" values="0 0 0 0 0 0 0 0 0 0 0 0 0 0 0 0 0 0 0.25 0"/>
<feBlend mode="normal" in2="BackgroundImageFix" result="effect1_dropShadow_3762_862"/>
<feBlend mode="normal" in="SourceGraphic" in2="effect1_dropShadow_3762_862" result="shape"/>
</filter>
<filter id="filter3_d_3762_862" x="127.903" y="126.851" width="134.984" height="83.7502" filterUnits="userSpaceOnUse" color-interpolation-filters="sRGB">
<feFlood flood-opacity="0" result="BackgroundImageFix"/>
<feColorMatrix in="SourceAlpha" type="matrix" values="0 0 0 0 0 0 0 0 0 0 0 0 0 0 0 0 0 0 127 0" result="hardAlpha"/>
<feOffset dy="4"/>
<feGaussianBlur stdDeviation="2"/>
<feComposite in2="hardAlpha" operator="out"/>
<feColorMatrix type="matrix" values="0 0 0 0 0 0 0 0 0 0 0 0 0 0 0 0 0 0 0.25 0"/>
<feBlend mode="normal" in2="BackgroundImageFix" result="effect1_dropShadow_3762_862"/>
<feBlend mode="normal" in="SourceGraphic" in2="effect1_dropShadow_3762_862" result="shape"/>
</filter>
<filter id="filter4_d_3762_862" x="44.9907" y="0" width="198.899" height="225.972" filterUnits="userSpaceOnUse" color-interpolation-filters="sRGB">
<feFlood flood-opacity="0" result="BackgroundImageFix"/>
<feColorMatrix in="SourceAlpha" type="matrix" values="0 0 0 0 0 0 0 0 0 0 0 0 0 0 0 0 0 0 127 0" result="hardAlpha"/>
<feOffset dy="4"/>
<feGaussianBlur stdDeviation="2"/>
<feComposite in2="hardAlpha" operator="out"/>
<feColorMatrix type="matrix" values="0 0 0 0 0 0 0 0 0 0 0 0 0 0 0 0 0 0 0.25 0"/>
<feBlend mode="normal" in2="BackgroundImageFix" result="effect1_dropShadow_3762_862"/>
<feBlend mode="normal" in="SourceGraphic" in2="effect1_dropShadow_3762_862" result="shape"/>
</filter>
</defs>
</svg>
