<svg width="243" height="287" viewBox="0 0 243 287" fill="none" xmlns="http://www.w3.org/2000/svg">
<g opacity="0.5">
<path d="M141.5 449.439C138.535 333.779 128.95 261.381 111 131.439H116C128.667 234.939 157.2 443.439 156 449.439C154.8 455.439 145.833 451.939 141.5 449.439Z" fill="#991010" fill-opacity="0.22"/>
<g filter="url(#filter0_d_3762_877)">
<path d="M193.195 115.936C171.065 122.182 137.017 131.225 107.5 129.939C123.498 132.728 136.05 133.17 153.841 131.876C167.553 130.878 180.904 127.119 193.486 121.577C208.496 114.965 208.98 111.48 193.195 115.936Z" fill="#DB4367"/>
</g>
<ellipse cx="9.18022" cy="5.93355" rx="9.18022" ry="5.93355" transform="matrix(-0.984808 0.173648 0.173648 0.984808 210.68 106.835)" fill="#DB4367"/>
<g filter="url(#filter1_d_3762_877)">
<path d="M112.787 134.013C126.517 145.086 155.371 175.06 190.186 198.039C202.801 206.365 218.936 201.958 227.242 189.826C228.875 188.578 230.108 187.187 230.987 185.879C233.149 182.665 231.07 182.799 229.338 186.264C228.712 187.515 228.011 188.704 227.242 189.826C222.654 193.333 214.911 195.713 203 191.939C167.364 180.65 137.604 149.217 112.787 134.013Z" fill="#DB4367"/>
</g>
<ellipse cx="8.3332" cy="13.3181" rx="8.3332" ry="13.3181" transform="matrix(0.898794 0.438371 -0.446423 0.894823 226.412 171.646)" fill="#DB4367"/>
<g filter="url(#filter2_d_3762_877)">
<path d="M-40.6343 90.1326C18.1876 111.084 53.6113 119.965 118.323 134.012L42.5641 121.448C27.6262 118.97 13.0781 114.543 -0.707094 108.278L-40.6343 90.1326Z" fill="#DB4367"/>
</g>
<g filter="url(#filter3_d_3762_877)">
<path d="M110.151 126.852L48.743 172.967C33.6026 184.336 16.6986 193.143 -1.29498 199.036L-11.5647 202.4C-14.1478 203.246 -16.8079 201.336 -16.8324 198.618C-16.9861 181.529 -1.91508 169.807 -8.14517 185.72C-9.50075 189.183 -11.3557 193.258 -13.7866 198.022C25.4365 186.528 62.8797 158.18 110.151 126.852Z" fill="#DB4367"/>
</g>
<g filter="url(#filter4_d_3762_877)">
<path d="M110.794 131.047C110.794 150.367 126.429 177.03 62.5033 217.974L67.3158 198.724C70.5365 185.841 75.1627 173.293 83.1034 162.65C89.1929 154.488 98.1558 143.687 110.794 131.047C68.6437 164.475 26.5785 133.132 15.2138 131.145C14.5794 131.034 13.9571 130.791 13.5016 130.336C7.70186 124.537 12.7577 114.711 20.8474 116.059L110.794 131.047C39.5504 95.4179 71.5051 123.139 13.2197 82.6804C0.0179062 73.5164 -1.63191 54.5714 9.73182 43.2077C16.7741 36.1654 28.6828 38.5589 33.4948 47.2786C50.1349 77.4317 70.0295 89.5932 110.794 131.047C37.5889 2.94141 35.9457 -8.1208 54.4037 3.54543C79.6804 19.5213 99.6147 47.8901 103.599 77.5257L110.794 131.047C126.698 36.337 173.399 41.872 189.993 53.6863C199.341 60.3421 185.174 68.9673 176.364 76.3206L110.794 131.047C178.4 140.709 182.446 160.553 168.742 160.025C128.95 158.494 149.426 150.367 110.794 131.047Z" fill="#F2154A"/>
</g>
</g>
<defs>
<filter id="filter0_d_3762_877" x="103.5" y="113.938" width="105.389" height="26.6328" filterUnits="userSpaceOnUse" color-interpolation-filters="sRGB">
<feFlood flood-opacity="0" result="BackgroundImageFix"/>
<feColorMatrix in="SourceAlpha" type="matrix" values="0 0 0 0 0 0 0 0 0 0 0 0 0 0 0 0 0 0 127 0" result="hardAlpha"/>
<feOffset dy="4"/>
<feGaussianBlur stdDeviation="2"/>
<feComposite in2="hardAlpha" operator="out"/>
<feColorMatrix type="matrix" values="0 0 0 0 0 0 0 0 0 0 0 0 0 0 0 0 0 0 0.25 0"/>
<feBlend mode="normal" in2="BackgroundImageFix" result="effect1_dropShadow_3762_877"/>
<feBlend mode="normal" in="SourceGraphic" in2="effect1_dropShadow_3762_877" result="shape"/>
</filter>
<filter id="filter1_d_3762_877" x="108.788" y="134.013" width="127.125" height="76.3037" filterUnits="userSpaceOnUse" color-interpolation-filters="sRGB">
<feFlood flood-opacity="0" result="BackgroundImageFix"/>
<feColorMatrix in="SourceAlpha" type="matrix" values="0 0 0 0 0 0 0 0 0 0 0 0 0 0 0 0 0 0 127 0" result="hardAlpha"/>
<feOffset dy="4"/>
<feGaussianBlur stdDeviation="2"/>
<feComposite in2="hardAlpha" operator="out"/>
<feColorMatrix type="matrix" values="0 0 0 0 0 0 0 0 0 0 0 0 0 0 0 0 0 0 0.25 0"/>
<feBlend mode="normal" in2="BackgroundImageFix" result="effect1_dropShadow_3762_877"/>
<feBlend mode="normal" in="SourceGraphic" in2="effect1_dropShadow_3762_877" result="shape"/>
</filter>
<filter id="filter2_d_3762_877" x="-44.6343" y="90.1326" width="166.958" height="51.8799" filterUnits="userSpaceOnUse" color-interpolation-filters="sRGB">
<feFlood flood-opacity="0" result="BackgroundImageFix"/>
<feColorMatrix in="SourceAlpha" type="matrix" values="0 0 0 0 0 0 0 0 0 0 0 0 0 0 0 0 0 0 127 0" result="hardAlpha"/>
<feOffset dy="4"/>
<feGaussianBlur stdDeviation="2"/>
<feComposite in2="hardAlpha" operator="out"/>
<feColorMatrix type="matrix" values="0 0 0 0 0 0 0 0 0 0 0 0 0 0 0 0 0 0 0.25 0"/>
<feBlend mode="normal" in2="BackgroundImageFix" result="effect1_dropShadow_3762_877"/>
<feBlend mode="normal" in="SourceGraphic" in2="effect1_dropShadow_3762_877" result="shape"/>
</filter>
<filter id="filter3_d_3762_877" x="-20.8335" y="126.852" width="134.984" height="83.7502" filterUnits="userSpaceOnUse" color-interpolation-filters="sRGB">
<feFlood flood-opacity="0" result="BackgroundImageFix"/>
<feColorMatrix in="SourceAlpha" type="matrix" values="0 0 0 0 0 0 0 0 0 0 0 0 0 0 0 0 0 0 127 0" result="hardAlpha"/>
<feOffset dy="4"/>
<feGaussianBlur stdDeviation="2"/>
<feComposite in2="hardAlpha" operator="out"/>
<feColorMatrix type="matrix" values="0 0 0 0 0 0 0 0 0 0 0 0 0 0 0 0 0 0 0.25 0"/>
<feBlend mode="normal" in2="BackgroundImageFix" result="effect1_dropShadow_3762_877"/>
<feBlend mode="normal" in="SourceGraphic" in2="effect1_dropShadow_3762_877" result="shape"/>
</filter>
<filter id="filter4_d_3762_877" x="-1.83691" y="0.00146484" width="198.899" height="225.972" filterUnits="userSpaceOnUse" color-interpolation-filters="sRGB">
<feFlood flood-opacity="0" result="BackgroundImageFix"/>
<feColorMatrix in="SourceAlpha" type="matrix" values="0 0 0 0 0 0 0 0 0 0 0 0 0 0 0 0 0 0 127 0" result="hardAlpha"/>
<feOffset dy="4"/>
<feGaussianBlur stdDeviation="2"/>
<feComposite in2="hardAlpha" operator="out"/>
<feColorMatrix type="matrix" values="0 0 0 0 0 0 0 0 0 0 0 0 0 0 0 0 0 0 0.25 0"/>
<feBlend mode="normal" in2="BackgroundImageFix" result="effect1_dropShadow_3762_877"/>
<feBlend mode="normal" in="SourceGraphic" in2="effect1_dropShadow_3762_877" result="shape"/>
</filter>
</defs>
</svg>
