<svg width="290" height="242" viewBox="0 0 290 242" fill="none" xmlns="http://www.w3.org/2000/svg">
<path d="M85.4925 437.193C82.7017 321.734 175.934 261.266 158 131.44H163C173.239 215.098 111.458 370.99 85.4925 437.193C85.495 437.296 85.4975 437.399 85.5002 437.502C98.5535 522.064 73.3001 473.002 74.5001 467.002C75.1903 463.551 79.334 452.895 85.4925 437.193Z" fill="#991010" fill-opacity="0.22"/>
<g filter="url(#filter0_d_3762_847)">
<path d="M240.195 115.936C218.065 122.183 184.017 131.226 154.5 129.94C170.498 132.729 183.05 133.171 200.841 131.877C214.553 130.879 227.904 127.119 240.486 121.577C255.496 114.966 255.98 111.481 240.195 115.936Z" fill="#DB4367"/>
</g>
<ellipse cx="9.18022" cy="5.93355" rx="9.18022" ry="5.93355" transform="matrix(-0.984808 0.173648 0.173648 0.984808 257.68 106.835)" fill="#DB4367"/>
<g filter="url(#filter1_d_3762_847)">
<path d="M159.787 134.014C173.517 145.087 202.371 175.061 237.186 198.04C249.801 206.365 265.936 201.959 274.242 189.827C275.875 188.579 277.108 187.188 277.987 185.88C280.149 182.666 278.07 182.8 276.338 186.265C275.712 187.515 275.011 188.704 274.242 189.827C269.654 193.334 261.911 195.714 250 191.94C214.364 180.651 184.604 149.218 159.787 134.014Z" fill="#DB4367"/>
</g>
<ellipse cx="8.3332" cy="13.3181" rx="8.3332" ry="13.3181" transform="matrix(0.898794 0.438371 -0.446423 0.894823 273.412 171.646)" fill="#DB4367"/>
<g filter="url(#filter2_d_3762_847)">
<path d="M6.36572 90.1333C65.1876 111.085 100.611 119.965 165.323 134.013L89.5641 121.449C74.6262 118.971 60.0781 114.543 46.2929 108.279L6.36572 90.1333Z" fill="#DB4367"/>
</g>
<ellipse cx="13.406" cy="92.2999" rx="12.2481" ry="5.5" transform="rotate(21 13.406 92.2999)" fill="#DB4367"/>
<g filter="url(#filter3_d_3762_847)">
<path d="M157.151 126.853L95.743 172.967C80.6026 184.337 63.6986 193.144 45.705 199.037L35.4353 202.401C32.8522 203.247 30.1921 201.337 30.1676 198.619C30.0139 181.53 45.0849 169.807 38.8548 185.721C37.4992 189.184 35.6443 193.258 33.2134 198.023C72.4365 186.529 109.88 158.181 157.151 126.853Z" fill="#DB4367"/>
</g>
<ellipse cx="8.3332" cy="13.3181" rx="8.3332" ry="13.3181" transform="matrix(0.998386 -0.0567942 0.0478287 0.998856 26.9692 166.282)" fill="#DB4367"/>
<g filter="url(#filter4_d_3762_847)">
<path d="M157.794 131.048C157.794 150.368 173.429 177.031 109.503 217.974L114.316 198.724C117.536 185.842 122.163 173.294 130.103 162.651C136.193 154.489 145.156 143.687 157.794 131.048C115.644 164.475 73.5785 133.132 62.2138 131.145C61.5794 131.034 60.9571 130.792 60.5016 130.337C54.7019 124.538 59.7577 114.712 67.8474 116.06L157.794 131.048C86.5504 95.4186 118.505 123.14 60.2197 82.6812C47.0179 73.5171 45.3681 54.5721 56.7318 43.2084C63.7741 36.1661 75.6828 38.5596 80.4948 47.2793C97.1349 77.4325 117.03 89.5939 157.794 131.048C84.5889 2.94214 82.9457 -8.12007 101.404 3.54616C126.68 19.522 146.615 47.8908 150.599 77.5264L157.794 131.048C173.698 36.3378 220.399 41.8727 236.993 53.687C246.341 60.3428 232.174 68.968 223.364 76.3213L157.794 131.048C225.4 140.71 229.446 160.554 215.742 160.026C175.95 158.495 196.426 150.368 157.794 131.048Z" fill="#F2154A"/>
</g>
<defs>
<filter id="filter0_d_3762_847" x="150.5" y="113.939" width="105.389" height="26.6328" filterUnits="userSpaceOnUse" color-interpolation-filters="sRGB">
<feFlood flood-opacity="0" result="BackgroundImageFix"/>
<feColorMatrix in="SourceAlpha" type="matrix" values="0 0 0 0 0 0 0 0 0 0 0 0 0 0 0 0 0 0 127 0" result="hardAlpha"/>
<feOffset dy="4"/>
<feGaussianBlur stdDeviation="2"/>
<feComposite in2="hardAlpha" operator="out"/>
<feColorMatrix type="matrix" values="0 0 0 0 0 0 0 0 0 0 0 0 0 0 0 0 0 0 0.25 0"/>
<feBlend mode="normal" in2="BackgroundImageFix" result="effect1_dropShadow_3762_847"/>
<feBlend mode="normal" in="SourceGraphic" in2="effect1_dropShadow_3762_847" result="shape"/>
</filter>
<filter id="filter1_d_3762_847" x="155.788" y="134.014" width="127.125" height="76.3037" filterUnits="userSpaceOnUse" color-interpolation-filters="sRGB">
<feFlood flood-opacity="0" result="BackgroundImageFix"/>
<feColorMatrix in="SourceAlpha" type="matrix" values="0 0 0 0 0 0 0 0 0 0 0 0 0 0 0 0 0 0 127 0" result="hardAlpha"/>
<feOffset dy="4"/>
<feGaussianBlur stdDeviation="2"/>
<feComposite in2="hardAlpha" operator="out"/>
<feColorMatrix type="matrix" values="0 0 0 0 0 0 0 0 0 0 0 0 0 0 0 0 0 0 0.25 0"/>
<feBlend mode="normal" in2="BackgroundImageFix" result="effect1_dropShadow_3762_847"/>
<feBlend mode="normal" in="SourceGraphic" in2="effect1_dropShadow_3762_847" result="shape"/>
</filter>
<filter id="filter2_d_3762_847" x="2.36572" y="90.1333" width="166.958" height="51.8799" filterUnits="userSpaceOnUse" color-interpolation-filters="sRGB">
<feFlood flood-opacity="0" result="BackgroundImageFix"/>
<feColorMatrix in="SourceAlpha" type="matrix" values="0 0 0 0 0 0 0 0 0 0 0 0 0 0 0 0 0 0 127 0" result="hardAlpha"/>
<feOffset dy="4"/>
<feGaussianBlur stdDeviation="2"/>
<feComposite in2="hardAlpha" operator="out"/>
<feColorMatrix type="matrix" values="0 0 0 0 0 0 0 0 0 0 0 0 0 0 0 0 0 0 0.25 0"/>
<feBlend mode="normal" in2="BackgroundImageFix" result="effect1_dropShadow_3762_847"/>
<feBlend mode="normal" in="SourceGraphic" in2="effect1_dropShadow_3762_847" result="shape"/>
</filter>
<filter id="filter3_d_3762_847" x="26.1665" y="126.853" width="134.984" height="83.7502" filterUnits="userSpaceOnUse" color-interpolation-filters="sRGB">
<feFlood flood-opacity="0" result="BackgroundImageFix"/>
<feColorMatrix in="SourceAlpha" type="matrix" values="0 0 0 0 0 0 0 0 0 0 0 0 0 0 0 0 0 0 127 0" result="hardAlpha"/>
<feOffset dy="4"/>
<feGaussianBlur stdDeviation="2"/>
<feComposite in2="hardAlpha" operator="out"/>
<feColorMatrix type="matrix" values="0 0 0 0 0 0 0 0 0 0 0 0 0 0 0 0 0 0 0.25 0"/>
<feBlend mode="normal" in2="BackgroundImageFix" result="effect1_dropShadow_3762_847"/>
<feBlend mode="normal" in="SourceGraphic" in2="effect1_dropShadow_3762_847" result="shape"/>
</filter>
<filter id="filter4_d_3762_847" x="45.1631" y="0.00219727" width="198.899" height="225.972" filterUnits="userSpaceOnUse" color-interpolation-filters="sRGB">
<feFlood flood-opacity="0" result="BackgroundImageFix"/>
<feColorMatrix in="SourceAlpha" type="matrix" values="0 0 0 0 0 0 0 0 0 0 0 0 0 0 0 0 0 0 127 0" result="hardAlpha"/>
<feOffset dy="4"/>
<feGaussianBlur stdDeviation="2"/>
<feComposite in2="hardAlpha" operator="out"/>
<feColorMatrix type="matrix" values="0 0 0 0 0 0 0 0 0 0 0 0 0 0 0 0 0 0 0.25 0"/>
<feBlend mode="normal" in2="BackgroundImageFix" result="effect1_dropShadow_3762_847"/>
<feBlend mode="normal" in="SourceGraphic" in2="effect1_dropShadow_3762_847" result="shape"/>
</filter>
</defs>
</svg>
