<svg width="512" height="575" viewBox="0 0 512 575" fill="none" xmlns="http://www.w3.org/2000/svg">
<path d="M119.306 98.6623C128.764 92.8202 139.087 88.5097 149.891 85.8905L167.351 81.6578C198.81 74.0313 231.572 73.4914 263.265 80.0771L310.269 89.844L317.477 92.2468C347.195 102.153 375.861 114.97 403.059 130.511L459.151 162.564C469.374 168.405 478.516 175.961 486.179 184.901C493.241 193.14 498.954 202.447 503.103 212.475L506.8 221.41C507.887 224.036 504.593 226.265 502.559 224.28L459.773 182.512L479.432 209.379C490.827 224.953 497.828 243.303 499.702 262.51L501.277 278.656C501.61 282.071 502.613 285.386 504.227 288.413C508.801 296.988 508.236 307.393 502.761 315.423L483.75 343.306C477.708 352.167 469.985 359.754 461.019 365.639L435.061 382.673L401.82 399.294C382.926 408.741 362.596 414.987 341.658 417.779C325.738 419.902 309.614 420.008 293.667 418.094L277.336 416.134C263.079 414.424 249.013 411.386 235.32 407.062L233.897 406.613C217.326 401.38 201.44 394.189 186.574 385.191C170.262 375.318 155.313 363.352 142.109 349.597L126.849 333.701C110.85 317.035 97.6372 297.903 87.718 277.039L80.5305 261.92C71.5315 242.991 66.8623 222.295 66.8623 201.336V196.167C66.8623 179.832 70.2903 163.678 76.9248 148.751L78.3354 145.577C86.9598 126.172 101.239 109.821 119.306 98.6623Z" fill="#F2EEC8"/>
<path d="M72.1781 171.106C79.0755 148.292 94.504 129.015 115.253 117.287L128.059 110.049C154.006 95.3833 184.223 90.1329 213.596 95.1863L253.202 102C273.048 105.415 292.389 111.292 310.779 119.497L314.29 121.063C346.717 135.53 376.006 156.191 400.514 181.885L425.357 207.929C435.069 218.112 443.247 229.656 449.631 242.196L456.385 255.462C468.119 278.511 470.994 305.063 464.465 330.09C456.772 359.58 436.723 384.313 409.464 397.943L392.765 406.292C379.848 412.751 366.048 417.269 351.811 419.699L350.436 419.934C332.044 423.074 313.238 422.894 294.909 419.403L270.251 414.706C236.282 408.236 203.847 395.39 174.66 376.848L154.246 363.879C127.743 347.042 106.048 323.632 91.2718 295.926C80.0505 274.886 73.0745 251.846 70.7403 228.115L68.6604 206.97C67.4732 194.9 68.6684 182.715 72.1781 171.106Z" fill="#C8D6C7"/>
<path d="M55.7009 28.1346C58.1515 24.0504 61.688 20.7268 65.9163 18.5343L79.8965 11.2854C88.4373 6.8568 97.6962 3.97896 107.243 2.78566L111.992 2.19192C118.947 1.32263 125.981 1.3053 132.94 2.14033C146.36 3.7507 159.212 8.49642 170.458 15.9938L175.266 19.1992C182.867 24.2665 189.804 30.2651 195.915 37.0553C204.539 46.6374 211.403 57.6671 216.191 69.6364L218.837 76.2527L97.7516 114.555C83.1876 104.846 71.4708 91.4347 63.8048 75.699L55.4777 58.6067C53.2127 53.9575 52.0356 48.8537 52.0356 43.6821V41.3675C52.0356 36.7059 53.3026 32.1319 55.7009 28.1346Z" fill="#F2EEC8"/>
<path d="M7.69546 104.628C3.82671 104.017 1.52717 99.9714 2.98179 96.3349C9.14038 80.9384 20.3698 68.1052 34.8128 59.9579L44.4299 54.5329C55.0856 48.522 67.1126 45.3637 79.3467 45.3637H86.1339C88.6975 45.3637 90.0433 48.4061 88.3189 50.303L82.2467 56.9823C74.0956 65.9486 73.6678 79.5087 81.2375 88.9709C82.0878 90.0336 81.6961 91.6138 80.448 92.1564L69.1461 97.0703C59.4381 101.291 49.1673 104.076 38.6568 105.337L37.0544 105.53C28.1392 106.599 19.1189 106.432 10.2496 105.031L7.69546 104.628Z" fill="#E8822D"/>
<path d="M271.25 265.995C291.242 260.88 303.033 240.234 297.28 220.416C297.031 219.558 297.865 218.783 298.702 219.094L312.94 224.375C352.394 239.012 387.014 264.306 412.949 297.446C415.489 300.691 414.564 305.435 410.99 307.488L410.292 307.889C377.003 327.013 339.769 338.242 301.458 340.714L285.498 341.744C284.357 341.817 283.512 340.7 283.895 339.622C291.541 318.072 284.649 294.045 266.743 279.825L257.025 272.108C256.058 271.34 256.387 269.797 257.584 269.491L271.25 265.995Z" fill="#E8822D"/>
<path d="M310.417 528.826C292.664 518.306 269.727 524.568 259.782 542.649C259.351 543.432 258.213 543.391 257.841 542.579L251.508 528.777C233.959 490.529 227.365 448.162 232.459 406.39C232.958 402.299 236.966 399.6 240.945 400.675L241.723 400.885C278.784 410.902 313.053 429.289 341.891 454.632L353.904 465.189C354.763 465.944 354.57 467.331 353.538 467.823C332.893 477.654 320.776 499.517 323.383 522.234L324.798 534.562C324.938 535.789 323.614 536.647 322.552 536.018L310.417 528.826Z" fill="#E8822D"/>
<circle cx="110.855" cy="24.7075" r="9.81006" fill="black"/>
</svg>
