<svg width="564" height="473" viewBox="0 0 564 473" fill="none" xmlns="http://www.w3.org/2000/svg">
<path d="M145.581 71.0147C156.511 65.904 168.191 62.5821 180.174 61.1762L198.707 59.0019C233.052 54.9725 267.864 58.806 300.509 70.2125L348.63 87.0264L355.422 90.3531C385.758 105.21 414.528 123.074 441.298 143.674L495.593 185.458C505.734 193.262 514.452 202.758 521.362 213.528C527.637 223.308 532.34 234.011 535.299 245.247L537.992 255.469C538.783 258.472 534.883 260.396 532.981 257.941L493.735 207.282L510.665 238.721C520.648 257.26 525.556 278.108 524.893 299.154L524.336 316.805C524.218 320.534 524.822 324.251 526.115 327.751C529.773 337.659 527.749 348.773 520.833 356.756L497.147 384.09C489.414 393.015 480.003 400.334 469.449 405.631L440.122 420.348L402.542 433.924C381.432 441.549 359.184 445.55 336.739 445.755C319.602 445.913 302.516 443.856 285.905 439.636L269.11 435.37C254.216 431.586 239.717 426.392 225.809 419.857L224.686 419.329C207.748 411.371 191.837 401.389 177.3 389.603C161.516 376.804 147.484 361.984 135.567 345.524L121.76 326.456C106.947 305.997 95.4938 283.306 87.8325 259.238L82.4543 242.342C75.5219 220.564 73.4244 197.535 76.3082 174.863L77.0679 168.89C79.2824 151.479 85.0504 134.71 94.0141 119.621L96.4453 115.528C107.988 96.0975 125.109 80.5879 145.581 71.0147Z" fill="#F2EEC8"/>
<path d="M82.3564 149.894C92.8826 127.534 111.625 110.093 134.684 101.201L148.915 95.7131C177.749 84.5936 209.54 83.7781 238.907 93.4047L278.505 106.385C298.346 112.889 317.298 121.844 334.921 133.042L338.286 135.18C369.361 154.925 396.282 180.549 417.536 210.612L439.08 241.087C447.503 253.001 454.146 266.08 458.798 279.91L463.719 294.539C472.27 319.958 471.203 347.63 460.721 372.315C448.369 401.403 424.062 423.742 394.037 433.6L375.645 439.639C361.417 444.311 346.578 446.858 331.606 447.198L330.16 447.231C310.818 447.67 291.554 444.641 273.28 438.288L248.696 429.74C214.829 417.965 183.5 399.882 156.364 376.446L137.385 360.055C112.745 338.775 94.0306 311.479 83.0635 280.823C74.735 257.543 71.0638 232.853 72.2587 208.157L73.3235 186.151C73.9312 173.591 77.0003 161.272 82.3564 149.894Z" fill="#C8D6C7"/>
<path d="M80.1894 22.4902C81.122 20.936 82.2084 19.4794 83.4323 18.1424L84.8038 16.6443C91.5764 9.24604 100.53 4.19736 110.365 2.23031L114.563 1.39064C118.457 0.611926 122.418 0.219711 126.388 0.219711H129.066C141.626 0.219711 154.038 2.92863 165.455 8.16169L169.287 9.9179C175.319 12.6829 181.081 16.0048 186.496 19.8406L187.27 20.3888C201.306 30.3309 212.973 43.2506 221.436 58.2246L224.958 64.455L101.525 116.095C85.2485 96.5633 76.3347 71.9431 76.3347 46.5183V41.1814V36.407C76.3347 31.5045 77.6671 26.6941 80.1894 22.4902Z" fill="#F2EEC8"/>
<path d="M19.405 45.7831C14.8847 47.9662 13.5626 53.7822 16.6949 57.7049L19.775 61.5622C30.4104 74.8815 45.0894 84.3805 61.5968 88.6257L74.1553 91.8554C81.3185 93.6976 88.8715 93.3308 95.8225 90.8032C97.5286 90.1828 98.3262 88.2229 97.543 86.5853C90.2545 71.3457 94.1656 53.0748 107.079 42.1841L107.636 41.7145C109.706 39.9689 108.795 36.6006 106.127 36.1366L93.5254 33.9452C81.0803 31.781 68.354 31.7919 55.9126 33.9774L53.3807 34.4222C42.4818 36.3367 31.8998 39.7486 21.9352 44.5611L19.405 45.7831Z" fill="#E8822D"/>
<path d="M163.985 136.463C185.176 130.991 197.676 109.111 191.626 88.0765C191.363 87.1628 192.253 86.3397 193.144 86.6731L207.693 92.1214C249.373 107.729 285.889 134.622 313.159 169.795C315.808 173.211 314.837 178.178 311.098 180.347L310.428 180.735C275.399 201.048 236.147 212.986 195.74 215.618L179.283 216.689C178.066 216.769 177.165 215.58 177.569 214.43C185.609 191.557 178.33 166.101 159.413 150.937L149.328 142.853C148.314 142.041 148.662 140.42 149.92 140.095L163.985 136.463Z" fill="#E8822D"/>
<path d="M44.3007 345.202C59.9849 360.485 59.5128 385.835 43.2703 400.524C42.5833 401.145 42.8952 402.283 43.8029 402.468L63.3854 406.448C107.988 415.512 154.217 412.267 197.116 397.061C201.558 395.487 203.447 390.24 201.028 386.195L200.292 384.964C178.61 348.717 149.278 317.638 114.345 293.897L97.65 282.552C96.676 281.89 95.3433 282.452 95.1376 283.612C90.8903 307.552 71.3183 325.796 47.1388 328.353L32.4321 329.908C31.0591 330.053 30.4771 331.733 31.466 332.696L44.3007 345.202Z" fill="#E8822D"/>
<circle cx="125.457" cy="24.1504" r="8.81661" fill="black"/>
</svg>
