<svg width="928" height="830" viewBox="0 0 928 830" fill="none" xmlns="http://www.w3.org/2000/svg">
<path d="M93.3289 83.632C107.539 60.1376 130.729 43.466 157.526 37.479L191.257 29.9428C207.812 26.244 224.804 24.8825 241.737 25.8981L298.423 29.2981C321.705 30.6945 344.196 38.2639 363.585 51.2287C371.556 56.5591 374.709 66.7417 371.144 75.6438L331.532 174.554L421.58 99.7479C430.701 92.1713 443.288 90.3203 454.203 94.9504L469.402 101.397C485.205 108.1 499.465 117.974 511.301 130.408L517.266 136.675C530.207 150.269 538.902 167.343 542.286 185.804C545.456 203.099 543.841 220.93 537.614 237.374L537.156 238.584C527.284 264.654 507.089 285.494 481.341 296.18L468.092 301.679C458.896 305.495 449.305 308.278 439.495 309.975L426.365 312.247C401.55 316.54 376.234 317.117 351.248 313.959L291.999 306.469C263.479 302.864 235.541 295.608 208.871 284.879L177.836 272.395C159.294 264.937 142.322 254.056 127.805 240.321L118.222 231.254C96.5111 210.713 82.9497 183.022 80.0333 153.277L79.277 145.563C77.1574 123.944 82.0867 102.219 93.3289 83.632Z" fill="#799E34"/>
<ellipse cx="317.385" cy="193.628" rx="16.8172" ry="18.1109" transform="rotate(7.20465 317.385 193.628)" fill="#5D8026"/>
<path d="M300.405 173.227L307.868 114.189" stroke="#5D8026" stroke-width="5.17454" stroke-linecap="round"/>
<path d="M302.771 170.861L137.902 113.51" stroke="#5D8026" stroke-width="5.17454" stroke-linecap="round"/>
<path d="M302.614 193.26L223.87 279.797" stroke="#5D8026" stroke-width="5.17454" stroke-linecap="round"/>
<path d="M260.959 238.65L147.369 229.507" stroke="#5D8026" stroke-width="5.17454" stroke-linecap="round"/>
<path d="M335.913 200.178L359.223 283.968" stroke="#5D8026" stroke-width="5.17454" stroke-linecap="round"/>
<path d="M335.518 185.493L465.453 209.742" stroke="#5D8026" stroke-width="5.17454" stroke-linecap="round"/>
<path d="M312.833 182.924C385.983 196.857 387.07 297.573 395.922 353.217C408.689 433.466 417.56 517.176 478.189 577.806C590.159 689.776 770.063 753.035 927.368 753.035" stroke="#5D8026" stroke-width="7.00719" stroke-linecap="round"/>
</svg>
