<svg width="628" height="507" viewBox="0 0 628 507" fill="none" xmlns="http://www.w3.org/2000/svg">
<path d="M326.301 325.771C336.455 350.411 320.351 377.944 293.91 381.183L236.978 382.485L236.92 382.486L236.862 382.493L214.331 385.255C206.771 386.182 199.109 385.849 191.657 384.269L174.954 380.729C167.412 379.13 160.838 374.546 156.73 368.021L152.622 361.497C147.652 353.602 138.022 349.998 129.089 352.69C124.22 354.157 118.96 353.544 114.559 350.995L107.161 346.711C102.398 343.952 98.288 340.195 95.1144 335.697L80.9386 315.606C74.0559 305.851 69.9074 294.434 68.9231 282.536C66.743 256.181 80.2837 231.014 103.477 218.312L143.912 196.167C157.901 188.506 174.292 186.492 189.719 190.539C202.402 193.866 215.796 193.264 228.129 188.811L248.949 181.295C265.488 175.324 283.043 172.677 300.608 173.506L346.088 175.654L491.723 209.504C505.896 212.798 516.544 224.528 518.456 238.953C519.558 247.264 517.635 255.695 513.038 262.706L502.203 279.233C491.601 295.406 475.111 306.808 456.236 311.017C449.938 312.421 443.484 312.999 437.037 312.736L429.068 312.411C391.35 310.873 355.99 293.643 331.536 264.885L277.481 201.317L275.509 202.52L326.301 325.771Z" fill="#87CDD9" stroke="white" stroke-width="2.33792"/>
<path d="M500.952 217.004C499.808 244.672 487.375 270.661 466.552 288.915L444.414 308.322C435.056 316.526 421.222 317.029 411.292 309.526L302.122 227.035L348.858 326.773C356.751 343.615 344.402 362.936 325.803 362.847L191.666 362.204C176.052 362.129 160.592 359.113 146.096 353.312L139.608 350.716C122.13 343.722 106.981 331.938 95.9033 316.717C86.0298 303.152 79.7279 287.321 77.5777 270.681L77.4428 269.636C73.8525 241.851 81.6101 213.792 98.9631 191.797L104.466 184.822C110.548 177.113 117.516 170.146 125.225 164.064L133.574 157.478C151.757 143.135 172.135 131.818 193.922 123.965L243.185 106.207C268.202 97.1889 294.355 91.705 320.888 89.9138L348.124 88.0749C367.806 86.7462 387.557 89.3277 406.236 95.6706L413.224 98.0436C441.666 107.702 465.844 126.985 481.586 152.567L486.029 159.789C496.589 176.95 501.785 196.872 500.952 217.004Z" fill="#799E34"/>
<ellipse cx="274.155" cy="235.489" rx="15.1965" ry="16.3654" transform="rotate(155.798 274.155 235.489)" fill="#5D8026"/>
<path d="M292.479 257.335L314.524 306.381" stroke="#5D8026" stroke-width="4.67584" stroke-linecap="round"/>
<path d="M293.819 204.397L447.977 170.993" stroke="#5D8026" stroke-width="4.67584" stroke-linecap="round"/>
<path d="M285.72 228.817L305.7 124.998" stroke="#5D8026" stroke-width="4.67584" stroke-linecap="round"/>
<path d="M296.472 174.196L388.382 127.759" stroke="#5D8026" stroke-width="4.67584" stroke-linecap="round"/>
<path d="M256.782 239.163L199.348 185.518" stroke="#5D8026" stroke-width="4.67584" stroke-linecap="round"/>
<path d="M264.001 250.301L152.373 292.786" stroke="#5D8026" stroke-width="4.67584" stroke-linecap="round"/>
<path d="M430.347 509.324C425.574 498.704 426.132 486.116 421.227 475.204C414.929 461.192 406.423 451.363 395.419 440.065C381.772 426.054 353.442 413.276 329.972 408.928C289.913 401.506 268.196 378.843 256.006 349.617C246.433 326.666 263.728 303.612 264.736 279.154" stroke="#5D8026" stroke-width="7.01376" stroke-linecap="round"/>
</svg>
