<svg width="2019" height="942" viewBox="0 0 2019 942" fill="none" xmlns="http://www.w3.org/2000/svg">
<path d="M0.00012207 374.418C125.154 325.329 265.943 336.624 381.671 405.038L588.172 527.113C740.119 616.938 927.641 622.078 1084.28 540.711L1111.83 526.4C1165.36 498.592 1214.21 462.567 1256.58 419.636L1491.28 181.875C1572.6 99.4941 1690.88 65.2749 1803.62 91.5108L1821.5 95.6712C1906.93 115.552 1979.02 172.549 2018.07 251.092V942H0.00012207V374.418Z" fill="#577EB1"/>
<path d="M-93.3094 264.884C-87.4434 247.984 -68.9801 239.048 -52.0865 244.932L-13.6924 258.304C5.67053 265.048 25.6232 269.962 45.9036 272.98L90.9797 279.687C99.0981 280.895 105.108 287.866 105.108 296.074C105.108 304.395 98.9356 311.425 90.6844 312.501L57.0979 316.883C21.1931 321.567 -15.261 319.766 -50.5291 311.565L-70.0631 307.023C-88.7892 302.668 -99.6139 283.047 -93.3094 264.884Z" fill="#577EB1"/>
<path d="M359.06 318.377C353.886 337.499 334.18 348.798 315.063 343.603L278.106 333.56C259.039 328.379 239.528 324.997 219.83 323.46L196.684 321.653C176.843 320.104 163.074 300.987 167.492 281.582C170.126 270.014 179.014 260.712 190.491 257.708C228.839 247.67 269.36 249.819 306.43 263.859L337.156 275.495C354.402 282.026 363.877 300.577 359.06 318.377Z" fill="#577EB1"/>
<path d="M947.342 498.524C946.905 485.907 956.822 475.347 969.44 474.989L993.188 474.317C1005.73 473.962 1018.2 472.423 1030.45 469.72L1044.47 466.629C1056.8 463.907 1068.69 472.746 1069.63 485.344L1069.67 485.848C1070.23 493.262 1066.61 500.369 1060.28 504.28C1039 517.438 1014.13 523.589 989.175 521.865L968.516 520.438C956.887 519.634 947.746 510.173 947.342 498.524Z" fill="#577EB1"/>
<path d="M416.242 454.728C427.856 439.603 449.364 436.396 464.886 447.474L500.707 473.043C516.558 484.357 533.386 494.237 550.991 502.565L575.674 514.242C593.469 522.66 599.391 545.079 588.073 561.187C581.307 570.816 569.77 575.912 558.096 574.428L556.426 574.216C515.968 569.074 477.926 552.108 447.066 525.444L421.176 503.074C406.983 490.811 404.819 469.606 416.242 454.728Z" fill="#4FABD4"/>
<path d="M1034.75 552.529C1031.77 533.693 1044.25 515.882 1062.97 512.247L1106.17 503.858C1125.29 500.146 1144.04 494.738 1162.2 487.699L1187.66 477.829C1206.01 470.713 1226.35 481.848 1230.25 501.146C1232.57 512.681 1228.33 524.557 1219.22 532.005L1217.92 533.071C1186.34 558.883 1147.85 574.803 1107.27 578.839L1073.22 582.224C1054.55 584.08 1037.68 571.056 1034.75 552.529Z" fill="#4FABD4"/>
<path d="M1740.65 116.798C1742.42 135.786 1728.82 152.758 1709.91 155.182L1666.25 160.776C1646.94 163.251 1627.88 167.442 1609.3 173.299L1583.26 181.511C1564.49 187.432 1544.91 175.013 1542.26 155.505C1540.68 143.844 1545.67 132.265 1555.25 125.418L1556.62 124.438C1589.79 100.71 1629.22 87.2977 1669.98 85.8799L1704.18 84.6904C1722.92 84.0383 1738.92 98.1212 1740.65 116.798Z" fill="#4FABD4"/>
<path d="M1349.56 175.409C1352.26 153.317 1371.33 136.904 1393.57 137.517L1469.14 139.598C1487 140.09 1504.87 139.121 1522.58 136.7L1573.52 129.737C1597.42 126.47 1618.24 146.08 1616.4 170.128C1615.35 183.947 1606.83 196.087 1594.2 201.777L1588.02 204.557C1539.5 226.405 1485.98 234.751 1433.11 228.714L1387.49 223.505C1363.69 220.787 1346.66 199.192 1349.56 175.409Z" fill="#4FABD4"/>
<path d="M1244.46 251.086C1247.16 228.994 1266.22 212.582 1288.47 213.195L1364.03 215.276C1381.89 215.768 1399.77 214.799 1417.47 212.378L1468.41 205.414C1492.31 202.148 1513.13 221.757 1511.3 245.806C1510.24 259.625 1501.73 271.764 1489.09 277.454L1482.91 280.235C1434.39 302.082 1380.88 310.428 1328.01 304.392L1282.38 299.182C1258.58 296.464 1241.55 274.869 1244.46 251.086Z" fill="#4FABD4"/>
<path d="M635.456 557.379C645.253 544.62 662.613 540.407 677.168 547.256L699.565 557.795C723.551 569.081 749.118 576.644 775.385 580.221L790.809 582.322C814.474 585.546 827.106 611.944 814.769 632.395C809.963 640.361 802.038 645.947 792.919 647.793L755.017 655.47C753.033 655.872 751.349 657.171 750.457 658.988C732.191 696.197 676.194 683.193 676.194 641.743L676.194 628.75C676.194 626.177 674.787 623.809 672.526 622.579L646.243 608.278C627.774 598.229 622.651 574.056 635.456 557.379Z" fill="#4FABD4"/>
<path d="M445.633 402.417C451.818 384.599 473.722 378.193 488.533 389.871L492.03 392.627C493.808 394.029 495.398 395.653 496.763 397.46C511.866 417.448 493.349 445.291 469.076 439.093L464.762 437.992C449.202 434.019 440.367 417.588 445.633 402.417Z" fill="#577EB1"/>
<path d="M1621.06 90.4667C1626.56 78.8538 1640.8 74.4123 1651.93 80.841L1665.65 88.7652C1667.02 89.5576 1668.29 90.5161 1669.42 91.6188C1683.13 104.917 1671.23 127.917 1652.46 124.404L1636.89 121.491C1622.72 118.839 1614.89 103.496 1621.06 90.4667Z" fill="#577EB1"/>
<path d="M1685.72 55.6384C1686.46 42.8096 1697.99 33.3429 1710.72 35.1216L1726.41 37.3141C1727.97 37.5334 1729.51 37.9451 1730.98 38.5401C1748.68 45.7146 1746.29 71.5008 1727.57 75.2974L1712.05 78.4457C1697.92 81.3113 1684.9 70.0317 1685.72 55.6384Z" fill="#577EB1"/>
<path d="M883.051 531.249C883.436 518.759 894.292 509.191 906.732 510.378L923.128 511.943C924.662 512.089 926.172 512.423 927.625 512.936C945.308 519.189 944.019 544.617 925.793 549.048L909.789 552.94C895.9 556.317 882.611 545.537 883.051 531.249Z" fill="#577EB1"/>
<path d="M655.402 521.447C657.762 514.648 666.121 512.204 671.772 516.66L673.106 517.711C673.785 518.246 674.392 518.866 674.913 519.555C680.675 527.183 673.61 537.807 664.348 535.442L662.702 535.022C656.764 533.506 653.393 527.236 655.402 521.447Z" fill="#577EB1"/>
<path d="M517.13 465.871C517.13 449.827 534.758 440.028 548.385 448.496L600.305 480.76C601.372 481.423 602.318 482.263 603.102 483.244C609.706 491.512 602.008 503.433 591.755 500.815L532.527 485.693C523.468 483.38 517.13 475.22 517.13 465.871Z" fill="#577EB1"/>
<path d="M772.465 534.603C774.306 522.641 762.288 513.311 751.156 518.061L708.74 536.157C707.869 536.529 707.067 537.047 706.37 537.688C700.497 543.095 704.869 552.867 712.813 552.092L758.71 547.615C765.729 546.93 771.392 541.574 772.465 534.603Z" fill="#577EB1"/>
</svg>
